Rosario-MediumItalic.ufo
<glyph name="exclam" format="2">
  <advance width="246.0"/>
  <unicode hex="0021"/>
  <note>
exclam
</note>
  <outline>
    <contour>
      <point x="135.35294117647058" y="728.5882352941177" type="line"/>
      <point x="92.3529411764706" y="217.2941176470588" type="line"/>
      <point x="155.91176470588235" y="217.2941176470588" type="line"/>
      <point x="256.9117647058824" y="728.5882352941177" type="line"/>
    </contour>
    <contour>
      <point x="170.02941176470588" y="63.61764705882353" type="curve" smooth="yes"/>
      <point x="170.02941176470588" y="96.20588235294117"/>
      <point x="144.58823529411765" y="121.5"/>
      <point x="111.0" y="121.5" type="curve" smooth="yes"/>
      <point x="70.55882352941177" y="121.5"/>
      <point x="33.529411764705884" y="86.61764705882354"/>
      <point x="33.529411764705884" y="45.1764705882353" type="curve" smooth="yes"/>
      <point x="33.529411764705884" y="12.588235294117647"/>
      <point x="58.970588235294116" y="-12.852941176470589"/>
      <point x="92.55882352941177" y="-12.852941176470589" type="curve" smooth="yes"/>
      <point x="132.44117647058823" y="-12.852941176470589"/>
      <point x="170.02941176470588" y="22.735294117647058"/>
    </contour>
  </outline>
</glyph>
<glyph name="quotedbl" format="2">
  <advance width="300.0"/>
  <unicode hex="0022"/>
  <note>
quotedbl
</note>
  <outline>
    <contour>
      <point x="105.08823529411765" y="437.9117647058824" type="line"/>
      <point x="149.41176470588235" y="549.6176470588235" type="line"/>
      <point x="174.26470588235293" y="725.1764705882352" type="line"/>
      <point x="92.20588235294117" y="725.1764705882352" type="line"/>
      <point x="67.3529411764706" y="551.3235294117648" type="line"/>
      <point x="78.11764705882354" y="437.9117647058824" type="line"/>
    </contour>
    <contour>
      <point x="245.26470588235293" y="437.9117647058824" type="line"/>
      <point x="289.5882352941176" y="549.6176470588235" type="line"/>
      <point x="314.44117647058823" y="725.1764705882352" type="line"/>
      <point x="232.38235294117646" y="725.1764705882352" type="line"/>
      <point x="207.52941176470588" y="551.3235294117648" type="line"/>
      <point x="218.14705882352942" y="437.9117647058824" type="line"/>
    </contour>
  </outline>
</glyph>
<glyph name="numbersign" format="2">
  <advance width="640.0"/>
  <unicode hex="0023"/>
  <note>
numbersign
</note>
  <outline>
    <contour>
      <point x="437.20588235294116" y="296.1470588235294" type="line"/>
      <point x="455.20588235294116" y="425.8529411764706" type="line"/>
      <point x="583.7058823529412" y="425.8529411764706" type="line"/>
      <point x="583.7058823529412" y="487.55882352941177" type="line"/>
      <point x="462.94117647058823" y="487.55882352941177" type="line"/>
      <point x="493.6470588235294" y="718.3529411764706" type="line"/>
      <point x="429.38235294117646" y="718.3529411764706" type="line"/>
      <point x="398.6764705882353" y="487.55882352941177" type="line"/>
      <point x="280.79411764705884" y="487.55882352941177" type="line"/>
      <point x="312.3529411764706" y="718.3529411764706" type="line"/>
      <point x="246.38235294117646" y="718.3529411764706" type="line"/>
      <point x="215.6764705882353" y="487.55882352941177" type="line"/>
      <point x="83.44117647058823" y="487.55882352941177" type="line"/>
      <point x="83.44117647058823" y="425.8529411764706" type="line"/>
      <point x="207.08823529411765" y="425.8529411764706" type="line"/>
      <point x="189.94117647058823" y="296.1470588235294" type="line"/>
      <point x="57.44117647058823" y="296.1470588235294" type="line"/>
      <point x="57.44117647058823" y="236.14705882352942" type="line"/>
      <point x="181.35294117647058" y="236.14705882352942" type="line"/>
      <point x="149.08823529411765" y="0.0" type="line"/>
      <point x="213.35294117647058" y="0.0" type="line"/>
      <point x="246.47058823529412" y="236.14705882352942" type="line"/>
      <point x="363.5" y="236.14705882352942" type="line"/>
      <point x="331.2352941176471" y="0.0" type="line"/>
      <point x="396.3529411764706" y="0.0" type="line"/>
      <point x="429.47058823529414" y="236.14705882352942" type="line"/>
      <point x="558.5588235294117" y="236.14705882352942" type="line"/>
      <point x="558.5588235294117" y="296.1470588235294" type="line"/>
    </contour>
    <contour>
      <point x="255.05882352941177" y="296.1470588235294" type="line"/>
      <point x="272.20588235294116" y="425.8529411764706" type="line"/>
      <point x="390.0882352941176" y="425.8529411764706" type="line"/>
      <point x="372.0882352941176" y="296.1470588235294" type="line"/>
    </contour>
  </outline>
</glyph>
<glyph name="dollar" format="2">
  <advance width="535.1470588235294"/>
  <unicode hex="0024"/>
  <note>
dollar
</note>
  <outline>
    <contour>
      <point x="355.05882352941177" y="697.4705882352941" type="curve" smooth="yes"/>
      <point x="227.52941176470588" y="697.4705882352941"/>
      <point x="109.32352941176471" y="630.3235294117648"/>
      <point x="109.32352941176471" y="493.9117647058824" type="curve" smooth="yes"/>
      <point x="109.32352941176471" y="319.94117647058823"/>
      <point x="374.88235294117646" y="337.3235294117647"/>
      <point x="374.88235294117646" y="207.41176470588235" type="curve" smooth="yes"/>
      <point x="374.88235294117646" y="129.2941176470588"/>
      <point x="302.3529411764706" y="62.6764705882353"/>
      <point x="224.8235294117647" y="62.6764705882353" type="curve" smooth="yes"/>
      <point x="158.0" y="62.6764705882353"/>
      <point x="122.32352941176471" y="83.1470588235294"/>
      <point x="67.82352941176471" y="124.58823529411765" type="curve"/>
      <point x="22.735294117647058" y="44.73529411764706" type="line"/>
      <point x="84.02941176470588" y="9.411764705882353"/>
      <point x="153.94117647058823" y="-10.294117647058824"/>
      <point x="221.26470588235293" y="-10.294117647058824" type="curve" smooth="yes"/>
      <point x="359.1764705882353" y="-10.294117647058824"/>
      <point x="476.0882352941176" y="80.73529411764706"/>
      <point x="476.0882352941176" y="223.7941176470588" type="curve" smooth="yes"/>
      <point x="476.0882352941176" y="406.3235294117647"/>
      <point x="208.97058823529412" y="396.47058823529414"/>
      <point x="208.97058823529412" y="512.0" type="curve" smooth="yes"/>
      <point x="208.97058823529412" y="584.2352941176471"/>
      <point x="276.3235294117647" y="624.5"/>
      <point x="345.2647058823529" y="624.5" type="curve" smooth="yes"/>
      <point x="393.6764705882353" y="624.5"/>
      <point x="433.38235294117646" y="610.0294117647059"/>
      <point x="472.9117647058824" y="577.0294117647059" type="curve"/>
      <point x="517.4117647058823" y="648.5588235294117" type="line"/>
      <point x="470.7352941176471" y="681.0"/>
      <point x="411.3235294117647" y="697.4705882352941"/>
    </contour>
    <contour>
      <point x="242.23529411764707" y="17.411764705882355" type="line"/>
      <point x="193.58823529411765" y="17.411764705882355" type="line"/>
      <point x="130.7058823529412" y="-136.52941176470588" type="line"/>
      <point x="205.64705882352942" y="-136.52941176470588" type="line"/>
    </contour>
    <contour>
      <point x="316.38235294117646" y="668.8823529411765" type="line"/>
      <point x="367.3235294117647" y="668.8823529411765" type="line"/>
      <point x="427.61764705882354" y="815.2352941176471" type="line"/>
      <point x="350.6764705882353" y="815.2352941176471" type="line"/>
    </contour>
  </outline>
</glyph>
<glyph name="ampersand" format="2">
  <advance width="639.3823529411765"/>
  <unicode hex="0026"/>
  <note>
ampersand
</note>
  <outline>
    <contour>
      <point x="231.0" y="418.88235294117646" type="line"/>
      <point x="87.32352941176471" y="378.1470588235294"/>
      <point x="6.970588235294118" y="266.7647058823529"/>
      <point x="6.970588235294118" y="166.02941176470588" type="curve" smooth="yes"/>
      <point x="6.970588235294118" y="70.38235294117646"/>
      <point x="77.20588235294117" y="-9.0"/>
      <point x="219.61764705882354" y="-9.0" type="curve" smooth="yes"/>
      <point x="406.1764705882353" y="-9.0"/>
      <point x="504.47058823529414" y="113.47058823529412"/>
      <point x="504.47058823529414" y="234.2058823529412" type="curve" smooth="yes"/>
      <point x="504.47058823529414" y="290.47058823529414"/>
      <point x="483.47058823529414" y="346.44117647058823"/>
      <point x="439.5882352941176" y="389.0" type="curve"/>
      <point x="377.20588235294116" y="348.97058823529414" type="line"/>
      <point x="410.79411764705884" y="306.29411764705884"/>
      <point x="427.79411764705884" y="258.47058823529414"/>
      <point x="427.79411764705884" y="213.5" type="curve" smooth="yes"/>
      <point x="427.79411764705884" y="128.7941176470588"/>
      <point x="366.44117647058823" y="57.05882352941177"/>
      <point x="243.91176470588235" y="57.05882352941177" type="curve" smooth="yes"/>
      <point x="151.85294117647058" y="57.05882352941177"/>
      <point x="103.82352941176471" y="120.1470588235294"/>
      <point x="103.82352941176471" y="191.61764705882354" type="curve" smooth="yes"/>
      <point x="103.82352941176471" y="263.5882352941176"/>
      <point x="154.38235294117646" y="338.79411764705884"/>
      <point x="246.26470588235293" y="355.97058823529414" type="curve"/>
    </contour>
    <contour>
      <point x="387.7352941176471" y="736.6176470588235" type="curve" smooth="yes"/>
      <point x="277.94117647058823" y="736.6176470588235"/>
      <point x="182.11764705882354" y="635.6764705882352"/>
      <point x="182.11764705882354" y="458.7647058823529" type="curve" smooth="yes"/>
      <point x="182.11764705882354" y="280.20588235294116"/>
      <point x="245.23529411764707" y="130.47058823529412"/>
      <point x="353.7647058823529" y="53.3235294117647" type="curve" smooth="yes"/>
      <point x="410.2352941176471" y="13.558823529411764"/>
      <point x="489.8529411764706" y="-9.0"/>
      <point x="554.8823529411765" y="-9.0" type="curve" smooth="yes"/>
      <point x="578.6470588235294" y="-9.0"/>
      <point x="604.4117647058823" y="-6.5588235294117645"/>
      <point x="631.4705882352941" y="-1.1176470588235294" type="curve"/>
      <point x="621.7352941176471" y="68.08823529411765" type="line"/>
      <point x="603.4117647058823" y="62.794117647058826"/>
      <point x="585.5294117647059" y="60.5"/>
      <point x="566.9411764705883" y="60.5" type="curve" smooth="yes"/>
      <point x="516.6764705882352" y="60.5"/>
      <point x="464.88235294117646" y="78.5"/>
      <point x="424.55882352941177" y="108.41176470588235" type="curve" smooth="yes"/>
      <point x="332.47058823529414" y="172.14705882352942"/>
      <point x="278.6764705882353" y="306.0"/>
      <point x="278.6764705882353" y="459.3235294117647" type="curve" smooth="yes"/>
      <point x="278.6764705882353" y="582.7941176470588"/>
      <point x="322.9117647058824" y="670.1176470588235"/>
      <point x="388.0" y="670.1176470588235" type="curve" smooth="yes"/>
      <point x="415.5882352941176" y="670.1176470588235"/>
      <point x="444.61764705882354" y="654.2352941176471"/>
      <point x="473.79411764705884" y="623.4705882352941" type="curve"/>
      <point x="527.5882352941177" y="685.7058823529412" type="line"/>
      <point x="484.38235294117646" y="720.7352941176471"/>
      <point x="435.7647058823529" y="736.6176470588235"/>
    </contour>
    <contour>
      <point x="386.5" y="419.9117647058824" type="line"/>
      <point x="377.20588235294116" y="348.97058823529414" type="line"/>
      <point x="598.1176470588235" y="348.97058823529414" type="line"/>
      <point x="615.5294117647059" y="419.9117647058824" type="line"/>
    </contour>
  </outline>
</glyph>
<glyph name="quotesingle" format="2">
  <advance width="157.0"/>
  <unicode hex="0027"/>
  <note>
quotesingle
</note>
  <outline>
    <contour>
      <point x="144.2941176470588" y="549.6176470588235" type="line"/>
      <point x="169.14705882352942" y="725.1764705882352" type="line"/>
      <point x="87.08823529411765" y="725.1764705882352" type="line"/>
      <point x="62.23529411764706" y="551.3235294117648" type="line"/>
      <point x="73.0" y="437.9117647058824" type="line"/>
      <point x="99.97058823529412" y="437.9117647058824" type="line"/>
    </contour>
  </outline>
</glyph>
<glyph name="parenleft" format="2">
  <advance width="323.0"/>
  <unicode hex="0028"/>
  <note>
parenleft
</note>
  <outline>
    <contour>
      <point x="359.38235294117646" y="727.0" type="curve"/>
      <point x="291.70588235294116" y="737.8823529411765" type="line"/>
      <point x="154.55882352941177" y="595.3235294117648"/>
      <point x="56.94117647058823" y="410.3529411764706"/>
      <point x="56.94117647058823" y="211.76470588235293" type="curve" smooth="yes"/>
      <point x="56.94117647058823" y="85.29411764705883"/>
      <point x="96.55882352941177" y="-35.44117647058823"/>
      <point x="169.44117647058823" y="-140.88235294117646" type="curve"/>
      <point x="238.55882352941177" y="-130.0" type="line"/>
      <point x="173.8235294117647" y="-27.852941176470587"/>
      <point x="143.35294117647058" y="75.70588235294117"/>
      <point x="143.35294117647058" y="190.47058823529412" type="curve" smooth="yes"/>
      <point x="143.35294117647058" y="392.52941176470586"/>
      <point x="218.08823529411765" y="572.1470588235294"/>
    </contour>
  </outline>
</glyph>
<glyph name="parenright" format="2">
  <advance width="328.0"/>
  <unicode hex="0029"/>
  <note>
parenright
</note>
  <outline>
    <contour>
      <point x="299.3529411764706" y="384.38235294117646" type="curve" smooth="yes"/>
      <point x="299.3529411764706" y="510.70588235294116"/>
      <point x="259.7352941176471" y="632.4411764705883"/>
      <point x="186.85294117647058" y="737.8823529411765" type="curve"/>
      <point x="117.88235294117646" y="727.0" type="line"/>
      <point x="182.47058823529412" y="624.7058823529412"/>
      <point x="212.94117647058823" y="521.1470588235294"/>
      <point x="212.94117647058823" y="405.52941176470586" type="curve" smooth="yes"/>
      <point x="212.94117647058823" y="204.47058823529412"/>
      <point x="138.2058823529412" y="23.852941176470587"/>
      <point x="-3.088235294117647" y="-130.0" type="curve"/>
      <point x="65.44117647058823" y="-140.88235294117646" type="line"/>
      <point x="202.58823529411765" y="1.6764705882352942"/>
      <point x="299.3529411764706" y="185.64705882352942"/>
    </contour>
  </outline>
</glyph>
<glyph name="asterisk" format="2">
  <advance width="472.94117647058823"/>
  <unicode hex="002A"/>
  <note>
asterisk
</note>
  <outline>
    <contour>
      <point x="258.79411764705884" y="732.4705882352941" type="line"/>
      <point x="259.8235294117647" y="590.1176470588235" type="line"/>
      <point x="303.3235294117647" y="590.1176470588235" type="line"/>
      <point x="341.6470588235294" y="732.4705882352941" type="line"/>
    </contour>
    <contour>
      <point x="314.4117647058824" y="583.2941176470588" type="line"/>
      <point x="321.8529411764706" y="539.0882352941177" type="line"/>
      <point x="465.6470588235294" y="567.0882352941177" type="line"/>
      <point x="446.61764705882354" y="649.5" type="line"/>
    </contour>
    <contour>
      <point x="128.26470588235293" y="645.3529411764706" type="line"/>
      <point x="95.20588235294117" y="564.7941176470588" type="line"/>
      <point x="230.55882352941177" y="543.7941176470588" type="line"/>
      <point x="249.58823529411765" y="582.4411764705883" type="line"/>
    </contour>
    <contour>
      <point x="231.41176470588235" y="530.1470588235294" type="line"/>
      <point x="119.76470588235294" y="424.97058823529414" type="line"/>
      <point x="178.2941176470588" y="377.3235294117647" type="line"/>
      <point x="264.02941176470586" y="501.8235294117647" type="line"/>
    </contour>
    <contour>
      <point x="276.8235294117647" y="501.8235294117647" type="line"/>
      <point x="326.97058823529414" y="375.02941176470586" type="line"/>
      <point x="401.2352941176471" y="426.4117647058824" type="line"/>
      <point x="315.02941176470586" y="526.2941176470588" type="line"/>
    </contour>
  </outline>
</glyph>
<glyph name="plus" format="2">
  <advance width="642.0"/>
  <unicode hex="002B"/>
  <note>
plus
</note>
  <outline>
    <contour>
      <point x="319.02941176470586" y="0.0" type="line"/>
      <point x="348.02941176470586" y="210.11764705882354" type="line"/>
      <point x="561.5588235294117" y="210.11764705882354" type="line"/>
      <point x="571.8529411764706" y="281.9117647058824" type="line"/>
      <point x="358.3235294117647" y="281.9117647058824" type="line"/>
      <point x="387.3235294117647" y="491.02941176470586" type="line"/>
      <point x="314.6764705882353" y="491.02941176470586" type="line"/>
      <point x="285.6764705882353" y="281.7647058823529" type="line"/>
      <point x="73.0" y="281.7647058823529" type="line"/>
      <point x="62.705882352941174" y="209.97058823529412" type="line"/>
      <point x="275.38235294117646" y="209.97058823529412" type="line"/>
      <point x="246.38235294117646" y="0.0" type="line"/>
    </contour>
  </outline>
</glyph>
<glyph name="comma" format="2">
  <advance width="248.64705882352942"/>
  <unicode hex="002C"/>
  <note>
comma
</note>
  <outline>
    <contour>
      <point x="172.47058823529412" y="51.76470588235294" type="curve" smooth="yes"/>
      <point x="172.47058823529412" y="90.3529411764706"/>
      <point x="148.2941176470588" y="122.79411764705883"/>
      <point x="104.8529411764706" y="122.79411764705883" type="curve" smooth="yes"/>
      <point x="68.11764705882354" y="122.79411764705883"/>
      <point x="34.38235294117647" y="98.17647058823529"/>
      <point x="34.38235294117647" y="54.73529411764706" type="curve" smooth="yes"/>
      <point x="34.38235294117647" y="15.705882352941176"/>
      <point x="73.79411764705883" y="1.2941176470588236"/>
      <point x="73.79411764705883" y="-17.705882352941178" type="curve" smooth="yes"/>
      <point x="73.79411764705883" y="-37.44117647058823"/>
      <point x="53.705882352941174" y="-60.94117647058823"/>
      <point x="16.08823529411765" y="-92.1470588235294" type="curve"/>
      <point x="46.529411764705884" y="-126.32352941176471" type="line"/>
      <point x="106.11764705882354" y="-87.02941176470588"/>
      <point x="172.47058823529412" y="-21.558823529411764"/>
    </contour>
  </outline>
</glyph>
<glyph name="hyphen" format="2">
  <advance width="322.38235294117646"/>
  <unicode hex="002D"/>
  <note>
hyphen
</note>
  <outline>
    <contour>
      <point x="35.3235294117647" y="220.23529411764707" type="line"/>
      <point x="273.38235294117646" y="220.23529411764707" type="line"/>
      <point x="284.6764705882353" y="294.7647058823529" type="line"/>
      <point x="46.61764705882353" y="294.7647058823529" type="line"/>
    </contour>
  </outline>
</glyph>
<glyph name="period" format="2">
  <advance width="242.2941176470588"/>
  <unicode hex="002E"/>
  <note>
period
</note>
  <outline>
    <contour>
      <point x="166.52941176470588" y="64.91176470588235" type="curve" smooth="yes"/>
      <point x="166.52941176470588" y="98.6470588235294"/>
      <point x="140.94117647058823" y="123.38235294117646"/>
      <point x="106.20588235294117" y="123.38235294117646" type="curve" smooth="yes"/>
      <point x="66.32352941176471" y="123.38235294117646"/>
      <point x="29.147058823529413" y="87.5"/>
      <point x="29.147058823529413" y="46.3235294117647" type="curve" smooth="yes"/>
      <point x="29.147058823529413" y="12.735294117647058"/>
      <point x="53.88235294117647" y="-12.852941176470589"/>
      <point x="88.47058823529412" y="-12.852941176470589" type="curve" smooth="yes"/>
      <point x="128.64705882352942" y="-12.852941176470589"/>
      <point x="166.52941176470588" y="23.029411764705884"/>
    </contour>
  </outline>
</glyph>
<glyph name="slash" format="2">
  <advance width="293.0"/>
  <unicode hex="002F"/>
  <note>
slash
</note>
  <outline>
    <contour>
      <point x="-14.588235294117647" y="-6.823529411764706" type="line"/>
      <point x="57.088235294117645" y="-6.823529411764706" type="line"/>
      <point x="312.5882352941176" y="725.1764705882352" type="line"/>
      <point x="242.47058823529412" y="725.1764705882352" type="line"/>
    </contour>
  </outline>
</glyph>
<glyph name="zero" format="2">
  <advance width="539.7647058823529"/>
  <unicode hex="0030"/>
  <note>
zero
</note>
  <guideline x="106.82352941176471" y="453.6764705882353" angle="90.0"/>
  <guideline x="53.23529411764706" y="453.6764705882353" angle="90.0"/>
  <guideline x="486.52941176470586" y="453.6764705882353" angle="90.0"/>
  <guideline x="432.94117647058823" y="453.6764705882353" angle="90.0"/>
  <outline>
    <contour>
      <point x="300.11764705882354" y="504.02941176470586" type="curve" smooth="yes"/>
      <point x="136.55882352941177" y="504.02941176470586"/>
      <point x="36.029411764705884" y="359.55882352941177"/>
      <point x="36.029411764705884" y="204.6764705882353" type="curve" smooth="yes"/>
      <point x="36.029411764705884" y="83.67647058823529"/>
      <point x="109.08823529411765" y="-12.852941176470589"/>
      <point x="239.64705882352942" y="-12.852941176470589" type="curve" smooth="yes"/>
      <point x="409.05882352941177" y="-12.852941176470589"/>
      <point x="503.7352941176471" y="136.2058823529412"/>
      <point x="503.7352941176471" y="286.5" type="curve" smooth="yes"/>
      <point x="503.7352941176471" y="410.3529411764706"/>
      <point x="433.6764705882353" y="504.02941176470586"/>
    </contour>
    <contour>
      <point x="293.38235294117646" y="439.2352941176471" type="curve" smooth="yes"/>
      <point x="383.7647058823529" y="439.2352941176471"/>
      <point x="415.7352941176471" y="379.52941176470586"/>
      <point x="415.7352941176471" y="297.88235294117646" type="curve" smooth="yes"/>
      <point x="415.7352941176471" y="186.64705882352942"/>
      <point x="377.3235294117647" y="51.94117647058823"/>
      <point x="246.38235294117646" y="51.94117647058823" type="curve" smooth="yes"/>
      <point x="155.85294117647058" y="51.94117647058823"/>
      <point x="124.02941176470588" y="111.91176470588235"/>
      <point x="124.02941176470588" y="193.26470588235293" type="curve" smooth="yes"/>
      <point x="124.02941176470588" y="303.05882352941177"/>
      <point x="162.85294117647058" y="439.2352941176471"/>
    </contour>
  </outline>
</glyph>
<glyph name="one" format="2">
  <advance width="378.20588235294116"/>
  <unicode hex="0031"/>
  <note>
one
</note>
  <outline>
    <contour>
      <point x="286.79411764705884" y="493.7352941176471" type="line"/>
      <point x="234.97058823529412" y="493.7352941176471" type="line"/>
      <point x="72.76470588235294" y="416.4117647058824" type="line"/>
      <point x="79.6470588235294" y="366.9117647058824" type="line"/>
      <point x="189.05882352941177" y="397.61764705882354" type="line"/>
      <point x="145.38235294117646" y="71.70588235294117" type="line"/>
      <point x="35.55882352941177" y="71.70588235294117" type="line"/>
      <point x="26.823529411764707" y="0.0" type="line"/>
      <point x="326.7647058823529" y="0.0" type="line"/>
      <point x="336.3529411764706" y="71.70588235294117" type="line"/>
      <point x="230.52941176470588" y="71.70588235294117" type="line"/>
    </contour>
  </outline>
</glyph>
<glyph name="two" format="2">
  <advance width="438.8529411764706"/>
  <unicode hex="0032"/>
  <note>
two
</note>
  <guideline x="429.6764705882353" y="467.6470588235294" angle="0.0"/>
  <guideline x="358.88235294117646" y="454.2647058823529" angle="0.0"/>
  <outline>
    <contour>
      <point x="273.9117647058824" y="509.44117647058823" type="curve" smooth="yes"/>
      <point x="206.58823529411765" y="509.44117647058823"/>
      <point x="126.26470588235294" y="482.44117647058823"/>
      <point x="64.08823529411765" y="434.44117647058823" type="curve"/>
      <point x="103.70588235294117" y="377.1764705882353" type="line"/>
      <point x="142.7058823529412" y="415.44117647058823"/>
      <point x="205.0" y="441.02941176470586"/>
      <point x="252.55882352941177" y="441.02941176470586" type="curve" smooth="yes"/>
      <point x="291.0882352941176" y="441.02941176470586"/>
      <point x="319.7647058823529" y="423.7647058823529"/>
      <point x="319.7647058823529" y="383.2352941176471" type="curve" smooth="yes"/>
      <point x="319.7647058823529" y="274.44117647058823"/>
      <point x="161.91176470588235" y="159.97058823529412"/>
      <point x="3.264705882352941" y="59.94117647058823" type="curve"/>
      <point x="-5.176470588235294" y="-0.8529411764705882" type="line"/>
      <point x="372.6470588235294" y="-0.8529411764705882" type="line"/>
      <point x="403.38235294117646" y="72.55882352941177" type="line"/>
      <point x="133.58823529411765" y="72.55882352941177" type="line"/>
      <point x="267.7647058823529" y="159.3235294117647"/>
      <point x="410.55882352941177" y="271.29411764705884"/>
      <point x="410.55882352941177" y="399.55882352941177" type="curve" smooth="yes"/>
      <point x="410.55882352941177" y="475.29411764705884"/>
      <point x="350.38235294117646" y="509.44117647058823"/>
    </contour>
  </outline>
</glyph>
<glyph name="three" format="2">
  <advance width="384.4117647058824"/>
  <unicode hex="0033"/>
  <note>
three
</note>
  <outline>
    <contour>
      <point x="243.97058823529412" y="510.29411764705884" type="curve" smooth="yes"/>
      <point x="180.08823529411765" y="510.29411764705884"/>
      <point x="102.61764705882354" y="485.29411764705884"/>
      <point x="40.0" y="438.70588235294116" type="curve"/>
      <point x="77.91176470588235" y="378.02941176470586" type="line"/>
      <point x="114.05882352941177" y="415.02941176470586"/>
      <point x="176.05882352941177" y="442.02941176470586"/>
      <point x="220.1764705882353" y="442.02941176470586" type="curve" smooth="yes"/>
      <point x="254.14705882352942" y="442.02941176470586"/>
      <point x="271.97058823529414" y="420.7647058823529"/>
      <point x="271.97058823529414" y="388.79411764705884" type="curve" smooth="yes"/>
      <point x="271.97058823529414" y="301.4117647058824"/>
      <point x="144.11764705882354" y="221.26470588235293"/>
      <point x="62.0" y="184.85294117647058" type="curve"/>
      <point x="78.88235294117646" y="135.38235294117646" type="line"/>
      <point x="101.58823529411765" y="142.52941176470588"/>
      <point x="123.58823529411765" y="146.52941176470588"/>
      <point x="142.58823529411765" y="146.52941176470588" type="curve" smooth="yes"/>
      <point x="192.14705882352942" y="146.52941176470588"/>
      <point x="228.2941176470588" y="121.82352941176471"/>
      <point x="228.2941176470588" y="66.1470588235294" type="curve" smooth="yes"/>
      <point x="228.2941176470588" y="-83.29411764705883"/>
      <point x="45.6764705882353" y="-141.64705882352942"/>
      <point x="-117.20588235294117" y="-150.08823529411765" type="curve"/>
      <point x="-119.3529411764706" y="-196.2941176470588" type="line"/>
      <point x="80.08823529411765" y="-201.41176470588235"/>
      <point x="330.44117647058823" y="-119.20588235294117"/>
      <point x="330.44117647058823" y="75.44117647058823" type="curve" smooth="yes"/>
      <point x="330.44117647058823" y="158.44117647058823"/>
      <point x="263.6764705882353" y="194.14705882352942"/>
      <point x="198.23529411764707" y="196.7058823529412" type="curve"/>
      <point x="289.0882352941176" y="242.41176470588235"/>
      <point x="368.70588235294116" y="325.4117647058824"/>
      <point x="368.70588235294116" y="410.0" type="curve" smooth="yes"/>
      <point x="368.70588235294116" y="478.4117647058824"/>
      <point x="318.55882352941177" y="510.29411764705884"/>
    </contour>
  </outline>
</glyph>
<glyph name="four" format="2">
  <advance width="479.94117647058823"/>
  <unicode hex="0034"/>
  <note>
four
</note>
  <outline>
    <contour>
      <point x="309.6764705882353" y="498.0" type="line"/>
      <point x="-12.352941176470589" y="42.5" type="line"/>
      <point x="-18.647058823529413" y="-0.14705882352941177" type="line"/>
      <point x="253.35294117647058" y="-0.14705882352941177" type="line"/>
      <point x="227.35294117647058" y="-184.85294117647058" type="line"/>
      <point x="316.52941176470586" y="-184.85294117647058" type="line"/>
      <point x="342.52941176470586" y="-0.14705882352941177" type="line"/>
      <point x="424.94117647058823" y="-0.14705882352941177" type="line"/>
      <point x="455.0" y="73.41176470588235" type="line"/>
      <point x="353.11764705882354" y="73.41176470588235" type="line"/>
      <point x="412.52941176470586" y="498.0" type="line"/>
    </contour>
    <contour>
      <point x="308.3235294117647" y="391.6470588235294" type="line"/>
      <point x="263.94117647058823" y="73.41176470588235" type="line"/>
      <point x="88.5" y="73.41176470588235" type="line"/>
    </contour>
  </outline>
</glyph>
<glyph name="five" format="2">
  <advance width="370.61764705882354"/>
  <unicode hex="0035"/>
  <note>
five
</note>
  <outline>
    <contour>
      <point x="165.0" y="497.1470588235294" type="line"/>
      <point x="37.11764705882353" y="270.3529411764706" type="line"/>
      <point x="127.82352941176471" y="236.38235294117646"/>
      <point x="193.7058823529412" y="175.0"/>
      <point x="193.7058823529412" y="93.58823529411765" type="curve" smooth="yes"/>
      <point x="193.7058823529412" y="-45.35294117647059"/>
      <point x="88.05882352941177" y="-125.38235294117646"/>
      <point x="-63.029411764705884" y="-162.7941176470588" type="curve"/>
      <point x="-56.73529411764706" y="-208.7058823529412" type="line"/>
      <point x="126.1470588235294" y="-182.44117647058823"/>
      <point x="296.29411764705884" y="-66.41176470588235"/>
      <point x="296.29411764705884" y="106.32352941176471" type="curve" smooth="yes"/>
      <point x="296.29411764705884" y="199.88235294117646"/>
      <point x="231.97058823529412" y="263.0"/>
      <point x="133.08823529411765" y="305.11764705882354" type="curve"/>
      <point x="189.1764705882353" y="406.8529411764706" type="line"/>
      <point x="378.6764705882353" y="406.8529411764706" type="line"/>
      <point x="417.02941176470586" y="497.1470588235294" type="line"/>
    </contour>
  </outline>
</glyph>
<glyph name="six" format="2">
  <advance width="523.1470588235294"/>
  <unicode hex="0036"/>
  <note>
six
</note>
  <outline>
    <contour>
      <point x="515.3823529411765" y="731.7058823529412" type="line"/>
      <point x="270.20588235294116" y="655.4705882352941"/>
      <point x="37.38235294117647" y="429.1764705882353"/>
      <point x="37.38235294117647" y="186.02941176470588" type="curve" smooth="yes"/>
      <point x="37.38235294117647" y="50.44117647058823"/>
      <point x="123.41176470588235" y="-12.852941176470589"/>
      <point x="224.47058823529412" y="-12.852941176470589" type="curve" smooth="yes"/>
      <point x="368.6764705882353" y="-12.852941176470589"/>
      <point x="486.88235294117646" y="108.02941176470588"/>
      <point x="486.88235294117646" y="247.94117647058823" type="curve" smooth="yes"/>
      <point x="486.88235294117646" y="334.52941176470586"/>
      <point x="432.52941176470586" y="407.3529411764706"/>
      <point x="319.55882352941177" y="407.3529411764706" type="curve" smooth="yes"/>
      <point x="269.29411764705884" y="407.3529411764706"/>
      <point x="211.47058823529412" y="389.2352941176471"/>
      <point x="161.1764705882353" y="351.0" type="curve"/>
      <point x="139.2941176470588" y="284.05882352941177" type="line"/>
      <point x="190.11764705882354" y="319.5882352941176"/>
      <point x="241.5" y="336.8529411764706"/>
      <point x="284.1764705882353" y="336.8529411764706" type="curve" smooth="yes"/>
      <point x="352.88235294117646" y="336.8529411764706"/>
      <point x="382.44117647058823" y="285.5882352941176"/>
      <point x="382.44117647058823" y="227.47058823529412" type="curve" smooth="yes"/>
      <point x="382.44117647058823" y="147.2058823529412"/>
      <point x="328.7352941176471" y="53.088235294117645"/>
      <point x="241.3235294117647" y="53.088235294117645" type="curve" smooth="yes"/>
      <point x="176.38235294117646" y="53.088235294117645"/>
      <point x="139.38235294117646" y="109.8529411764706"/>
      <point x="139.38235294117646" y="193.41176470588235" type="curve" smooth="yes"/>
      <point x="139.38235294117646" y="395.8235294117647"/>
      <point x="312.52941176470586" y="595.2941176470588"/>
      <point x="530.9705882352941" y="682.0588235294117" type="curve"/>
    </contour>
  </outline>
</glyph>
<glyph name="seven" format="2">
  <advance width="412.61764705882354"/>
  <unicode hex="0037"/>
  <note>
seven
</note>
  <outline>
    <contour>
      <point x="62.61764705882353" y="497.0" type="line"/>
      <point x="29.264705882352942" y="416.70588235294116" type="line"/>
      <point x="339.0" y="416.70588235294116" type="line"/>
      <point x="-45.44117647058823" y="-185.58823529411765" type="line"/>
      <point x="62.294117647058826" y="-185.58823529411765" type="line"/>
      <point x="430.88235294117646" y="451.9117647058824" type="line"/>
      <point x="437.3235294117647" y="497.0" type="line"/>
    </contour>
  </outline>
</glyph>
<glyph name="eight" format="2">
  <advance width="473.79411764705884"/>
  <unicode hex="0038"/>
  <note>
eight
</note>
  <outline>
    <contour>
      <point x="316.5882352941176" y="729.4411764705883" type="curve" smooth="yes"/>
      <point x="216.41176470588235" y="729.4411764705883"/>
      <point x="102.23529411764706" y="651.2058823529412"/>
      <point x="102.23529411764706" y="520.0" type="curve" smooth="yes"/>
      <point x="102.23529411764706" y="439.1470588235294"/>
      <point x="150.52941176470588" y="390.11764705882354"/>
      <point x="203.6764705882353" y="345.97058823529414" type="curve" smooth="yes"/>
      <point x="264.52941176470586" y="296.11764705882354"/>
      <point x="331.2352941176471" y="258.4117647058824"/>
      <point x="331.2352941176471" y="188.44117647058823" type="curve" smooth="yes"/>
      <point x="331.2352941176471" y="116.20588235294117"/>
      <point x="274.70588235294116" y="51.794117647058826"/>
      <point x="203.44117647058823" y="51.794117647058826" type="curve" smooth="yes"/>
      <point x="154.1764705882353" y="51.794117647058826"/>
      <point x="112.3529411764706" y="84.05882352941177"/>
      <point x="112.3529411764706" y="147.88235294117646" type="curve" smooth="yes"/>
      <point x="112.3529411764706" y="227.2058823529412"/>
      <point x="159.44117647058823" y="290.3529411764706"/>
      <point x="240.7058823529412" y="337.88235294117646" type="curve"/>
      <point x="203.2058823529412" y="379.8235294117647" type="line"/>
      <point x="100.26470588235294" y="319.6764705882353"/>
      <point x="25.235294117647058" y="243.91176470588235"/>
      <point x="25.235294117647058" y="137.47058823529412" type="curve" smooth="yes"/>
      <point x="25.235294117647058" y="39.44117647058823"/>
      <point x="104.8529411764706" y="-11.147058823529411"/>
      <point x="197.1764705882353" y="-11.147058823529411" type="curve" smooth="yes"/>
      <point x="324.79411764705884" y="-11.147058823529411"/>
      <point x="434.52941176470586" y="80.26470588235294"/>
      <point x="434.52941176470586" y="212.02941176470588" type="curve" smooth="yes"/>
      <point x="434.52941176470586" y="311.9117647058824"/>
      <point x="360.94117647058823" y="363.05882352941177"/>
      <point x="297.6470588235294" y="410.94117647058823" type="curve" smooth="yes"/>
      <point x="247.23529411764707" y="448.79411764705884"/>
      <point x="201.6764705882353" y="481.05882352941177"/>
      <point x="201.6764705882353" y="541.8823529411765" type="curve" smooth="yes"/>
      <point x="201.6764705882353" y="607.2647058823529"/>
      <point x="245.5" y="668.3529411764706"/>
      <point x="308.7352941176471" y="668.3529411764706" type="curve" smooth="yes"/>
      <point x="347.29411764705884" y="668.3529411764706"/>
      <point x="381.38235294117646" y="642.2352941176471"/>
      <point x="381.38235294117646" y="588.8529411764706" type="curve" smooth="yes"/>
      <point x="381.38235294117646" y="530.4411764705883"/>
      <point x="342.11764705882354" y="462.20588235294116"/>
      <point x="270.05882352941177" y="421.2647058823529" type="curve"/>
      <point x="312.6764705882353" y="379.7647058823529" type="line"/>
      <point x="414.38235294117646" y="439.9117647058824"/>
      <point x="464.2352941176471" y="523.8823529411765"/>
      <point x="464.2352941176471" y="599.2941176470588" type="curve" smooth="yes"/>
      <point x="464.2352941176471" y="687.1470588235294"/>
      <point x="394.05882352941177" y="729.4411764705883"/>
    </contour>
  </outline>
</glyph>
<glyph name="nine" format="2">
  <advance width="528.1176470588235"/>
  <unicode hex="0039"/>
  <note>
nine
</note>
  <outline>
    <contour>
      <point x="305.5" y="509.29411764705884" type="curve" smooth="yes"/>
      <point x="161.44117647058823" y="509.29411764705884"/>
      <point x="43.23529411764706" y="388.70588235294116"/>
      <point x="43.23529411764706" y="248.38235294117646" type="curve" smooth="yes"/>
      <point x="43.23529411764706" y="163.08823529411765"/>
      <point x="94.52941176470588" y="89.08823529411765"/>
      <point x="209.55882352941177" y="89.08823529411765" type="curve" smooth="yes"/>
      <point x="259.8235294117647" y="89.08823529411765"/>
      <point x="318.5" y="107.20588235294117"/>
      <point x="367.94117647058823" y="145.44117647058823" type="curve"/>
      <point x="389.6764705882353" y="212.38235294117646" type="line"/>
      <point x="339.0" y="176.85294117647058"/>
      <point x="288.47058823529414" y="159.58823529411765"/>
      <point x="245.7941176470588" y="159.58823529411765" type="curve" smooth="yes"/>
      <point x="177.23529411764707" y="159.58823529411765"/>
      <point x="146.52941176470588" y="210.7058823529412"/>
      <point x="146.52941176470588" y="269.6764705882353" type="curve" smooth="yes"/>
      <point x="146.52941176470588" y="349.94117647058823"/>
      <point x="201.94117647058823" y="443.3529411764706"/>
      <point x="288.6470588235294" y="443.3529411764706" type="curve" smooth="yes"/>
      <point x="353.5882352941176" y="443.3529411764706"/>
      <point x="390.5882352941176" y="386.5882352941176"/>
      <point x="390.5882352941176" y="303.3235294117647" type="curve" smooth="yes"/>
      <point x="390.5882352941176" y="103.61764705882354"/>
      <point x="221.14705882352942" y="-80.5"/>
      <point x="1.8529411764705883" y="-165.61764705882354" type="curve"/>
      <point x="16.58823529411765" y="-215.26470588235293" type="line"/>
      <point x="264.02941176470586" y="-142.26470588235293"/>
      <point x="492.5882352941176" y="65.55882352941177"/>
      <point x="492.5882352941176" y="310.4117647058824" type="curve" smooth="yes"/>
      <point x="492.5882352941176" y="446.0"/>
      <point x="406.55882352941177" y="509.29411764705884"/>
    </contour>
  </outline>
</glyph>
<glyph name="colon" format="2">
  <advance width="247.0"/>
  <unicode hex="003A"/>
  <note>
colon
</note>
  <outline>
    <contour>
      <point x="211.88235294117646" y="373.61764705882354" type="curve" smooth="yes"/>
      <point x="212.76470588235293" y="407.0882352941176"/>
      <point x="187.02941176470588" y="433.55882352941177"/>
      <point x="152.55882352941177" y="433.55882352941177" type="curve" smooth="yes"/>
      <point x="113.11764705882354" y="433.55882352941177"/>
      <point x="75.67647058823529" y="398.55882352941177"/>
      <point x="74.79411764705883" y="358.2647058823529" type="curve" smooth="yes"/>
      <point x="73.91176470588235" y="324.6470588235294"/>
      <point x="99.6470588235294" y="298.1764705882353"/>
      <point x="134.11764705882354" y="298.1764705882353" type="curve" smooth="yes"/>
      <point x="173.55882352941177" y="298.1764705882353"/>
      <point x="211.0" y="333.1764705882353"/>
    </contour>
    <contour>
      <point x="168.47058823529412" y="62.44117647058823" type="curve" smooth="yes"/>
      <point x="169.35294117647058" y="96.05882352941177"/>
      <point x="143.61764705882354" y="122.52941176470588"/>
      <point x="109.1470588235294" y="122.52941176470588" type="curve" smooth="yes"/>
      <point x="69.70588235294117" y="122.52941176470588"/>
      <point x="32.26470588235294" y="87.52941176470588"/>
      <point x="31.38235294117647" y="47.088235294117645" type="curve" smooth="yes"/>
      <point x="30.5" y="13.617647058823529"/>
      <point x="56.23529411764706" y="-12.852941176470589"/>
      <point x="90.70588235294117" y="-12.852941176470589" type="curve" smooth="yes"/>
      <point x="130.14705882352942" y="-12.852941176470589"/>
      <point x="167.58823529411765" y="22.147058823529413"/>
    </contour>
  </outline>
</glyph>
<glyph name="semicolon" format="2">
  <advance width="251.2941176470588"/>
  <unicode hex="003B"/>
  <note>
semicolon
</note>
  <outline>
    <contour>
      <point x="216.3235294117647" y="370.11764705882354" type="curve" smooth="yes"/>
      <point x="216.3235294117647" y="403.70588235294116"/>
      <point x="190.73529411764707" y="428.44117647058823"/>
      <point x="156.14705882352942" y="428.44117647058823" type="curve" smooth="yes"/>
      <point x="115.97058823529412" y="428.44117647058823"/>
      <point x="78.94117647058823" y="392.55882352941177"/>
      <point x="78.94117647058823" y="351.52941176470586" type="curve" smooth="yes"/>
      <point x="78.94117647058823" y="317.79411764705884"/>
      <point x="103.67647058823529" y="292.20588235294116"/>
      <point x="138.41176470588235" y="292.20588235294116" type="curve" smooth="yes"/>
      <point x="178.2941176470588" y="292.20588235294116"/>
      <point x="216.3235294117647" y="328.0882352941176"/>
    </contour>
    <contour>
      <point x="104.8529411764706" y="122.79411764705883" type="curve" smooth="yes"/>
      <point x="68.11764705882354" y="122.79411764705883"/>
      <point x="34.38235294117647" y="98.17647058823529"/>
      <point x="34.38235294117647" y="54.73529411764706" type="curve" smooth="yes"/>
      <point x="34.38235294117647" y="15.705882352941176"/>
      <point x="73.79411764705883" y="1.2941176470588236"/>
      <point x="73.79411764705883" y="-17.705882352941178" type="curve" smooth="yes"/>
      <point x="73.79411764705883" y="-37.44117647058823"/>
      <point x="53.705882352941174" y="-60.94117647058823"/>
      <point x="16.08823529411765" y="-92.1470588235294" type="curve"/>
      <point x="46.529411764705884" y="-126.32352941176471" type="line"/>
      <point x="106.11764705882354" y="-87.02941176470588"/>
      <point x="172.47058823529412" y="-21.558823529411764"/>
      <point x="172.47058823529412" y="51.76470588235294" type="curve" smooth="yes"/>
      <point x="172.47058823529412" y="90.3529411764706"/>
      <point x="148.2941176470588" y="122.79411764705883"/>
    </contour>
  </outline>
</glyph>
<glyph name="less" format="2">
  <advance width="630.0"/>
  <unicode hex="003C"/>
  <note>
less
</note>
  <outline>
    <contour>
      <point x="72.55882352941177" y="280.11764705882354" type="line"/>
      <point x="62.85294117647059" y="210.2058823529412" type="line"/>
      <point x="530.4117647058823" y="-7.735294117647059" type="line"/>
      <point x="540.8529411764706" y="69.17647058823529" type="line"/>
      <point x="166.14705882352942" y="243.88235294117646" type="line"/>
      <point x="590.5588235294117" y="418.1470588235294" type="line"/>
      <point x="601.0" y="496.20588235294116" type="line"/>
    </contour>
  </outline>
</glyph>
<glyph name="equal" format="2">
  <advance width="630.0"/>
  <unicode hex="003D"/>
  <note>
equal
</note>
  <outline>
    <contour>
      <point x="86.0" y="375.5" type="line"/>
      <point x="76.41176470588235" y="304.55882352941177" type="line"/>
      <point x="575.2647058823529" y="304.55882352941177" type="line"/>
      <point x="584.8529411764706" y="375.5" type="line"/>
    </contour>
    <contour>
      <point x="59.85294117647059" y="185.91176470588235" type="line"/>
      <point x="49.411764705882355" y="114.11764705882354" type="line"/>
      <point x="548.2647058823529" y="114.11764705882354" type="line"/>
      <point x="558.7058823529412" y="185.91176470588235" type="line"/>
    </contour>
  </outline>
</glyph>
<glyph name="greater" format="2">
  <advance width="630.0"/>
  <unicode hex="003E"/>
  <note>
greater
</note>
  <outline>
    <contour>
      <point x="42.85294117647059" y="69.17647058823529" type="line"/>
      <point x="32.411764705882355" y="-7.735294117647059" type="line"/>
      <point x="560.8529411764706" y="210.2058823529412" type="line"/>
      <point x="570.5588235294117" y="280.11764705882354" type="line"/>
      <point x="103.0" y="496.20588235294116" type="line"/>
      <point x="92.55882352941177" y="418.1470588235294" type="line"/>
      <point x="467.2647058823529" y="243.88235294117646" type="line"/>
    </contour>
  </outline>
</glyph>
<glyph name="question" format="2">
  <advance width="428.7647058823529"/>
  <unicode hex="003F"/>
  <note>
question
</note>
  <outline>
    <contour>
      <point x="278.61764705882354" y="725.1764705882352" type="curve" smooth="yes"/>
      <point x="236.58823529411765" y="725.1764705882352"/>
      <point x="190.97058823529412" y="713.0294117647059"/>
      <point x="149.61764705882354" y="688.0294117647059" type="curve"/>
      <point x="169.41176470588235" y="617.0588235294117" type="line"/>
      <point x="197.85294117647058" y="637.3235294117648"/>
      <point x="228.7058823529412" y="647.8823529411765"/>
      <point x="258.97058823529414" y="647.8823529411765" type="curve" smooth="yes"/>
      <point x="301.2352941176471" y="647.8823529411765"/>
      <point x="334.20588235294116" y="626.4705882352941"/>
      <point x="334.20588235294116" y="573.1176470588235" type="curve" smooth="yes"/>
      <point x="334.20588235294116" y="515.6176470588235"/>
      <point x="300.1764705882353" y="489.1764705882353"/>
      <point x="251.76470588235293" y="460.7352941176471" type="curve" smooth="yes"/>
      <point x="192.05882352941177" y="426.1470588235294"/>
      <point x="122.79411764705883" y="387.70588235294116"/>
      <point x="122.79411764705883" y="304.88235294117646" type="curve" smooth="yes"/>
      <point x="122.79411764705883" y="259.9117647058824"/>
      <point x="157.58823529411765" y="206.73529411764707"/>
      <point x="239.58823529411765" y="205.11764705882354" type="curve"/>
      <point x="264.20588235294116" y="269.47058823529414" type="line"/>
      <point x="219.05882352941177" y="269.47058823529414"/>
      <point x="206.08823529411765" y="295.05882352941177"/>
      <point x="206.08823529411765" y="313.7352941176471" type="curve" smooth="yes"/>
      <point x="206.08823529411765" y="355.8235294117647"/>
      <point x="248.1764705882353" y="378.6764705882353"/>
      <point x="300.11764705882354" y="406.94117647058823" type="curve" smooth="yes"/>
      <point x="360.1470588235294" y="440.2647058823529"/>
      <point x="430.2352941176471" y="488.4117647058824"/>
      <point x="430.2352941176471" y="589.5882352941177" type="curve" smooth="yes"/>
      <point x="430.2352941176471" y="679.0294117647059"/>
      <point x="360.52941176470586" y="725.1764705882352"/>
    </contour>
    <contour>
      <point x="173.55882352941177" y="122.52941176470588" type="curve" smooth="yes"/>
      <point x="132.52941176470588" y="122.52941176470588"/>
      <point x="95.6470588235294" y="87.5"/>
      <point x="95.6470588235294" y="45.470588235294116" type="curve" smooth="yes"/>
      <point x="95.6470588235294" y="12.735294117647058"/>
      <point x="120.23529411764706" y="-12.852941176470589"/>
      <point x="154.11764705882354" y="-12.852941176470589" type="curve" smooth="yes"/>
      <point x="194.2941176470588" y="-12.852941176470589"/>
      <point x="232.88235294117646" y="23.88235294117647"/>
      <point x="232.88235294117646" y="64.91176470588235" type="curve" smooth="yes"/>
      <point x="232.88235294117646" y="96.94117647058823"/>
      <point x="207.44117647058823" y="122.52941176470588"/>
    </contour>
  </outline>
</glyph>
<glyph name="at" format="2">
  <advance width="1019.3235294117648"/>
  <unicode hex="0040"/>
  <note>
at
</note>
  <outline>
    <contour>
      <point x="552.5882352941177" y="729.1764705882352" type="curve" smooth="yes"/>
      <point x="218.55882352941177" y="729.1764705882352"/>
      <point x="49.26470588235294" y="459.5882352941176"/>
      <point x="49.26470588235294" y="204.0" type="curve" smooth="yes"/>
      <point x="49.26470588235294" y="-24.58823529411765"/>
      <point x="184.85294117647058" y="-241.3235294117647"/>
      <point x="459.5882352941176" y="-241.3235294117647" type="curve" smooth="yes"/>
      <point x="501.1764705882353" y="-241.3235294117647"/>
      <point x="541.4705882352941" y="-235.3235294117647"/>
      <point x="580.9117647058823" y="-225.1764705882353" type="curve"/>
      <point x="564.3235294117648" y="-169.8235294117647" type="line"/>
      <point x="530.0294117647059" y="-178.97058823529412"/>
      <point x="494.88235294117646" y="-183.97058823529412"/>
      <point x="459.5882352941176" y="-183.97058823529412" type="curve" smooth="yes"/>
      <point x="229.47058823529412" y="-183.97058823529412"/>
      <point x="116.91176470588235" y="2.2941176470588234"/>
      <point x="116.91176470588235" y="200.85294117647058" type="curve" smooth="yes"/>
      <point x="116.91176470588235" y="428.2647058823529"/>
      <point x="264.47058823529414" y="671.8235294117648"/>
      <point x="552.5882352941177" y="671.8235294117648" type="curve" smooth="yes"/>
      <point x="748.7058823529412" y="671.8235294117648"/>
      <point x="910.2647058823529" y="547.2647058823529"/>
      <point x="910.2647058823529" y="331.0" type="curve" smooth="yes"/>
      <point x="910.2647058823529" y="194.1764705882353"/>
      <point x="843.5588235294117" y="52.35294117647059"/>
      <point x="734.0294117647059" y="52.35294117647059" type="curve" smooth="yes"/>
      <point x="686.9117647058823" y="52.35294117647059"/>
      <point x="670.6470588235294" y="69.5"/>
      <point x="670.6470588235294" y="96.20588235294117" type="curve" smooth="yes"/>
      <point x="670.6470588235294" y="123.20588235294117"/>
      <point x="677.3529411764706" y="163.55882352941177"/>
      <point x="728.3529411764706" y="495.7352941176471" type="curve"/>
      <point x="681.5588235294117" y="495.7352941176471" type="line"/>
      <point x="658.9705882352941" y="459.44117647058823" type="line"/>
      <point x="624.6764705882352" y="492.7352941176471"/>
      <point x="583.6176470588235" y="503.88235294117646"/>
      <point x="547.3529411764706" y="503.88235294117646" type="curve" smooth="yes"/>
      <point x="377.3529411764706" y="503.88235294117646"/>
      <point x="296.05882352941177" y="342.7352941176471"/>
      <point x="296.05882352941177" y="194.1764705882353" type="curve" smooth="yes"/>
      <point x="296.05882352941177" y="81.88235294117646"/>
      <point x="340.6470588235294" y="-12.852941176470589"/>
      <point x="449.97058823529414" y="-12.852941176470589" type="curve" smooth="yes"/>
      <point x="502.3529411764706" y="-12.852941176470589"/>
      <point x="560.3529411764706" y="17.235294117647058"/>
      <point x="592.5294117647059" y="71.79411764705883" type="curve"/>
      <point x="596.5294117647059" y="71.79411764705883" type="line"/>
      <point x="615.3235294117648" y="5.970588235294118"/>
      <point x="669.0294117647059" y="-6.147058823529412"/>
      <point x="730.5882352941177" y="-6.147058823529412" type="curve" smooth="yes"/>
      <point x="884.4705882352941" y="-6.147058823529412"/>
      <point x="977.9117647058823" y="167.0"/>
      <point x="977.9117647058823" y="331.0" type="curve" smooth="yes"/>
      <point x="977.9117647058823" y="583.5882352941177"/>
      <point x="783.4705882352941" y="729.1764705882352"/>
    </contour>
    <contour>
      <point x="549.9411764705883" y="438.94117647058823" type="curve" smooth="yes"/>
      <point x="578.5" y="438.94117647058823"/>
      <point x="604.3529411764706" y="430.94117647058823"/>
      <point x="632.2058823529412" y="413.94117647058823" type="curve"/>
      <point x="617.9411764705883" y="310.97058823529414" type="line" smooth="yes"/>
      <point x="600.5" y="180.97058823529412"/>
      <point x="554.5588235294117" y="53.794117647058826"/>
      <point x="467.0" y="53.794117647058826" type="curve" smooth="yes"/>
      <point x="408.1764705882353" y="53.794117647058826"/>
      <point x="384.05882352941177" y="118.3529411764706"/>
      <point x="384.05882352941177" y="195.47058823529412" type="curve" smooth="yes"/>
      <point x="384.05882352941177" y="313.55882352941177"/>
      <point x="431.6764705882353" y="438.94117647058823"/>
    </contour>
  </outline>
</glyph>
<glyph name="A" format="2">
  <advance width="602.0588235294117"/>
  <unicode hex="0041"/>
  <note>
A
</note>
  <anchor x="266.0" y="0.0" name="bottom"/>
  <anchor x="482.05882352941177" y="0.0" name="ogonek"/>
  <anchor x="369.0" y="725.1764705882352" name="top"/>
  <outline>
    <contour>
      <point x="415.7647058823529" y="725.1764705882352" type="line"/>
      <point x="325.6764705882353" y="725.1764705882352" type="line"/>
      <point x="-13.205882352941178" y="0.0" type="line"/>
      <point x="74.11764705882354" y="0.0" type="line"/>
      <point x="186.47058823529412" y="243.26470588235293" type="line"/>
      <point x="409.5" y="243.26470588235293" type="line"/>
      <point x="455.3235294117647" y="0.0" type="line"/>
      <point x="558.6470588235294" y="0.0" type="line"/>
    </contour>
    <contour>
      <point x="344.8235294117647" y="595.5294117647059" type="line"/>
      <point x="395.9117647058824" y="314.8235294117647" type="line"/>
      <point x="218.7941176470588" y="314.8235294117647" type="line"/>
    </contour>
  </outline>
</glyph>
<glyph name="B" format="2">
  <advance width="577.9411764705883"/>
  <unicode hex="0042"/>
  <note>
B
</note>
  <outline>
    <contour>
      <point x="549.8529411764706" y="576.2058823529412" type="curve" smooth="yes"/>
      <point x="549.8529411764706" y="692.3529411764706"/>
      <point x="455.9117647058824" y="725.1764705882352"/>
      <point x="354.0882352941176" y="725.1764705882352" type="curve" smooth="yes"/>
      <point x="128.26470588235293" y="725.1764705882352" type="line"/>
      <point x="129.14705882352942" y="660.7647058823529" type="line"/>
      <point x="40.0" y="0.0" type="line"/>
      <point x="236.94117647058823" y="0.0" type="line" smooth="yes"/>
      <point x="391.44117647058823" y="0.0"/>
      <point x="533.8529411764706" y="53.38235294117647"/>
      <point x="533.8529411764706" y="234.11764705882354" type="curve" smooth="yes"/>
      <point x="533.8529411764706" y="322.2647058823529"/>
      <point x="480.0882352941176" y="376.3235294117647"/>
      <point x="400.9117647058824" y="395.5882352941176" type="curve"/>
      <point x="487.38235294117646" y="417.2647058823529"/>
      <point x="549.8529411764706" y="485.3235294117647"/>
    </contour>
    <contour>
      <point x="448.94117647058823" y="568.3823529411765" type="curve" smooth="yes"/>
      <point x="448.94117647058823" y="473.97058823529414"/>
      <point x="385.1764705882353" y="429.79411764705884"/>
      <point x="293.02941176470586" y="429.79411764705884" type="curve" smooth="yes"/>
      <point x="194.3235294117647" y="429.79411764705884" type="line"/>
      <point x="223.58823529411765" y="651.7647058823529" type="line"/>
      <point x="341.47058823529414" y="651.7647058823529" type="line" smooth="yes"/>
      <point x="399.0" y="651.7647058823529"/>
      <point x="448.94117647058823" y="631.7647058823529"/>
    </contour>
    <contour>
      <point x="434.52941176470586" y="240.7058823529412" type="curve" smooth="yes"/>
      <point x="434.52941176470586" y="124.73529411764706"/>
      <point x="358.7647058823529" y="73.41176470588235"/>
      <point x="249.47058823529412" y="73.41176470588235" type="curve" smooth="yes"/>
      <point x="146.61764705882354" y="73.41176470588235" type="line"/>
      <point x="183.02941176470588" y="353.8235294117647" type="line"/>
      <point x="284.3235294117647" y="353.8235294117647" type="line" smooth="yes"/>
      <point x="360.0" y="353.8235294117647"/>
      <point x="434.52941176470586" y="324.38235294117646"/>
    </contour>
  </outline>
</glyph>
<glyph name="C" format="2">
  <advance width="585.2941176470588"/>
  <unicode hex="0043"/>
  <note>
C
</note>
  <anchor x="296.0" y="0.0" name="bottom"/>
  <anchor x="396.0" y="725.1764705882352" name="top"/>
  <outline>
    <contour>
      <point x="315.0882352941176" y="-10.294117647058824" type="curve" smooth="yes"/>
      <point x="396.1470588235294" y="-10.294117647058824"/>
      <point x="476.0882352941176" y="14.0"/>
      <point x="541.2941176470588" y="59.44117647058823" type="curve"/>
      <point x="514.6764705882352" y="116.94117647058823" type="line"/>
      <point x="453.5" y="82.79411764705883"/>
      <point x="390.94117647058823" y="67.5"/>
      <point x="332.4117647058824" y="67.5" type="curve" smooth="yes"/>
      <point x="203.61764705882354" y="67.5"/>
      <point x="144.64705882352942" y="180.2058823529412"/>
      <point x="144.64705882352942" y="308.47058823529414" type="curve" smooth="yes"/>
      <point x="144.64705882352942" y="473.0"/>
      <point x="242.44117647058823" y="662.6470588235294"/>
      <point x="410.79411764705884" y="662.6470588235294" type="curve" smooth="yes"/>
      <point x="465.20588235294116" y="662.6470588235294"/>
      <point x="521.9411764705883" y="642.2058823529412"/>
      <point x="560.6176470588235" y="596.6470588235294" type="curve"/>
      <point x="620.2941176470588" y="659.6470588235294" type="line"/>
      <point x="571.2941176470588" y="715.7647058823529"/>
      <point x="488.5" y="735.7647058823529"/>
      <point x="420.5" y="735.7647058823529" type="curve" smooth="yes"/>
      <point x="176.35294117647058" y="735.7647058823529"/>
      <point x="40.88235294117647" y="505.44117647058823"/>
      <point x="40.88235294117647" y="300.55882352941177" type="curve" smooth="yes"/>
      <point x="40.88235294117647" y="136.55882352941177"/>
      <point x="128.02941176470588" y="-10.294117647058824"/>
    </contour>
  </outline>
</glyph>
<glyph name="D" format="2">
  <advance width="676.7941176470588"/>
  <unicode hex="0044"/>
  <note>
D
</note>
  <anchor x="194.14705882352942" y="361.1764705882353" name="center"/>
  <anchor x="375.55882352941177" y="725.1764705882352" name="top"/>
  <outline>
    <contour>
      <point x="640.1764705882352" y="434.1470588235294" type="curve" smooth="yes"/>
      <point x="640.1764705882352" y="598.3823529411765"/>
      <point x="557.3529411764706" y="725.1764705882352"/>
      <point x="374.9117647058824" y="725.1764705882352" type="curve" smooth="yes"/>
      <point x="128.11764705882354" y="725.1764705882352" type="line"/>
      <point x="129.14705882352942" y="660.7647058823529" type="line"/>
      <point x="40.0" y="0.0" type="line"/>
      <point x="272.5" y="0.0" type="line" smooth="yes"/>
      <point x="520.7647058823529" y="0.0"/>
      <point x="640.1764705882352" y="216.38235294117646"/>
    </contour>
    <contour>
      <point x="539.1176470588235" y="428.97058823529414" type="curve" smooth="yes"/>
      <point x="539.1176470588235" y="277.8529411764706"/>
      <point x="463.29411764705884" y="73.41176470588235"/>
      <point x="278.79411764705884" y="73.41176470588235" type="curve" smooth="yes"/>
      <point x="146.61764705882354" y="73.41176470588235" type="line"/>
      <point x="223.58823529411765" y="651.7647058823529" type="line"/>
      <point x="364.0" y="651.7647058823529" type="line" smooth="yes"/>
      <point x="496.8235294117647" y="651.7647058823529"/>
      <point x="539.1176470588235" y="542.5294117647059"/>
    </contour>
  </outline>
</glyph>
<glyph name="E" format="2">
  <advance width="501.02941176470586"/>
  <unicode hex="0045"/>
  <note>
E
</note>
  <anchor x="260.52941176470586" y="0.0" name="bottom"/>
  <anchor x="378.8235294117647" y="0.0" name="ogonek"/>
  <anchor x="338.9117647058824" y="725.1764705882352" name="top"/>
  <outline>
    <contour>
      <point x="127.26470588235294" y="725.1764705882352" type="line"/>
      <point x="128.2941176470588" y="660.7647058823529" type="line"/>
      <point x="40.0" y="0.0" type="line"/>
      <point x="445.0882352941176" y="0.0" type="line"/>
      <point x="454.6764705882353" y="73.41176470588235" type="line"/>
      <point x="144.76470588235293" y="73.41176470588235" type="line"/>
      <point x="179.88235294117646" y="335.52941176470586" type="line"/>
      <point x="419.2352941176471" y="335.52941176470586" type="line"/>
      <point x="429.6764705882353" y="408.0882352941176" type="line"/>
      <point x="190.3235294117647" y="408.0882352941176" type="line"/>
      <point x="221.73529411764707" y="651.7647058823529" type="line"/>
      <point x="531.7941176470588" y="651.7647058823529" type="line"/>
      <point x="542.2352941176471" y="725.1764705882352" type="line"/>
    </contour>
  </outline>
</glyph>
<glyph name="F" format="2">
  <advance width="467.8529411764706"/>
  <unicode hex="0046"/>
  <note>
F
</note>
  <outline>
    <contour>
      <point x="126.55882352941177" y="725.1764705882352" type="line"/>
      <point x="127.44117647058823" y="660.7647058823529" type="line"/>
      <point x="39.14705882352941" y="0.0" type="line"/>
      <point x="134.3235294117647" y="0.0" type="line"/>
      <point x="180.02941176470588" y="336.38235294117646" type="line"/>
      <point x="400.0882352941176" y="336.38235294117646" type="line"/>
      <point x="410.52941176470586" y="408.94117647058823" type="line"/>
      <point x="190.47058823529412" y="408.94117647058823" type="line"/>
      <point x="221.88235294117646" y="651.7647058823529" type="line"/>
      <point x="500.94117647058823" y="651.7647058823529" type="line"/>
      <point x="510.52941176470586" y="725.1764705882352" type="line"/>
    </contour>
  </outline>
</glyph>
<glyph name="G" format="2">
  <advance width="667.1470588235294"/>
  <unicode hex="0047"/>
  <note>
G
</note>
  <anchor x="297.7352941176471" y="0.0" name="bottom"/>
  <anchor x="401.7352941176471" y="725.1764705882352" name="top"/>
  <outline>
    <contour>
      <point x="422.0" y="735.4705882352941" type="curve" smooth="yes"/>
      <point x="170.38235294117646" y="735.4705882352941"/>
      <point x="40.88235294117647" y="505.6764705882353"/>
      <point x="40.88235294117647" y="281.44117647058823" type="curve" smooth="yes"/>
      <point x="40.88235294117647" y="120.97058823529412"/>
      <point x="118.91176470588235" y="-10.147058823529411"/>
      <point x="296.3529411764706" y="-10.147058823529411" type="curve" smooth="yes"/>
      <point x="378.6764705882353" y="-10.147058823529411"/>
      <point x="446.5" y="17.852941176470587"/>
      <point x="507.6764705882353" y="75.0" type="curve"/>
      <point x="526.9705882352941" y="-0.14705882352941177" type="line"/>
      <point x="577.9117647058823" y="-0.14705882352941177" type="line"/>
      <point x="588.9117647058823" y="127.44117647058823"/>
      <point x="602.7941176470588" y="248.05882352941177"/>
      <point x="621.7941176470588" y="375.5" type="curve"/>
      <point x="359.29411764705884" y="375.5" type="line"/>
      <point x="350.0" y="304.55882352941177" type="line"/>
      <point x="515.3235294117648" y="304.55882352941177" type="line"/>
      <point x="507.3235294117647" y="240.0" type="line" smooth="yes"/>
      <point x="494.61764705882354" y="144.5"/>
      <point x="421.0882352941176" y="67.94117647058823"/>
      <point x="321.97058823529414" y="67.94117647058823" type="curve" smooth="yes"/>
      <point x="187.88235294117646" y="67.94117647058823"/>
      <point x="142.64705882352942" y="176.2941176470588"/>
      <point x="142.64705882352942" y="294.3529411764706" type="curve" smooth="yes"/>
      <point x="142.64705882352942" y="459.44117647058823"/>
      <point x="221.1764705882353" y="662.7941176470588"/>
      <point x="412.4117647058824" y="662.7941176470588" type="curve" smooth="yes"/>
      <point x="486.0" y="662.7941176470588"/>
      <point x="530.7941176470588" y="642.2352941176471"/>
      <point x="581.8235294117648" y="590.6764705882352" type="curve"/>
      <point x="642.2058823529412" y="653.0588235294117" type="line"/>
      <point x="592.2058823529412" y="713.6176470588235"/>
      <point x="490.7352941176471" y="735.4705882352941"/>
    </contour>
  </outline>
</glyph>
<glyph name="H" format="2">
  <advance width="672.2941176470588"/>
  <unicode hex="0048"/>
  <note>
H
</note>
  <anchor x="289.05882352941177" y="0.0" name="bottom"/>
  <anchor x="374.05882352941177" y="558.0" name="center"/>
  <anchor x="393.05882352941177" y="725.1764705882352" name="top"/>
  <outline>
    <contour>
      <point x="462.8529411764706" y="0.0" type="line"/>
      <point x="559.0294117647059" y="0.0" type="line"/>
      <point x="657.0294117647059" y="725.1764705882352" type="line"/>
      <point x="560.8529411764706" y="725.1764705882352" type="line"/>
      <point x="519.0" y="412.3529411764706" type="line"/>
      <point x="191.1764705882353" y="412.3529411764706" type="line"/>
      <point x="233.02941176470588" y="725.1764705882352" type="line"/>
      <point x="127.41176470588235" y="725.1764705882352" type="line"/>
      <point x="128.2941176470588" y="660.7647058823529" type="line"/>
      <point x="39.14705882352941" y="0.0" type="line"/>
      <point x="135.1764705882353" y="0.0" type="line"/>
      <point x="180.73529411764707" y="339.79411764705884" type="line"/>
      <point x="508.55882352941177" y="339.79411764705884" type="line"/>
    </contour>
  </outline>
</glyph>
<glyph name="I" format="2">
  <advance width="250.85294117647058"/>
  <unicode hex="0049"/>
  <note>
I
</note>
  <anchor x="89.23529411764706" y="0.0" name="bottom"/>
  <anchor x="78.88235294117646" y="0.0" name="ogonek"/>
  <anchor x="183.23529411764707" y="725.1764705882352" name="top"/>
  <outline>
    <contour>
      <point x="129.97058823529412" y="725.1764705882352" type="line"/>
      <point x="130.85294117647058" y="660.7647058823529" type="line"/>
      <point x="41.705882352941174" y="0.0" type="line"/>
      <point x="137.73529411764707" y="0.0" type="line"/>
      <point x="235.58823529411765" y="725.1764705882352" type="line"/>
    </contour>
  </outline>
</glyph>
<glyph name="J" format="2">
  <advance width="253.14705882352942"/>
  <unicode hex="004A"/>
  <note>
J
</note>
  <anchor x="188.2058823529412" y="725.1764705882352" name="top"/>
  <outline>
    <contour>
      <point x="133.11764705882354" y="725.1764705882352" type="line"/>
      <point x="134.0" y="659.9117647058823" type="line"/>
      <point x="50.85294117647059" y="46.14705882352941" type="line" smooth="yes"/>
      <point x="39.85294117647059" y="-37.411764705882355"/>
      <point x="15.588235294117647" y="-149.7058823529412"/>
      <point x="-90.23529411764706" y="-164.26470588235293" type="curve"/>
      <point x="-83.26470588235294" y="-220.08823529411765" type="line"/>
      <point x="85.73529411764706" y="-205.97058823529412"/>
      <point x="126.76470588235294" y="-87.91176470588235"/>
      <point x="146.2058823529412" y="55.35294117647059" type="curve" smooth="yes"/>
      <point x="238.73529411764707" y="725.1764705882352" type="line"/>
    </contour>
  </outline>
</glyph>
<glyph name="K" format="2">
  <advance width="558.0"/>
  <unicode hex="004B"/>
  <note>
K
</note>
  <anchor x="259.20588235294116" y="0.0" name="bottom"/>
  <outline>
    <contour>
      <point x="233.02941176470588" y="725.1764705882352" type="line"/>
      <point x="127.41176470588235" y="725.1764705882352" type="line"/>
      <point x="128.2941176470588" y="660.7647058823529" type="line"/>
      <point x="39.14705882352941" y="0.0" type="line"/>
      <point x="135.1764705882353" y="0.0" type="line"/>
    </contour>
    <contour>
      <point x="496.3529411764706" y="725.1764705882352" type="line"/>
      <point x="220.3235294117647" y="389.38235294117646" type="line"/>
      <point x="400.97058823529414" y="0.0" type="line"/>
      <point x="510.4117647058824" y="0.0" type="line"/>
      <point x="323.7647058823529" y="402.0882352941176" type="line"/>
      <point x="589.2647058823529" y="725.1764705882352" type="line"/>
    </contour>
  </outline>
</glyph>
<glyph name="L" format="2">
  <advance width="469.0882352941176"/>
  <unicode hex="004C"/>
  <note>
L
</note>
  <anchor x="243.08823529411765" y="0.0" name="bottom"/>
  <anchor x="138.94117647058823" y="356.7647058823529" name="center"/>
  <anchor x="177.38235294117646" y="725.1764705882352" name="top"/>
  <anchor x="191.7941176470588" y="492.29411764705884" name="topright"/>
  <outline>
    <contour>
      <point x="234.88235294117646" y="725.1764705882352" type="line"/>
      <point x="128.41176470588235" y="725.1764705882352" type="line"/>
      <point x="129.14705882352942" y="660.7647058823529" type="line"/>
      <point x="40.0" y="0.0" type="line"/>
      <point x="423.52941176470586" y="0.0" type="line"/>
      <point x="433.97058823529414" y="73.41176470588235" type="line"/>
      <point x="147.47058823529412" y="73.41176470588235" type="line"/>
    </contour>
  </outline>
</glyph>
<glyph name="M" format="2">
  <advance width="795.0294117647059"/>
  <unicode hex="004D"/>
  <note>
M
</note>
  <outline>
    <contour>
      <point x="260.55882352941177" y="725.1764705882352" type="line"/>
      <point x="126.55882352941177" y="725.1764705882352" type="line"/>
      <point x="127.29411764705883" y="661.6176470588235" type="line"/>
      <point x="39.14705882352941" y="0.0" type="line"/>
      <point x="117.44117647058823" y="0.0" type="line"/>
      <point x="185.2941176470588" y="498.55882352941177" type="line" smooth="yes"/>
      <point x="189.14705882352942" y="527.6764705882352"/>
      <point x="192.55882352941177" y="557.7941176470588"/>
      <point x="196.11764705882354" y="595.2941176470588" type="curve"/>
      <point x="202.52941176470588" y="556.9117647058823"/>
      <point x="208.97058823529412" y="525.4705882352941"/>
      <point x="215.23529411764707" y="498.55882352941177" type="curve" smooth="yes"/>
      <point x="323.38235294117646" y="-1.8529411764705883" type="line"/>
      <point x="381.52941176470586" y="-1.8529411764705883" type="line"/>
      <point x="623.5" y="500.2647058823529" type="line" smooth="yes"/>
      <point x="637.2058823529412" y="528.5294117647059"/>
      <point x="651.4705882352941" y="557.6470588235294"/>
      <point x="664.8823529411765" y="594.4411764705883" type="curve"/>
      <point x="660.8823529411765" y="557.7941176470588"/>
      <point x="656.4411764705883" y="528.5294117647059"/>
      <point x="652.5882352941177" y="500.2647058823529" type="curve" smooth="yes"/>
      <point x="585.7352941176471" y="0.0" type="line"/>
      <point x="681.7647058823529" y="0.0" type="line"/>
      <point x="779.7647058823529" y="725.1764705882352" type="line"/>
      <point x="651.6176470588235" y="725.1764705882352" type="line"/>
      <point x="418.3529411764706" y="243.88235294117646" type="line" smooth="yes"/>
      <point x="405.47058823529414" y="217.97058823529412"/>
      <point x="393.61764705882354" y="192.2058823529412"/>
      <point x="380.61764705882354" y="156.73529411764707" type="curve"/>
      <point x="376.9117647058824" y="191.76470588235293"/>
      <point x="372.6470588235294" y="217.26470588235293"/>
      <point x="367.05882352941177" y="243.61764705882354" type="curve" smooth="yes"/>
    </contour>
  </outline>
</glyph>
<glyph name="N" format="2">
  <advance width="675.1764705882352"/>
  <unicode hex="004E"/>
  <note>
N
</note>
  <anchor x="301.0" y="0.0" name="bottom"/>
  <anchor x="395.8235294117647" y="725.1764705882352" name="top"/>
  <outline>
    <contour>
      <point x="248.88235294117646" y="725.1764705882352" type="line"/>
      <point x="128.26470588235293" y="725.1764705882352" type="line"/>
      <point x="129.0" y="660.7647058823529" type="line"/>
      <point x="40.0" y="0.0" type="line"/>
      <point x="119.0" y="0.0" type="line"/>
      <point x="191.11764705882354" y="537.9411764705883" type="line" smooth="yes"/>
      <point x="194.11764705882354" y="559.7941176470588"/>
      <point x="196.52941176470588" y="582.9411764705883"/>
      <point x="199.23529411764707" y="613.4705882352941" type="curve"/>
      <point x="209.23529411764707" y="583.7941176470588"/>
      <point x="219.23529411764707" y="563.3529411764706"/>
      <point x="229.38235294117646" y="542.2058823529412" type="curve" smooth="yes"/>
      <point x="496.55882352941177" y="-5.0" type="line"/>
      <point x="560.9117647058823" y="-5.0" type="line"/>
      <point x="659.0588235294117" y="725.1764705882352" type="line"/>
      <point x="580.4705882352941" y="725.1764705882352" type="line"/>
      <point x="516.6470588235294" y="257.0882352941176" type="line" smooth="yes"/>
      <point x="513.6470588235294" y="234.64705882352942"/>
      <point x="511.2352941176471" y="211.91176470588235"/>
      <point x="508.38235294117646" y="180.94117647058823" type="curve"/>
      <point x="497.2352941176471" y="213.05882352941177"/>
      <point x="486.38235294117646" y="236.35294117647058"/>
      <point x="475.97058823529414" y="258.02941176470586" type="curve" smooth="yes"/>
    </contour>
  </outline>
</glyph>
<glyph name="O" format="2">
  <advance width="707.8529411764706"/>
  <unicode hex="004F"/>
  <note>
O
</note>
  <anchor x="322.11764705882354" y="0.0" name="bottom"/>
  <anchor x="359.11764705882354" y="363.0" name="center"/>
  <anchor x="366.20588235294116" y="0.0" name="ogonek"/>
  <anchor x="410.11764705882354" y="725.1764705882352" name="top"/>
  <anchor x="442.11764705882354" y="725.1764705882352" name="topright"/>
  <outline>
    <contour>
      <point x="303.4117647058824" y="-10.147058823529411" type="curve" smooth="yes"/>
      <point x="546.4411764705883" y="-10.147058823529411"/>
      <point x="671.2352941176471" y="214.97058823529412"/>
      <point x="671.2352941176471" y="438.1470588235294" type="curve" smooth="yes"/>
      <point x="671.2352941176471" y="605.7941176470588"/>
      <point x="590.0" y="735.3235294117648"/>
      <point x="406.11764705882354" y="735.3235294117648" type="curve" smooth="yes"/>
      <point x="163.38235294117646" y="735.3235294117648"/>
      <point x="40.88235294117647" y="505.0882352941176"/>
      <point x="40.88235294117647" y="289.88235294117646" type="curve" smooth="yes"/>
      <point x="40.88235294117647" y="125.52941176470588"/>
      <point x="121.52941176470588" y="-10.147058823529411"/>
    </contour>
    <contour>
      <point x="316.8529411764706" y="62.6764705882353" type="curve" smooth="yes"/>
      <point x="183.47058823529412" y="62.6764705882353"/>
      <point x="142.5" y="176.7941176470588"/>
      <point x="142.5" y="292.02941176470586" type="curve" smooth="yes"/>
      <point x="142.5" y="447.52941176470586"/>
      <point x="212.58823529411765" y="662.5"/>
      <point x="396.8235294117647" y="662.5" type="curve" smooth="yes"/>
      <point x="529.3529411764706" y="662.5"/>
      <point x="570.3235294117648" y="549.3823529411765"/>
      <point x="570.3235294117648" y="433.1470588235294" type="curve" smooth="yes"/>
      <point x="570.3235294117648" y="277.6470588235294"/>
      <point x="502.0882352941176" y="62.6764705882353"/>
    </contour>
  </outline>
</glyph>
<glyph name="P" format="2">
  <advance width="539.0"/>
  <unicode hex="0050"/>
  <note>
P
</note>
  <outline>
    <contour>
      <point x="129.11764705882354" y="725.1764705882352" type="line"/>
      <point x="130.0" y="660.7647058823529" type="line"/>
      <point x="40.85294117647059" y="0.0" type="line"/>
      <point x="137.73529411764707" y="0.0" type="line"/>
      <point x="175.88235294117646" y="287.1764705882353" type="line"/>
      <point x="275.9117647058824" y="287.1764705882353" type="line" smooth="yes"/>
      <point x="433.20588235294116" y="287.1764705882353"/>
      <point x="543.5588235294117" y="385.0882352941176"/>
      <point x="543.5588235294117" y="542.7058823529412" type="curve" smooth="yes"/>
      <point x="543.5588235294117" y="677.1470588235294"/>
      <point x="446.94117647058823" y="725.1764705882352"/>
      <point x="329.6470588235294" y="725.1764705882352" type="curve" smooth="yes"/>
    </contour>
    <contour>
      <point x="225.2941176470588" y="651.7647058823529" type="line"/>
      <point x="321.6470588235294" y="651.7647058823529" type="line" smooth="yes"/>
      <point x="398.8529411764706" y="651.7647058823529"/>
      <point x="442.94117647058823" y="610.0882352941177"/>
      <point x="442.94117647058823" y="532.8823529411765" type="curve" smooth="yes"/>
      <point x="442.94117647058823" y="438.97058823529414"/>
      <point x="384.29411764705884" y="358.5882352941176"/>
      <point x="283.52941176470586" y="358.5882352941176" type="curve" smooth="yes"/>
      <point x="186.47058823529412" y="358.5882352941176" type="line"/>
    </contour>
  </outline>
</glyph>
<glyph name="Q" format="2">
  <advance width="707.8529411764706"/>
  <unicode hex="0051"/>
  <note>
Q
</note>
  <outline>
    <contour>
      <point x="1081.9411764705883" y="-172.7941176470588" type="curve"/>
      <point x="1065.6176470588234" y="-121.97058823529412" type="line"/>
      <point x="1010.7941176470588" y="-137.6764705882353"/>
      <point x="947.4117647058823" y="-152.7058823529412"/>
      <point x="894.1470588235294" y="-152.7058823529412" type="curve" smooth="yes"/>
      <point x="772.4705882352941" y="-152.7058823529412"/>
      <point x="602.8823529411765" y="-67.47058823529412"/>
      <point x="494.02941176470586" y="-7.205882352941176" type="curve" smooth="yes"/>
      <point x="478.3235294117647" y="2.3529411764705883"/>
      <point x="457.6470588235294" y="10.911764705882353"/>
      <point x="440.2352941176471" y="17.61764705882353" type="curve"/>
      <point x="594.9705882352941" y="85.38235294117646"/>
      <point x="671.2352941176471" y="262.47058823529414"/>
      <point x="671.2352941176471" y="437.2647058823529" type="curve" smooth="yes"/>
      <point x="671.2352941176471" y="604.3235294117648"/>
      <point x="590.5882352941177" y="735.4705882352941"/>
      <point x="406.70588235294116" y="735.4705882352941" type="curve" smooth="yes"/>
      <point x="163.6764705882353" y="735.4705882352941"/>
      <point x="40.88235294117647" y="504.3529411764706"/>
      <point x="40.88235294117647" y="289.1470588235294" type="curve" smooth="yes"/>
      <point x="40.88235294117647" y="128.3235294117647"/>
      <point x="111.58823529411765" y="4.264705882352941"/>
      <point x="294.5882352941176" y="-13.970588235294118" type="curve" smooth="yes"/>
      <point x="320.94117647058823" y="-17.147058823529413"/>
      <point x="354.8235294117647" y="-24.0"/>
      <point x="387.70588235294116" y="-38.588235294117645" type="curve" smooth="yes"/>
      <point x="521.8529411764706" y="-98.17647058823529"/>
      <point x="691.0" y="-221.11764705882354"/>
      <point x="850.6764705882352" y="-221.11764705882354" type="curve" smooth="yes"/>
      <point x="937.2941176470588" y="-221.11764705882354"/>
      <point x="999.2058823529412" y="-201.23529411764707"/>
    </contour>
    <contour>
      <point x="317.0" y="62.8235294117647" type="curve" smooth="yes"/>
      <point x="183.91176470588235" y="62.8235294117647"/>
      <point x="142.64705882352942" y="176.7941176470588"/>
      <point x="142.64705882352942" y="291.88235294117646" type="curve" smooth="yes"/>
      <point x="142.64705882352942" y="446.79411764705884"/>
      <point x="213.61764705882354" y="662.5"/>
      <point x="397.11764705882354" y="662.5" type="curve" smooth="yes"/>
      <point x="529.5" y="662.5"/>
      <point x="570.6176470588235" y="548.7941176470588"/>
      <point x="570.6176470588235" y="432.8529411764706" type="curve" smooth="yes"/>
      <point x="570.6176470588235" y="277.5"/>
      <point x="501.6470588235294" y="62.8235294117647"/>
    </contour>
  </outline>
</glyph>
<glyph name="R" format="2">
  <advance width="567.5588235294117"/>
  <unicode hex="0052"/>
  <note>
R
</note>
  <anchor x="257.52941176470586" y="0.0" name="bottom"/>
  <anchor x="320.38235294117646" y="725.1764705882352" name="top"/>
  <outline>
    <contour>
      <point x="136.02941176470588" y="0.0" type="line"/>
      <point x="223.44117647058823" y="651.6176470588235" type="line"/>
      <point x="327.7647058823529" y="651.6176470588235" type="line" smooth="yes"/>
      <point x="401.55882352941177" y="651.6176470588235"/>
      <point x="449.2352941176471" y="615.6470588235294"/>
      <point x="449.2352941176471" y="539.2941176470588" type="curve" smooth="yes"/>
      <point x="449.2352941176471" y="431.5882352941176"/>
      <point x="370.8529411764706" y="373.61764705882354"/>
      <point x="256.55882352941177" y="373.61764705882354" type="curve" smooth="yes"/>
      <point x="232.94117647058823" y="373.61764705882354" type="line"/>
      <point x="425.0" y="0.0" type="line"/>
      <point x="534.1470588235294" y="0.0" type="line"/>
      <point x="369.2647058823529" y="319.0882352941176" type="line"/>
      <point x="481.3529411764706" y="349.97058823529414"/>
      <point x="549.8529411764706" y="435.61764705882354"/>
      <point x="549.8529411764706" y="547.2647058823529" type="curve" smooth="yes"/>
      <point x="549.8529411764706" y="671.7352941176471"/>
      <point x="455.0" y="725.1764705882352"/>
      <point x="346.94117647058823" y="725.1764705882352" type="curve" smooth="yes"/>
      <point x="127.41176470588235" y="725.1764705882352" type="line"/>
      <point x="128.2941176470588" y="660.7647058823529" type="line"/>
      <point x="39.14705882352941" y="0.0" type="line"/>
    </contour>
  </outline>
</glyph>
<glyph name="S" format="2">
  <advance width="505.2352941176471"/>
  <unicode hex="0053"/>
  <note>
S
</note>
  <anchor x="215.7058823529412" y="0.0" name="bottom"/>
  <anchor x="312.70588235294116" y="725.1764705882352" name="top"/>
  <outline>
    <contour>
      <point x="337.2647058823529" y="735.4705882352941" type="curve" smooth="yes"/>
      <point x="209.73529411764707" y="735.4705882352941"/>
      <point x="91.52941176470588" y="668.3235294117648"/>
      <point x="91.52941176470588" y="531.9117647058823" type="curve" smooth="yes"/>
      <point x="91.52941176470588" y="337.94117647058823"/>
      <point x="357.0882352941176" y="357.3235294117647"/>
      <point x="357.0882352941176" y="207.41176470588235" type="curve" smooth="yes"/>
      <point x="357.0882352941176" y="129.2941176470588"/>
      <point x="284.55882352941177" y="62.6764705882353"/>
      <point x="207.02941176470588" y="62.6764705882353" type="curve" smooth="yes"/>
      <point x="140.2058823529412" y="62.6764705882353"/>
      <point x="104.52941176470588" y="83.1470588235294"/>
      <point x="50.029411764705884" y="124.58823529411765" type="curve"/>
      <point x="4.9411764705882355" y="44.73529411764706" type="line"/>
      <point x="66.23529411764706" y="9.411764705882353"/>
      <point x="136.14705882352942" y="-10.294117647058824"/>
      <point x="203.47058823529412" y="-10.294117647058824" type="curve" smooth="yes"/>
      <point x="341.38235294117646" y="-10.294117647058824"/>
      <point x="458.29411764705884" y="80.73529411764706"/>
      <point x="458.29411764705884" y="223.7941176470588" type="curve" smooth="yes"/>
      <point x="458.29411764705884" y="426.3235294117647"/>
      <point x="191.1764705882353" y="414.47058823529414"/>
      <point x="191.1764705882353" y="550.0" type="curve" smooth="yes"/>
      <point x="191.1764705882353" y="622.2352941176471"/>
      <point x="258.52941176470586" y="662.5"/>
      <point x="327.47058823529414" y="662.5" type="curve" smooth="yes"/>
      <point x="375.88235294117646" y="662.5"/>
      <point x="415.5882352941176" y="648.0294117647059"/>
      <point x="455.11764705882354" y="615.0294117647059" type="curve"/>
      <point x="499.61764705882354" y="686.5588235294117" type="line"/>
      <point x="452.94117647058823" y="719.0"/>
      <point x="393.52941176470586" y="735.4705882352941"/>
    </contour>
  </outline>
</glyph>
<glyph name="T" format="2">
  <advance width="515.3235294117648"/>
  <unicode hex="0054"/>
  <note>
T
</note>
  <anchor x="204.14705882352942" y="0.0" name="bottom"/>
  <anchor x="256.1470588235294" y="366.0" name="center"/>
  <anchor x="306.1470588235294" y="725.1764705882352" name="top"/>
  <outline>
    <contour>
      <point x="48.970588235294116" y="725.1764705882352" type="line"/>
      <point x="38.529411764705884" y="651.7647058823529" type="line"/>
      <point x="245.02941176470588" y="651.7647058823529" type="line"/>
      <point x="157.61764705882354" y="0.0" type="line"/>
      <point x="255.23529411764707" y="0.0" type="line"/>
      <point x="342.79411764705884" y="651.7647058823529" type="line"/>
      <point x="549.7352941176471" y="651.7647058823529" type="line"/>
      <point x="559.4705882352941" y="725.1764705882352" type="line"/>
    </contour>
  </outline>
</glyph>
<glyph name="U" format="2">
  <advance width="641.0882352941177"/>
  <unicode hex="0055"/>
  <note>
U
</note>
  <anchor x="271.3235294117647" y="0.0" name="bottom"/>
  <anchor x="335.2647058823529" y="0.0" name="ogonek"/>
  <anchor x="380.1764705882353" y="725.1764705882352" name="top"/>
  <anchor x="479.3235294117647" y="740.3235294117648" name="topright"/>
  <outline>
    <contour>
      <point x="210.11764705882354" y="725.1764705882352" type="line"/>
      <point x="102.91176470588235" y="725.1764705882352" type="line"/>
      <point x="103.94117647058823" y="661.7647058823529" type="line"/>
      <point x="48.38235294117647" y="249.0" type="line" smooth="yes"/>
      <point x="46.23529411764706" y="230.55882352941177"/>
      <point x="44.38235294117647" y="212.26470588235293"/>
      <point x="44.38235294117647" y="195.52941176470588" type="curve" smooth="yes"/>
      <point x="44.38235294117647" y="78.3529411764706"/>
      <point x="105.38235294117646" y="-10.147058823529411"/>
      <point x="268.88235294117646" y="-10.147058823529411" type="curve" smooth="yes"/>
      <point x="461.0882352941176" y="-10.147058823529411"/>
      <point x="542.5294117647059" y="107.97058823529412"/>
      <point x="563.1176470588235" y="260.0882352941176" type="curve" smooth="yes"/>
      <point x="626.6764705882352" y="725.1764705882352" type="line"/>
      <point x="547.8235294117648" y="725.1764705882352" type="line"/>
      <point x="484.38235294117646" y="256.0882352941176" type="line" smooth="yes"/>
      <point x="469.11764705882354" y="141.23529411764707"/>
      <point x="403.2647058823529" y="62.6764705882353"/>
      <point x="283.0882352941176" y="62.6764705882353" type="curve" smooth="yes"/>
      <point x="182.3235294117647" y="62.6764705882353"/>
      <point x="142.26470588235293" y="122.05882352941177"/>
      <point x="142.26470588235293" y="202.35294117647058" type="curve" smooth="yes"/>
      <point x="142.26470588235293" y="215.61764705882354"/>
      <point x="143.26470588235293" y="228.02941176470588"/>
      <point x="145.11764705882354" y="243.0" type="curve" smooth="yes"/>
    </contour>
  </outline>
</glyph>
<glyph name="V" format="2">
  <advance width="524.3235294117648"/>
  <unicode hex="0056"/>
  <note>
V
</note>
  <outline>
    <contour>
      <point x="144.14705882352942" y="725.1764705882352" type="curve"/>
      <point x="42.6764705882353" y="725.1764705882352" type="line"/>
      <point x="183.6764705882353" y="-2.7058823529411766" type="line"/>
      <point x="246.44117647058823" y="-2.7058823529411766" type="line"/>
      <point x="583.5882352941177" y="725.1764705882352" type="line"/>
      <point x="499.6764705882353" y="725.1764705882352" type="line"/>
      <point x="414.29411764705884" y="537.0882352941177"/>
      <point x="321.55882352941177" y="348.0"/>
      <point x="244.38235294117646" y="159.91176470588235" type="curve"/>
      <point x="216.2941176470588" y="348.0"/>
      <point x="177.55882352941177" y="537.0882352941177"/>
    </contour>
  </outline>
</glyph>
<glyph name="W" format="2">
  <advance width="806.7647058823529"/>
  <unicode hex="0057"/>
  <note>
W
</note>
  <anchor x="462.29411764705884" y="725.1764705882352" name="top"/>
  <outline>
    <contour>
      <point x="143.0" y="725.1764705882352" type="curve"/>
      <point x="42.6764705882353" y="725.1764705882352" type="line"/>
      <point x="137.38235294117646" y="-2.8529411764705883" type="line"/>
      <point x="219.05882352941177" y="-2.8529411764705883" type="line"/>
      <point x="298.2352941176471" y="196.88235294117646"/>
      <point x="366.1764705882353" y="361.47058823529414"/>
      <point x="430.4117647058824" y="545.6176470588235" type="curve"/>
      <point x="447.3529411764706" y="361.9117647058824"/>
      <point x="470.5882352941176" y="199.08823529411765"/>
      <point x="496.6470588235294" y="-2.8529411764705883" type="curve"/>
      <point x="578.6176470588235" y="-2.8529411764705883" type="line"/>
      <point x="865.1764705882352" y="725.1764705882352" type="line"/>
      <point x="785.5882352941177" y="725.1764705882352" type="line"/>
      <point x="704.9705882352941" y="519.4117647058823"/>
      <point x="635.5882352941177" y="350.0882352941176"/>
      <point x="568.7941176470588" y="161.52941176470588" type="curve"/>
      <point x="553.8529411764706" y="345.52941176470586"/>
      <point x="529.0294117647059" y="518.8235294117648"/>
      <point x="502.8235294117647" y="725.1764705882352" type="curve"/>
      <point x="425.61764705882354" y="725.1764705882352" type="line"/>
      <point x="345.0" y="520.2941176470588"/>
      <point x="275.0" y="348.61764705882354"/>
      <point x="210.11764705882354" y="161.52941176470588" type="curve"/>
      <point x="192.58823529411765" y="346.2647058823529"/>
      <point x="169.2058823529412" y="518.5294117647059"/>
    </contour>
  </outline>
</glyph>
<glyph name="X" format="2">
  <advance width="548.0882352941177"/>
  <unicode hex="0058"/>
  <note>
X
</note>
  <outline>
    <contour>
      <point x="476.97058823529414" y="725.1764705882352" type="line"/>
      <point x="-35.5" y="0.0" type="line"/>
      <point x="70.41176470588235" y="0.0" type="line"/>
      <point x="583.5882352941177" y="725.1764705882352" type="line"/>
    </contour>
    <contour>
      <point x="190.2941176470588" y="725.1764705882352" type="line"/>
      <point x="81.08823529411765" y="725.1764705882352" type="line"/>
      <point x="396.2352941176471" y="0.0" type="line"/>
      <point x="507.1470588235294" y="0.0" type="line"/>
    </contour>
  </outline>
</glyph>
<glyph name="Y" format="2">
  <advance width="483.7647058823529"/>
  <unicode hex="0059"/>
  <note>
Y
</note>
  <anchor x="198.91176470588235" y="0.0" name="bottom"/>
  <anchor x="299.9117647058824" y="725.1764705882352" name="top"/>
  <outline>
    <contour>
      <point x="150.2941176470588" y="725.1764705882352" type="line"/>
      <point x="40.970588235294116" y="725.1764705882352" type="line"/>
      <point x="196.7941176470588" y="354.7352941176471" type="line"/>
      <point x="149.52941176470588" y="0.0" type="line"/>
      <point x="246.26470588235293" y="0.0" type="line"/>
      <point x="293.6764705882353" y="353.44117647058823" type="line"/>
      <point x="543.8823529411765" y="725.1764705882352" type="line"/>
      <point x="453.11764705882354" y="725.1764705882352" type="line"/>
      <point x="268.47058823529414" y="448.11764705882354" type="line"/>
    </contour>
  </outline>
</glyph>
<glyph name="Z" format="2">
  <advance width="534.0588235294117"/>
  <unicode hex="005A"/>
  <note>
Z
</note>
  <anchor x="323.70588235294116" y="725.1764705882352" name="top"/>
  <outline>
    <contour>
      <point x="99.97058823529412" y="725.1764705882352" type="line"/>
      <point x="90.38235294117646" y="651.7647058823529" type="line"/>
      <point x="422.20588235294116" y="651.7647058823529" type="line"/>
      <point x="-9.323529411764707" y="69.20588235294117" type="line"/>
      <point x="-17.0" y="0.0" type="line"/>
      <point x="457.8235294117647" y="0.0" type="line"/>
      <point x="473.52941176470586" y="73.41176470588235" type="line"/>
      <point x="108.55882352941177" y="73.41176470588235" type="line"/>
      <point x="540.5294117647059" y="657.2941176470588" type="line"/>
      <point x="548.2058823529412" y="725.1764705882352" type="line"/>
    </contour>
  </outline>
</glyph>
<glyph name="bracketleft" format="2">
  <advance width="329.5"/>
  <unicode hex="005B"/>
  <note>
bracketleft
</note>
  <outline>
    <contour>
      <point x="235.02941176470588" y="674.7058823529412" type="line"/>
      <point x="351.20588235294116" y="674.7058823529412" type="line"/>
      <point x="358.3529411764706" y="725.1764705882352" type="line"/>
      <point x="159.02941176470588" y="725.1764705882352" type="line"/>
      <point x="38.76470588235294" y="-130.2941176470588" type="line"/>
      <point x="238.08823529411765" y="-130.2941176470588" type="line"/>
      <point x="246.08823529411765" y="-79.82352941176471" type="line"/>
      <point x="129.91176470588235" y="-79.82352941176471" type="line"/>
    </contour>
  </outline>
</glyph>
<glyph name="backslash" format="2">
  <advance width="359.0"/>
  <unicode hex="005C"/>
  <note>
backslash
</note>
  <outline>
    <contour>
      <point x="1.6176470588235294" y="725.1764705882352" type="line"/>
      <point x="256.11764705882354" y="0.0" type="line"/>
      <point x="324.52941176470586" y="0.0" type="line"/>
      <point x="72.44117647058823" y="725.1764705882352" type="line"/>
    </contour>
  </outline>
</glyph>
<glyph name="bracketright" format="2">
  <advance width="324.6470588235294"/>
  <unicode hex="005D"/>
  <note>
bracketright
</note>
  <outline>
    <contour>
      <point x="-10.294117647058824" y="-128.58823529411765" type="line"/>
      <point x="189.02941176470588" y="-128.58823529411765" type="line"/>
      <point x="309.1470588235294" y="725.1764705882352" type="line"/>
      <point x="109.82352941176471" y="725.1764705882352" type="line"/>
      <point x="101.97058823529412" y="675.5588235294117" type="line"/>
      <point x="218.85294117647058" y="675.5588235294117" type="line"/>
      <point x="113.88235294117646" y="-78.11764705882354" type="line"/>
      <point x="-2.2941176470588234" y="-78.11764705882354" type="line"/>
    </contour>
  </outline>
</glyph>
<glyph name="asciicircum" format="2">
  <advance width="618.0"/>
  <unicode hex="005E"/>
  <note>
asciicircum
</note>
  <outline>
    <contour>
      <point x="331.11764705882354" y="395.29411764705884" type="line"/>
      <point x="450.8235294117647" y="0.0" type="line"/>
      <point x="529.0294117647059" y="0.0" type="line"/>
      <point x="378.52941176470586" y="492.02941176470586" type="line"/>
      <point x="308.61764705882354" y="492.02941176470586" type="line"/>
      <point x="19.823529411764707" y="0.0" type="line"/>
      <point x="98.44117647058823" y="0.0" type="line"/>
    </contour>
  </outline>
</glyph>
<glyph name="underscore" format="2">
  <advance width="466.8529411764706"/>
  <unicode hex="005F"/>
  <note>
underscore
</note>
  <outline>
    <contour>
      <point x="-19.676470588235293" y="-130.2058823529412" type="line"/>
      <point x="474.6764705882353" y="-130.2058823529412" type="line"/>
      <point x="484.2647058823529" y="-69.17647058823529" type="line"/>
      <point x="-10.088235294117647" y="-69.17647058823529" type="line"/>
    </contour>
  </outline>
</glyph>
<glyph name="grave" format="2">
  <advance width="278.02941176470586"/>
  <unicode hex="0060"/>
  <note>
grave
</note>
  <anchor x="243.76470588235293" y="491.02941176470586" name="_top"/>
  <outline>
    <contour>
      <point x="222.1764705882353" y="733.2941176470588" type="line"/>
      <point x="96.79411764705883" y="733.2941176470588" type="line"/>
      <point x="216.11764705882354" y="579.3823529411765" type="line"/>
      <point x="297.79411764705884" y="579.3823529411765" type="line"/>
    </contour>
  </outline>
</glyph>
<glyph name="a" format="2">
  <advance width="509.5882352941176"/>
  <unicode hex="0061"/>
  <note>
a
</note>
  <guideline x="98.58823529411765" y="453.6764705882353" angle="90.0"/>
  <guideline x="45.0" y="453.6764705882353" angle="90.0"/>
  <anchor x="203.47058823529412" y="0.0" name="bottom"/>
  <anchor x="434.0882352941176" y="0.0" name="ogonek"/>
  <anchor x="283.47058823529414" y="491.02941176470586" name="top"/>
  <outline>
    <contour>
      <point x="418.44117647058823" y="495.7352941176471" type="line"/>
      <point x="369.2352941176471" y="417.2352941176471" type="line"/>
      <point x="354.8235294117647" y="310.97058823529414" type="line" smooth="yes"/>
      <point x="337.38235294117646" y="180.97058823529412"/>
      <point x="291.44117647058823" y="53.794117647058826"/>
      <point x="203.88235294117646" y="53.794117647058826" type="curve" smooth="yes"/>
      <point x="145.05882352941177" y="53.794117647058826"/>
      <point x="120.94117647058823" y="118.3529411764706"/>
      <point x="120.94117647058823" y="195.47058823529412" type="curve" smooth="yes"/>
      <point x="120.94117647058823" y="313.55882352941177"/>
      <point x="168.55882352941177" y="438.94117647058823"/>
      <point x="286.8235294117647" y="438.94117647058823" type="curve" smooth="yes"/>
      <point x="327.6764705882353" y="438.94117647058823"/>
      <point x="365.11764705882354" y="422.3529411764706"/>
      <point x="406.8529411764706" y="385.47058823529414" type="curve"/>
      <point x="406.8529411764706" y="448.29411764705884" type="line"/>
      <point x="370.8529411764706" y="489.7352941176471"/>
      <point x="324.3529411764706" y="503.88235294117646"/>
      <point x="284.2352941176471" y="503.88235294117646" type="curve" smooth="yes"/>
      <point x="114.23529411764706" y="503.88235294117646"/>
      <point x="32.94117647058823" y="342.7352941176471"/>
      <point x="32.94117647058823" y="194.1764705882353" type="curve" smooth="yes"/>
      <point x="32.94117647058823" y="81.88235294117646"/>
      <point x="77.52941176470588" y="-12.852941176470589"/>
      <point x="186.85294117647058" y="-12.852941176470589" type="curve" smooth="yes"/>
      <point x="239.23529411764707" y="-12.852941176470589"/>
      <point x="297.2352941176471" y="17.235294117647058"/>
      <point x="329.4117647058824" y="71.79411764705883" type="curve"/>
      <point x="333.4117647058824" y="71.79411764705883" type="line"/>
      <point x="335.44117647058823" y="25.11764705882353"/>
      <point x="366.02941176470586" y="-10.705882352941176"/>
      <point x="412.8529411764706" y="-10.705882352941176" type="curve" smooth="yes"/>
      <point x="439.1764705882353" y="-10.705882352941176"/>
      <point x="469.38235294117646" y="0.4411764705882353"/>
      <point x="492.4117647058824" y="13.470588235294118" type="curve"/>
      <point x="480.52941176470586" y="65.38235294117646" type="line"/>
      <point x="468.38235294117646" y="61.23529411764706"/>
      <point x="452.3529411764706" y="56.794117647058826"/>
      <point x="439.3529411764706" y="56.794117647058826" type="curve" smooth="yes"/>
      <point x="415.0882352941176" y="56.794117647058826"/>
      <point x="407.52941176470586" y="73.23529411764706"/>
      <point x="407.52941176470586" y="96.20588235294117" type="curve" smooth="yes"/>
      <point x="407.52941176470586" y="123.20588235294117"/>
      <point x="414.2352941176471" y="163.55882352941177"/>
      <point x="465.2352941176471" y="495.7352941176471" type="curve"/>
    </contour>
  </outline>
</glyph>
<glyph name="b" format="2">
  <advance width="494.05882352941177"/>
  <unicode hex="0062"/>
  <note>
b
</note>
  <outline>
    <contour>
      <point x="38.23529411764706" y="34.1764705882353" type="line"/>
      <point x="121.97058823529412" y="55.38235294117647" type="line"/>
      <point x="164.38235294117646" y="360.6764705882353" type="line"/>
      <point x="186.5" y="384.6764705882353"/>
      <point x="241.61764705882354" y="430.52941176470586"/>
      <point x="295.0" y="430.52941176470586" type="curve" smooth="yes"/>
      <point x="351.70588235294116" y="430.52941176470586"/>
      <point x="373.11764705882354" y="371.4117647058824"/>
      <point x="373.11764705882354" y="290.44117647058823" type="curve" smooth="yes"/>
      <point x="373.11764705882354" y="177.76470588235293"/>
      <point x="324.0" y="52.088235294117645"/>
      <point x="207.23529411764707" y="52.088235294117645" type="curve" smooth="yes"/>
      <point x="166.38235294117646" y="52.088235294117645"/>
      <point x="126.73529411764706" y="59.26470588235294"/>
      <point x="82.94117647058823" y="93.8529411764706" type="curve"/>
      <point x="38.23529411764706" y="34.1764705882353" type="line"/>
      <point x="88.1470588235294" y="1.5882352941176472"/>
      <point x="153.76470588235293" y="-12.852941176470589"/>
      <point x="209.2058823529412" y="-12.852941176470589" type="curve" smooth="yes"/>
      <point x="367.3235294117647" y="-12.852941176470589"/>
      <point x="461.11764705882354" y="128.23529411764707"/>
      <point x="461.11764705882354" y="299.8529411764706" type="curve" smooth="yes"/>
      <point x="461.11764705882354" y="415.44117647058823"/>
      <point x="419.38235294117646" y="504.1764705882353"/>
      <point x="313.05882352941177" y="504.1764705882353" type="curve" smooth="yes"/>
      <point x="257.2647058823529" y="504.1764705882353"/>
      <point x="201.0" y="465.4117647058824"/>
      <point x="174.97058823529412" y="439.38235294117646" type="curve"/>
      <point x="218.52941176470588" y="764.5882352941177" type="line"/>
      <point x="124.79411764705883" y="764.5882352941177" type="line"/>
      <point x="125.52941176470588" y="707.8823529411765" type="line"/>
    </contour>
  </outline>
</glyph>
<glyph name="c" format="2">
  <advance width="420.29411764705884"/>
  <unicode hex="0063"/>
  <note>
c
</note>
  <anchor x="206.44117647058823" y="0.0" name="bottom"/>
  <anchor x="278.44117647058823" y="491.02941176470586" name="top"/>
  <outline>
    <contour>
      <point x="378.11764705882354" y="389.94117647058823" type="curve"/>
      <point x="430.9117647058824" y="453.47058823529414" type="line"/>
      <point x="384.7352941176471" y="490.1764705882353"/>
      <point x="335.1470588235294" y="504.02941176470586"/>
      <point x="288.70588235294116" y="504.02941176470586" type="curve" smooth="yes"/>
      <point x="122.23529411764706" y="504.02941176470586"/>
      <point x="33.088235294117645" y="350.44117647058823"/>
      <point x="33.088235294117645" y="204.44117647058823" type="curve" smooth="yes"/>
      <point x="33.088235294117645" y="64.82352941176471"/>
      <point x="106.44117647058823" y="-12.852941176470589"/>
      <point x="217.73529411764707" y="-12.852941176470589" type="curve" smooth="yes"/>
      <point x="274.5" y="-12.852941176470589"/>
      <point x="329.47058823529414" y="3.4411764705882355"/>
      <point x="383.47058823529414" y="35.85294117647059" type="curve"/>
      <point x="359.02941176470586" y="88.79411764705883" type="line"/>
      <point x="311.1764705882353" y="67.94117647058823"/>
      <point x="269.47058823529414" y="56.94117647058823"/>
      <point x="234.61764705882354" y="56.94117647058823" type="curve" smooth="yes"/>
      <point x="162.5" y="56.94117647058823"/>
      <point x="121.08823529411765" y="105.20588235294117"/>
      <point x="121.08823529411765" y="214.73529411764707" type="curve" smooth="yes"/>
      <point x="121.08823529411765" y="320.0"/>
      <point x="172.91176470588235" y="433.94117647058823"/>
      <point x="282.2647058823529" y="433.94117647058823" type="curve" smooth="yes"/>
      <point x="315.1470588235294" y="433.94117647058823"/>
      <point x="347.29411764705884" y="419.20588235294116"/>
    </contour>
  </outline>
</glyph>
<glyph name="d" format="2">
  <advance width="511.02941176470586"/>
  <unicode hex="0064"/>
  <note>
d
</note>
  <anchor x="395.20588235294116" y="643.6764705882352" name="center"/>
  <anchor x="337.52941176470586" y="522.4705882352941" name="topright"/>
  <outline>
    <contour>
      <point x="408.52941176470586" y="710.5882352941177" type="line"/>
      <point x="354.8235294117647" y="310.97058823529414" type="line" smooth="yes"/>
      <point x="337.6764705882353" y="180.97058823529412"/>
      <point x="291.44117647058823" y="53.794117647058826"/>
      <point x="203.88235294117646" y="53.794117647058826" type="curve" smooth="yes"/>
      <point x="145.05882352941177" y="53.794117647058826"/>
      <point x="120.94117647058823" y="118.3529411764706"/>
      <point x="120.94117647058823" y="195.47058823529412" type="curve" smooth="yes"/>
      <point x="120.94117647058823" y="313.55882352941177"/>
      <point x="168.55882352941177" y="438.94117647058823"/>
      <point x="286.8235294117647" y="438.94117647058823" type="curve" smooth="yes"/>
      <point x="327.6764705882353" y="438.94117647058823"/>
      <point x="365.11764705882354" y="422.3529411764706"/>
      <point x="406.8529411764706" y="385.47058823529414" type="curve"/>
      <point x="406.8529411764706" y="448.29411764705884" type="line"/>
      <point x="370.8529411764706" y="489.7352941176471"/>
      <point x="324.3529411764706" y="503.88235294117646"/>
      <point x="284.2352941176471" y="503.88235294117646" type="curve" smooth="yes"/>
      <point x="114.23529411764706" y="503.88235294117646"/>
      <point x="32.94117647058823" y="342.7352941176471"/>
      <point x="32.94117647058823" y="194.1764705882353" type="curve" smooth="yes"/>
      <point x="32.94117647058823" y="81.88235294117646"/>
      <point x="77.52941176470588" y="-12.852941176470589"/>
      <point x="186.85294117647058" y="-12.852941176470589" type="curve" smooth="yes"/>
      <point x="239.23529411764707" y="-12.852941176470589"/>
      <point x="297.2352941176471" y="17.235294117647058"/>
      <point x="329.4117647058824" y="71.79411764705883" type="curve"/>
      <point x="333.4117647058824" y="71.79411764705883" type="line"/>
      <point x="335.44117647058823" y="25.11764705882353"/>
      <point x="366.02941176470586" y="-10.705882352941176"/>
      <point x="412.8529411764706" y="-10.705882352941176" type="curve" smooth="yes"/>
      <point x="439.1764705882353" y="-10.705882352941176"/>
      <point x="469.38235294117646" y="0.4411764705882353"/>
      <point x="492.4117647058824" y="13.470588235294118" type="curve"/>
      <point x="480.52941176470586" y="65.38235294117646" type="line"/>
      <point x="468.38235294117646" y="61.23529411764706"/>
      <point x="452.3529411764706" y="56.794117647058826"/>
      <point x="439.3529411764706" y="56.794117647058826" type="curve" smooth="yes"/>
      <point x="415.0882352941176" y="56.794117647058826"/>
      <point x="407.52941176470586" y="73.23529411764706"/>
      <point x="407.52941176470586" y="95.47058823529412" type="curve" smooth="yes"/>
      <point x="407.52941176470586" y="123.20588235294117"/>
      <point x="449.6764705882353" y="406.5"/>
      <point x="500.6764705882353" y="764.7352941176471" type="curve"/>
      <point x="407.79411764705884" y="764.7352941176471" type="line"/>
    </contour>
  </outline>
</glyph>
<glyph name="e" format="2">
  <advance width="455.7647058823529"/>
  <unicode hex="0065"/>
  <note>
e
</note>
  <guideline x="121.79411764705883" y="368.52941176470586" angle="90.0"/>
  <guideline x="33.794117647058826" y="368.52941176470586" angle="90.0"/>
  <guideline x="455.52941176470586" y="59.794117647058826" angle="0.0"/>
  <anchor x="223.7058823529412" y="0.0" name="bottom"/>
  <anchor x="291.0882352941176" y="0.0" name="ogonek"/>
  <anchor x="288.70588235294116" y="491.02941176470586" name="top"/>
  <outline>
    <contour>
      <point x="292.29411764705884" y="504.02941176470586" type="curve" smooth="yes"/>
      <point x="122.8529411764706" y="504.02941176470586"/>
      <point x="33.794117647058826" y="349.1764705882353"/>
      <point x="33.794117647058826" y="206.55882352941177" type="curve" smooth="yes"/>
      <point x="33.794117647058826" y="86.70588235294117"/>
      <point x="91.38235294117646" y="-12.852941176470589"/>
      <point x="234.58823529411765" y="-12.852941176470589" type="curve" smooth="yes"/>
      <point x="302.8529411764706" y="-12.852941176470589"/>
      <point x="370.3235294117647" y="15.617647058823529"/>
      <point x="411.2647058823529" y="44.61764705882353" type="curve"/>
      <point x="383.94117647058823" y="96.41176470588235" type="line"/>
      <point x="334.20588235294116" y="72.52941176470588"/>
      <point x="287.47058823529414" y="59.794117647058826"/>
      <point x="247.88235294117646" y="59.794117647058826" type="curve" smooth="yes"/>
      <point x="172.05882352941177" y="59.794117647058826"/>
      <point x="121.79411764705883" y="107.20588235294117"/>
      <point x="121.79411764705883" y="214.1764705882353" type="curve" smooth="yes"/>
      <point x="121.79411764705883" y="320.1470588235294"/>
      <point x="177.05882352941177" y="438.79411764705884"/>
      <point x="282.44117647058823" y="438.79411764705884" type="curve" smooth="yes"/>
      <point x="314.8529411764706" y="438.79411764705884"/>
      <point x="341.79411764705884" y="421.94117647058823"/>
      <point x="341.79411764705884" y="389.55882352941177" type="curve" smooth="yes"/>
      <point x="341.79411764705884" y="310.70588235294116"/>
      <point x="222.23529411764707" y="253.11764705882354"/>
      <point x="109.6470588235294" y="263.3529411764706" type="curve"/>
      <point x="109.6470588235294" y="200.8235294117647" type="line"/>
      <point x="303.8529411764706" y="195.6764705882353"/>
      <point x="431.52941176470586" y="277.7647058823529"/>
      <point x="431.52941176470586" y="395.0882352941176" type="curve" smooth="yes"/>
      <point x="431.52941176470586" y="472.70588235294116"/>
      <point x="363.79411764705884" y="504.02941176470586"/>
    </contour>
  </outline>
</glyph>
<glyph name="f" format="2">
  <advance width="273.4117647058824"/>
  <unicode hex="0066"/>
  <note>
f
</note>
  <outline>
    <contour>
      <point x="-94.61764705882354" y="-161.7941176470588" type="curve"/>
      <point x="-108.91176470588235" y="-221.11764705882354" type="line"/>
      <point x="14.323529411764707" y="-254.88235294117646"/>
      <point x="106.52941176470588" y="-198.02941176470588"/>
      <point x="125.97058823529412" y="-58.94117647058823" type="curve" smooth="yes"/>
      <point x="192.23529411764707" y="425.0882352941176" type="line"/>
      <point x="305.11764705882354" y="425.0882352941176" type="line"/>
      <point x="313.55882352941177" y="491.02941176470586" type="line"/>
      <point x="200.6764705882353" y="491.02941176470586" type="line"/>
      <point x="212.38235294117646" y="589.1764705882352"/>
      <point x="233.11764705882354" y="705.0882352941177"/>
      <point x="343.1470588235294" y="705.0882352941177" type="curve" smooth="yes"/>
      <point x="373.3529411764706" y="705.0882352941177"/>
      <point x="399.05882352941177" y="692.2352941176471"/>
      <point x="421.52941176470586" y="669.3529411764706" type="curve"/>
      <point x="462.0" y="731.2941176470588" type="line"/>
      <point x="429.11764705882354" y="753.8823529411765"/>
      <point x="391.29411764705884" y="770.8823529411765"/>
      <point x="338.47058823529414" y="770.8823529411765" type="curve" smooth="yes"/>
      <point x="193.52941176470588" y="770.8823529411765"/>
      <point x="151.14705882352942" y="659.1470588235294"/>
      <point x="119.55882352941177" y="533.9117647058823" type="curve" smooth="yes"/>
      <point x="107.97058823529412" y="489.3235294117647"/>
      <point x="68.82352941176471" y="491.02941176470586"/>
      <point x="43.35294117647059" y="491.02941176470586" type="curve"/>
      <point x="35.05882352941177" y="425.0882352941176" type="line"/>
      <point x="107.23529411764706" y="425.0882352941176" type="line"/>
      <point x="42.8235294117647" y="-49.5" type="line" smooth="yes"/>
      <point x="31.676470588235293" y="-135.5"/>
      <point x="-9.147058823529411" y="-180.8235294117647"/>
    </contour>
  </outline>
</glyph>
<glyph name="g" format="2">
  <advance width="486.7352941176471"/>
  <unicode hex="0067"/>
  <note>
g
</note>
  <anchor x="286.8529411764706" y="491.02941176470586" name="top"/>
  <outline>
    <contour>
      <point x="418.44117647058823" y="495.7352941176471" type="line"/>
      <point x="369.2352941176471" y="417.2352941176471" type="line"/>
      <point x="354.8235294117647" y="310.97058823529414" type="line" smooth="yes"/>
      <point x="337.38235294117646" y="180.97058823529412"/>
      <point x="291.44117647058823" y="53.794117647058826"/>
      <point x="203.88235294117646" y="53.794117647058826" type="curve" smooth="yes"/>
      <point x="145.05882352941177" y="53.794117647058826"/>
      <point x="120.94117647058823" y="118.3529411764706"/>
      <point x="120.94117647058823" y="195.47058823529412" type="curve" smooth="yes"/>
      <point x="120.94117647058823" y="313.55882352941177"/>
      <point x="168.55882352941177" y="438.94117647058823"/>
      <point x="286.8235294117647" y="438.94117647058823" type="curve" smooth="yes"/>
      <point x="327.6764705882353" y="438.94117647058823"/>
      <point x="365.11764705882354" y="422.3529411764706"/>
      <point x="406.8529411764706" y="385.47058823529414" type="curve"/>
      <point x="406.8529411764706" y="448.29411764705884" type="line"/>
      <point x="370.8529411764706" y="489.7352941176471"/>
      <point x="324.3529411764706" y="503.88235294117646"/>
      <point x="284.2352941176471" y="503.88235294117646" type="curve" smooth="yes"/>
      <point x="114.23529411764706" y="503.88235294117646"/>
      <point x="32.94117647058823" y="342.7352941176471"/>
      <point x="32.94117647058823" y="194.1764705882353" type="curve" smooth="yes"/>
      <point x="32.94117647058823" y="81.88235294117646"/>
      <point x="77.52941176470588" y="-12.852941176470589"/>
      <point x="186.85294117647058" y="-12.852941176470589" type="curve" smooth="yes"/>
      <point x="239.23529411764707" y="-12.852941176470589"/>
      <point x="288.05882352941177" y="15.941176470588236"/>
      <point x="312.0882352941176" y="49.205882352941174" type="curve"/>
      <point x="316.0882352941176" y="49.205882352941174" type="line"/>
      <point x="307.38235294117646" y="-7.147058823529412" type="line" smooth="yes"/>
      <point x="294.38235294117646" y="-93.82352941176471"/>
      <point x="257.29411764705884" y="-161.3235294117647"/>
      <point x="150.2058823529412" y="-161.3235294117647" type="curve" smooth="yes"/>
      <point x="117.08823529411765" y="-161.3235294117647"/>
      <point x="75.11764705882354" y="-139.55882352941177"/>
      <point x="48.14705882352941" y="-110.29411764705883" type="curve"/>
      <point x="4.205882352941176" y="-183.38235294117646" type="line"/>
      <point x="21.11764705882353" y="-196.58823529411765"/>
      <point x="82.26470588235294" y="-230.0"/>
      <point x="157.88235294117646" y="-230.0" type="curve" smooth="yes"/>
      <point x="336.79411764705884" y="-230.0"/>
      <point x="379.52941176470586" y="-95.23529411764706"/>
      <point x="396.6764705882353" y="23.794117647058822" type="curve" smooth="yes"/>
      <point x="465.2352941176471" y="495.7352941176471" type="line"/>
    </contour>
  </outline>
</glyph>
<glyph name="h" format="2">
  <advance width="491.8529411764706"/>
  <unicode hex="0068"/>
  <note>
h
</note>
  <anchor x="214.47058823529412" y="0.0" name="bottom"/>
  <anchor x="210.0" y="607.0" name="center"/>
  <anchor x="172.58823529411765" y="725.1764705882352" name="top"/>
  <outline>
    <contour>
      <point x="221.8235294117647" y="764.7352941176471" type="line"/>
      <point x="128.23529411764707" y="764.7352941176471" type="line"/>
      <point x="128.8235294117647" y="708.1764705882352" type="line"/>
      <point x="33.8235294117647" y="0.0" type="line"/>
      <point x="118.82352941176471" y="0.0" type="line"/>
      <point x="167.6764705882353" y="361.2647058823529" type="line"/>
      <point x="183.55882352941177" y="375.44117647058823"/>
      <point x="246.6764705882353" y="428.5"/>
      <point x="301.55882352941177" y="428.5" type="curve" smooth="yes"/>
      <point x="351.3529411764706" y="428.5"/>
      <point x="363.5" y="395.0"/>
      <point x="363.5" y="354.88235294117646" type="curve" smooth="yes"/>
      <point x="363.5" y="338.61764705882354"/>
      <point x="361.6470588235294" y="320.6470588235294"/>
      <point x="359.6470588235294" y="305.2352941176471" type="curve" smooth="yes"/>
      <point x="319.05882352941177" y="0.0" type="line"/>
      <point x="415.20588235294116" y="0.0" type="line"/>
      <point x="413.05882352941177" y="57.411764705882355" type="line"/>
      <point x="448.5" y="329.1764705882353" type="line" smooth="yes"/>
      <point x="450.5" y="345.1764705882353"/>
      <point x="451.5" y="360.61764705882354"/>
      <point x="451.5" y="375.05882352941177" type="curve" smooth="yes"/>
      <point x="451.5" y="470.70588235294116"/>
      <point x="400.0" y="504.1764705882353"/>
      <point x="326.2352941176471" y="504.1764705882353" type="curve" smooth="yes"/>
      <point x="267.55882352941177" y="504.1764705882353"/>
      <point x="214.55882352941177" y="469.3529411764706"/>
      <point x="176.11764705882354" y="435.6470588235294" type="curve"/>
    </contour>
  </outline>
</glyph>
<glyph name="i" format="2">
  <advance width="227.14705882352942"/>
  <unicode hex="0069"/>
  <note>
i
</note>
  <anchor x="97.32352941176471" y="0.0" name="bottom"/>
  <anchor x="83.32352941176471" y="0.0" name="ogonek"/>
  <outline>
    <contour>
      <point x="230.08823529411765" y="671.0882352941177" type="curve" smooth="yes"/>
      <point x="230.08823529411765" y="699.4117647058823"/>
      <point x="208.5" y="724.1470588235294"/>
      <point x="177.47058823529412" y="724.1470588235294" type="curve" smooth="yes"/>
      <point x="140.0" y="724.1470588235294"/>
      <point x="108.82352941176471" y="688.9705882352941"/>
      <point x="108.82352941176471" y="654.2058823529412" type="curve" smooth="yes"/>
      <point x="108.82352941176471" y="625.0294117647059"/>
      <point x="130.55882352941177" y="601.8529411764706"/>
      <point x="161.58823529411765" y="601.8529411764706" type="curve" smooth="yes"/>
      <point x="199.05882352941177" y="601.8529411764706"/>
      <point x="230.08823529411765" y="635.6176470588235"/>
    </contour>
    <contour>
      <point x="189.08823529411765" y="491.02941176470586" type="line"/>
      <point x="95.79411764705883" y="491.02941176470586" type="line"/>
      <point x="96.23529411764706" y="434.47058823529414" type="line"/>
      <point x="38.088235294117645" y="0.0" type="line"/>
      <point x="131.38235294117646" y="0.0" type="line"/>
      <point x="130.94117647058823" y="57.55882352941177" type="line"/>
    </contour>
  </outline>
</glyph>
<glyph name="j" format="2">
  <advance width="228.85294117647058"/>
  <unicode hex="006A"/>
  <note>
j
</note>
  <outline>
    <contour>
      <point x="231.7941176470588" y="671.0882352941177" type="curve" smooth="yes"/>
      <point x="231.7941176470588" y="700.2647058823529"/>
      <point x="210.05882352941177" y="723.2941176470588"/>
      <point x="178.1764705882353" y="723.2941176470588" type="curve" smooth="yes"/>
      <point x="140.85294117647058" y="723.2941176470588"/>
      <point x="110.38235294117646" y="689.8235294117648"/>
      <point x="110.38235294117646" y="654.2058823529412" type="curve" smooth="yes"/>
      <point x="110.38235294117646" y="626.0294117647059"/>
      <point x="131.41176470588235" y="601.0"/>
      <point x="163.2941176470588" y="601.0" type="curve" smooth="yes"/>
      <point x="200.61764705882354" y="601.0"/>
      <point x="231.7941176470588" y="635.4705882352941"/>
    </contour>
    <contour>
      <point x="191.94117647058823" y="491.02941176470586" type="line"/>
      <point x="99.20588235294117" y="491.02941176470586" type="line"/>
      <point x="99.79411764705883" y="434.61764705882354" type="line"/>
      <point x="42.23529411764706" y="16.823529411764707" type="line" smooth="yes"/>
      <point x="32.23529411764706" y="-55.76470588235294"/>
      <point x="18.91176470588235" y="-138.23529411764707"/>
      <point x="-66.5" y="-176.6764705882353" type="curve"/>
      <point x="-55.05882352941177" y="-227.41176470588235" type="line"/>
      <point x="75.6470588235294" y="-210.26470588235293"/>
      <point x="114.08823529411765" y="-75.08823529411765"/>
      <point x="128.6764705882353" y="30.88235294117647" type="curve" smooth="yes"/>
    </contour>
  </outline>
</glyph>
<glyph name="k" format="2">
  <advance width="483.3235294117647"/>
  <unicode hex="006B"/>
  <note>
k
</note>
  <anchor x="209.85294117647058" y="0.0" name="bottom"/>
  <outline>
    <contour>
      <point x="333.2352941176471" y="504.1764705882353" type="curve" smooth="yes"/>
      <point x="271.2647058823529" y="504.1764705882353"/>
      <point x="203.97058823529412" y="463.0882352941176"/>
      <point x="160.64705882352942" y="416.05882352941177" type="curve"/>
      <point x="160.64705882352942" y="348.97058823529414" type="line"/>
      <point x="209.0" y="398.05882352941177"/>
      <point x="267.29411764705884" y="428.5"/>
      <point x="307.2647058823529" y="428.5" type="curve" smooth="yes"/>
      <point x="342.2352941176471" y="428.5"/>
      <point x="369.61764705882354" y="410.2352941176471"/>
      <point x="369.61764705882354" y="374.52941176470586" type="curve" smooth="yes"/>
      <point x="369.61764705882354" y="316.02941176470586"/>
      <point x="303.20588235294116" y="261.0"/>
      <point x="189.47058823529412" y="246.94117647058823" type="curve"/>
      <point x="226.55882352941177" y="168.94117647058823"/>
      <point x="268.97058823529414" y="77.26470588235294"/>
      <point x="321.05882352941177" y="0.0" type="curve"/>
      <point x="420.6470588235294" y="0.0" type="line"/>
      <point x="368.38235294117646" y="71.1470588235294"/>
      <point x="327.52941176470586" y="148.52941176470588"/>
      <point x="295.0" y="217.38235294117646" type="curve"/>
      <point x="407.2352941176471" y="256.5882352941176"/>
      <point x="455.9117647058824" y="327.61764705882354"/>
      <point x="455.9117647058824" y="398.02941176470586" type="curve" smooth="yes"/>
      <point x="455.9117647058824" y="458.0882352941176"/>
      <point x="411.88235294117646" y="504.1764705882353"/>
    </contour>
    <contour>
      <point x="226.38235294117646" y="764.7352941176471" type="line"/>
      <point x="132.35294117647058" y="764.7352941176471" type="line"/>
      <point x="133.08823529411765" y="708.1764705882352" type="line"/>
      <point x="37.23529411764706" y="0.0" type="line"/>
      <point x="122.52941176470588" y="0.0" type="line"/>
    </contour>
  </outline>
</glyph>
<glyph name="l" format="2">
  <advance width="228.3235294117647"/>
  <unicode hex="006C"/>
  <note>
l
</note>
  <anchor x="76.88235294117646" y="0.0" name="bottom"/>
  <anchor x="131.88235294117646" y="391.0" name="center"/>
  <anchor x="175.88235294117646" y="728.0" name="top"/>
  <anchor x="47.705882352941174" y="522.1764705882352" name="topright"/>
  <outline>
    <contour>
      <point x="226.52941176470588" y="764.7352941176471" type="line"/>
      <point x="132.64705882352942" y="764.7352941176471" type="line"/>
      <point x="133.08823529411765" y="708.1764705882352" type="line"/>
      <point x="37.23529411764706" y="0.0" type="line"/>
      <point x="131.8235294117647" y="0.0" type="line"/>
      <point x="131.38235294117646" y="57.411764705882355" type="line"/>
    </contour>
  </outline>
</glyph>
<glyph name="m" format="2">
  <advance width="761.4117647058823"/>
  <unicode hex="006D"/>
  <note>
m
</note>
  <outline>
    <contour>
      <point x="167.08823529411765" y="501.1764705882353" type="curve"/>
      <point x="74.23529411764706" y="490.44117647058823" type="line"/>
      <point x="76.1470588235294" y="487.5"/>
      <point x="89.08823529411765" y="454.05882352941177"/>
      <point x="89.08823529411765" y="403.7647058823529" type="curve" smooth="yes"/>
      <point x="89.08823529411765" y="389.7352941176471"/>
      <point x="88.08823529411765" y="374.1470588235294"/>
      <point x="86.08823529411765" y="358.55882352941177" type="curve" smooth="yes"/>
      <point x="38.94117647058823" y="0.0" type="line"/>
      <point x="123.08823529411765" y="0.0" type="line"/>
      <point x="172.08823529411765" y="364.4117647058824" type="line"/>
      <point x="185.0" y="375.61764705882354"/>
      <point x="249.47058823529412" y="428.5"/>
      <point x="297.2647058823529" y="428.5" type="curve" smooth="yes"/>
      <point x="347.05882352941177" y="428.5"/>
      <point x="359.3529411764706" y="394.70588235294116"/>
      <point x="359.3529411764706" y="355.5882352941176" type="curve" smooth="yes"/>
      <point x="359.3529411764706" y="339.9117647058824"/>
      <point x="357.5" y="322.52941176470586"/>
      <point x="355.6470588235294" y="307.70588235294116" type="curve" smooth="yes"/>
      <point x="314.9117647058824" y="0.0" type="line"/>
      <point x="400.05882352941177" y="0.0" type="line"/>
      <point x="447.20588235294116" y="363.70588235294116" type="line"/>
      <point x="480.5882352941176" y="392.52941176470586"/>
      <point x="529.8529411764706" y="428.5"/>
      <point x="573.2352941176471" y="428.5" type="curve" smooth="yes"/>
      <point x="624.0294117647059" y="428.5"/>
      <point x="636.4705882352941" y="394.44117647058823"/>
      <point x="636.4705882352941" y="354.02941176470586" type="curve" smooth="yes"/>
      <point x="636.4705882352941" y="338.20588235294116"/>
      <point x="634.6176470588235" y="322.2352941176471"/>
      <point x="632.7647058823529" y="307.2647058823529" type="curve" smooth="yes"/>
      <point x="592.1764705882352" y="0.0" type="line"/>
      <point x="684.6176470588235" y="0.0" type="line"/>
      <point x="684.1764705882352" y="57.26470588235294" type="line"/>
      <point x="720.4705882352941" y="330.47058823529414" type="line" smooth="yes"/>
      <point x="722.4705882352941" y="346.47058823529414"/>
      <point x="723.6176470588235" y="361.7647058823529"/>
      <point x="723.6176470588235" y="375.3529411764706" type="curve" smooth="yes"/>
      <point x="723.6176470588235" y="477.94117647058823"/>
      <point x="664.1764705882352" y="504.02941176470586"/>
      <point x="600.2352941176471" y="504.02941176470586" type="curve" smooth="yes"/>
      <point x="538.0882352941177" y="504.02941176470586"/>
      <point x="482.94117647058823" y="461.0882352941176"/>
      <point x="441.3529411764706" y="423.3529411764706" type="curve"/>
      <point x="421.38235294117646" y="484.7352941176471"/>
      <point x="377.52941176470586" y="504.02941176470586"/>
      <point x="323.97058823529414" y="504.02941176470586" type="curve" smooth="yes"/>
      <point x="265.38235294117646" y="504.02941176470586"/>
      <point x="215.97058823529412" y="465.79411764705884"/>
      <point x="175.94117647058823" y="430.3529411764706" type="curve"/>
      <point x="175.94117647058823" y="453.05882352941177"/>
      <point x="171.38235294117646" y="487.8529411764706"/>
    </contour>
  </outline>
</glyph>
<glyph name="n" format="2">
  <advance width="493.70588235294116"/>
  <unicode hex="006E"/>
  <note>
n
</note>
  <anchor x="227.55882352941177" y="0.0" name="bottom"/>
  <anchor x="290.55882352941177" y="491.02941176470586" name="top"/>
  <anchor x="108.55882352941177" y="491.02941176470586" name="topright"/>
  <outline>
    <contour>
      <point x="167.08823529411765" y="501.1764705882353" type="curve"/>
      <point x="74.23529411764706" y="490.44117647058823" type="line"/>
      <point x="76.1470588235294" y="487.5"/>
      <point x="89.94117647058823" y="457.47058823529414"/>
      <point x="89.94117647058823" y="403.7647058823529" type="curve" smooth="yes"/>
      <point x="89.94117647058823" y="388.02941176470586"/>
      <point x="88.94117647058823" y="369.88235294117646"/>
      <point x="86.08823529411765" y="350.88235294117646" type="curve" smooth="yes"/>
      <point x="38.94117647058823" y="0.0" type="line"/>
      <point x="123.94117647058823" y="0.0" type="line"/>
      <point x="172.94117647058823" y="361.2647058823529" type="line"/>
      <point x="188.8235294117647" y="375.44117647058823"/>
      <point x="251.94117647058823" y="428.5"/>
      <point x="306.8235294117647" y="428.5" type="curve" smooth="yes"/>
      <point x="357.47058823529414" y="428.5"/>
      <point x="369.61764705882354" y="395.8529411764706"/>
      <point x="369.61764705882354" y="357.44117647058823" type="curve" smooth="yes"/>
      <point x="369.61764705882354" y="340.3235294117647"/>
      <point x="366.9117647058824" y="322.3529411764706"/>
      <point x="364.9117647058824" y="306.0882352941176" type="curve" smooth="yes"/>
      <point x="323.61764705882354" y="0.0" type="line"/>
      <point x="417.05882352941177" y="0.0" type="line"/>
      <point x="416.61764705882354" y="57.411764705882355" type="line"/>
      <point x="452.9117647058824" y="330.02941176470586" type="line" smooth="yes"/>
      <point x="454.9117647058824" y="346.02941176470586"/>
      <point x="455.9117647058824" y="361.47058823529414"/>
      <point x="455.9117647058824" y="375.05882352941177" type="curve" smooth="yes"/>
      <point x="455.9117647058824" y="478.38235294117646"/>
      <point x="395.88235294117646" y="504.1764705882353"/>
      <point x="332.3529411764706" y="504.1764705882353" type="curve" smooth="yes"/>
      <point x="268.97058823529414" y="504.1764705882353"/>
      <point x="215.23529411764707" y="465.3529411764706"/>
      <point x="175.94117647058823" y="431.3529411764706" type="curve"/>
      <point x="175.08823529411765" y="459.1764705882353"/>
      <point x="170.52941176470588" y="489.55882352941177"/>
    </contour>
  </outline>
</glyph>
<glyph name="o" format="2">
  <advance width="498.55882352941177"/>
  <unicode hex="006F"/>
  <note>
o
</note>
  <anchor x="216.7058823529412" y="0.0" name="bottom"/>
  <anchor x="249.7058823529412" y="252.0" name="center"/>
  <anchor x="257.47058823529414" y="0.0" name="ogonek"/>
  <anchor x="283.70588235294116" y="491.02941176470586" name="top"/>
  <anchor x="311.70588235294116" y="491.02941176470586" name="topright"/>
  <outline>
    <contour>
      <point x="215.55882352941177" y="-12.852941176470589" type="curve" smooth="yes"/>
      <point x="378.44117647058823" y="-12.852941176470589"/>
      <point x="464.7647058823529" y="146.02941176470588"/>
      <point x="464.7647058823529" y="287.61764705882354" type="curve" smooth="yes"/>
      <point x="464.7647058823529" y="401.3235294117647"/>
      <point x="410.61764705882354" y="504.02941176470586"/>
      <point x="283.0" y="504.02941176470586" type="curve" smooth="yes"/>
      <point x="120.11764705882354" y="504.02941176470586"/>
      <point x="33.794117647058826" y="345.1470588235294"/>
      <point x="33.794117647058826" y="203.55882352941177" type="curve" smooth="yes"/>
      <point x="33.794117647058826" y="89.8529411764706"/>
      <point x="87.94117647058823" y="-12.852941176470589"/>
    </contour>
    <contour>
      <point x="223.14705882352942" y="51.94117647058823" type="curve" smooth="yes"/>
      <point x="150.47058823529412" y="51.94117647058823"/>
      <point x="121.79411764705883" y="125.58823529411765"/>
      <point x="121.79411764705883" y="207.6764705882353" type="curve" smooth="yes"/>
      <point x="121.79411764705883" y="316.52941176470586"/>
      <point x="172.91176470588235" y="439.2352941176471"/>
      <point x="275.4117647058824" y="439.2352941176471" type="curve" smooth="yes"/>
      <point x="348.0882352941176" y="439.2352941176471"/>
      <point x="376.7647058823529" y="365.5882352941176"/>
      <point x="376.7647058823529" y="283.5" type="curve" smooth="yes"/>
      <point x="376.7647058823529" y="174.64705882352942"/>
      <point x="325.6470588235294" y="51.94117647058823"/>
    </contour>
  </outline>
</glyph>
<glyph name="p" format="2">
  <advance width="499.20588235294116"/>
  <unicode hex="0070"/>
  <note>
p
</note>
  <outline>
    <contour>
      <point x="319.05882352941177" y="504.1764705882353" type="curve" smooth="yes"/>
      <point x="260.0882352941176" y="504.1764705882353"/>
      <point x="206.97058823529412" y="468.0882352941176"/>
      <point x="172.6764705882353" y="432.0882352941176" type="curve"/>
      <point x="172.52941176470588" y="454.6470588235294"/>
      <point x="170.38235294117646" y="469.94117647058823"/>
      <point x="164.38235294117646" y="501.88235294117646" type="curve"/>
      <point x="72.11764705882354" y="490.29411764705884" type="line"/>
      <point x="82.26470588235294" y="460.61764705882354"/>
      <point x="85.97058823529412" y="432.02941176470586"/>
      <point x="85.97058823529412" y="406.1764705882353" type="curve" smooth="yes"/>
      <point x="85.97058823529412" y="382.9117647058824"/>
      <point x="83.26470588235294" y="359.6470588235294"/>
      <point x="80.26470588235294" y="336.38235294117646" type="curve" smooth="yes"/>
      <point x="6.529411764705882" y="-224.14705882352942" type="line"/>
      <point x="100.26470588235294" y="-224.14705882352942" type="line"/>
      <point x="99.52941176470588" y="-169.14705882352942" type="line"/>
      <point x="121.52941176470588" y="0.7058823529411764" type="line"/>
      <point x="146.23529411764707" y="-7.0"/>
      <point x="176.38235294117646" y="-12.852941176470589"/>
      <point x="214.35294117647058" y="-12.852941176470589" type="curve" smooth="yes"/>
      <point x="372.47058823529414" y="-12.852941176470589"/>
      <point x="466.2647058823529" y="128.23529411764707"/>
      <point x="466.2647058823529" y="299.8529411764706" type="curve" smooth="yes"/>
      <point x="466.2647058823529" y="415.44117647058823"/>
      <point x="424.52941176470586" y="504.1764705882353"/>
    </contour>
    <contour>
      <point x="300.1470588235294" y="430.52941176470586" type="curve" smooth="yes"/>
      <point x="356.8529411764706" y="430.52941176470586"/>
      <point x="378.2647058823529" y="371.4117647058824"/>
      <point x="378.2647058823529" y="290.44117647058823" type="curve" smooth="yes"/>
      <point x="378.2647058823529" y="177.76470588235293"/>
      <point x="329.1470588235294" y="52.088235294117645"/>
      <point x="212.38235294117646" y="52.088235294117645" type="curve" smooth="yes"/>
      <point x="180.52941176470588" y="52.088235294117645"/>
      <point x="149.85294117647058" y="61.794117647058826"/>
      <point x="131.8235294117647" y="73.94117647058823" type="curve"/>
      <point x="169.52941176470588" y="360.6764705882353" type="line"/>
      <point x="191.64705882352942" y="384.6764705882353"/>
      <point x="246.76470588235293" y="430.52941176470586"/>
    </contour>
  </outline>
</glyph>
<glyph name="q" format="2">
  <advance width="487.61764705882354"/>
  <unicode hex="0071"/>
  <note>
q
</note>
  <outline>
    <contour>
      <point x="418.44117647058823" y="495.7352941176471" type="line"/>
      <point x="369.2352941176471" y="417.2352941176471" type="line"/>
      <point x="354.8235294117647" y="310.97058823529414" type="line" smooth="yes"/>
      <point x="337.38235294117646" y="180.97058823529412"/>
      <point x="291.44117647058823" y="53.794117647058826"/>
      <point x="203.88235294117646" y="53.794117647058826" type="curve" smooth="yes"/>
      <point x="145.05882352941177" y="53.794117647058826"/>
      <point x="120.94117647058823" y="118.3529411764706"/>
      <point x="120.94117647058823" y="195.47058823529412" type="curve" smooth="yes"/>
      <point x="120.94117647058823" y="313.55882352941177"/>
      <point x="168.55882352941177" y="438.94117647058823"/>
      <point x="286.8235294117647" y="438.94117647058823" type="curve" smooth="yes"/>
      <point x="327.6764705882353" y="438.94117647058823"/>
      <point x="365.11764705882354" y="422.3529411764706"/>
      <point x="406.8529411764706" y="385.47058823529414" type="curve"/>
      <point x="406.8529411764706" y="448.29411764705884" type="line"/>
      <point x="370.8529411764706" y="489.7352941176471"/>
      <point x="324.3529411764706" y="503.88235294117646"/>
      <point x="284.2352941176471" y="503.88235294117646" type="curve" smooth="yes"/>
      <point x="114.23529411764706" y="503.88235294117646"/>
      <point x="32.94117647058823" y="342.7352941176471"/>
      <point x="32.94117647058823" y="194.1764705882353" type="curve" smooth="yes"/>
      <point x="32.94117647058823" y="81.88235294117646"/>
      <point x="77.52941176470588" y="-12.852941176470589"/>
      <point x="186.85294117647058" y="-12.852941176470589" type="curve" smooth="yes"/>
      <point x="239.23529411764707" y="-12.852941176470589"/>
      <point x="288.05882352941177" y="15.941176470588236"/>
      <point x="312.0882352941176" y="49.205882352941174" type="curve"/>
      <point x="316.0882352941176" y="49.205882352941174" type="line"/>
      <point x="280.2352941176471" y="-223.14705882352942" type="line"/>
      <point x="373.97058823529414" y="-223.14705882352942" type="line"/>
      <point x="373.2352941176471" y="-167.2941176470588" type="line"/>
      <point x="465.2352941176471" y="495.7352941176471" type="line"/>
    </contour>
  </outline>
</glyph>
<glyph name="r" format="2">
  <advance width="334.1470588235294"/>
  <unicode hex="0072"/>
  <note>
r
</note>
  <anchor x="87.70588235294117" y="0.0" name="bottom"/>
  <anchor x="200.26470588235293" y="491.02941176470586" name="top"/>
  <outline>
    <contour>
      <point x="170.64705882352942" y="502.7352941176471" type="curve"/>
      <point x="74.23529411764706" y="491.88235294117646" type="line"/>
      <point x="88.23529411764706" y="467.1764705882353"/>
      <point x="91.08823529411765" y="428.7647058823529"/>
      <point x="91.08823529411765" y="406.1764705882353" type="curve" smooth="yes"/>
      <point x="91.08823529411765" y="390.02941176470586"/>
      <point x="89.94117647058823" y="374.29411764705884"/>
      <point x="87.94117647058823" y="358.7352941176471" type="curve" smooth="yes"/>
      <point x="41.64705882352941" y="0.0" type="line"/>
      <point x="129.2058823529412" y="0.0" type="line"/>
      <point x="171.76470588235293" y="316.29411764705884" type="line"/>
      <point x="211.64705882352942" y="371.1764705882353"/>
      <point x="257.94117647058823" y="406.5882352941176"/>
      <point x="323.3235294117647" y="406.5882352941176" type="curve"/>
      <point x="355.7647058823529" y="502.7352941176471" type="line"/>
      <point x="285.3529411764706" y="502.7352941176471"/>
      <point x="219.2058823529412" y="459.11764705882354"/>
      <point x="180.5" y="409.6764705882353" type="curve"/>
      <point x="180.94117647058823" y="448.05882352941177"/>
      <point x="178.64705882352942" y="476.44117647058823"/>
    </contour>
  </outline>
</glyph>
<glyph name="s" format="2">
  <advance width="375.2647058823529"/>
  <unicode hex="0073"/>
  <note>
s
</note>
  <anchor x="152.85294117647058" y="0.0" name="bottom"/>
  <anchor x="219.85294117647058" y="491.02941176470586" name="top"/>
  <outline>
    <contour>
      <point x="327.0" y="407.79411764705884" type="curve"/>
      <point x="363.6470588235294" y="471.3235294117647" type="line"/>
      <point x="328.05882352941177" y="492.3235294117647"/>
      <point x="284.44117647058823" y="504.02941176470586"/>
      <point x="240.44117647058823" y="504.02941176470586" type="curve" smooth="yes"/>
      <point x="147.52941176470588" y="504.02941176470586"/>
      <point x="55.911764705882355" y="457.44117647058823"/>
      <point x="55.911764705882355" y="347.97058823529414" type="curve" smooth="yes"/>
      <point x="55.911764705882355" y="220.94117647058823"/>
      <point x="243.73529411764707" y="225.88235294117646"/>
      <point x="243.73529411764707" y="132.5" type="curve" smooth="yes"/>
      <point x="243.73529411764707" y="78.82352941176471"/>
      <point x="195.64705882352942" y="52.23529411764706"/>
      <point x="148.38235294117646" y="52.23529411764706" type="curve" smooth="yes"/>
      <point x="114.6470588235294" y="52.23529411764706"/>
      <point x="76.38235294117646" y="69.26470588235294"/>
      <point x="47.23529411764706" y="92.67647058823529" type="curve"/>
      <point x="2.911764705882353" y="28.58823529411765" type="line"/>
      <point x="46.61764705882353" y="2.4411764705882355"/>
      <point x="96.38235294117646" y="-12.852941176470589"/>
      <point x="150.64705882352942" y="-12.852941176470589" type="curve" smooth="yes"/>
      <point x="246.0" y="-12.852941176470589"/>
      <point x="333.20588235294116" y="40.470588235294116"/>
      <point x="333.20588235294116" y="143.85294117647058" type="curve" smooth="yes"/>
      <point x="333.20588235294116" y="283.70588235294116"/>
      <point x="144.6764705882353" y="283.3235294117647"/>
      <point x="144.6764705882353" y="364.7352941176471" type="curve" smooth="yes"/>
      <point x="144.6764705882353" y="413.2647058823529"/>
      <point x="190.05882352941177" y="438.79411764705884"/>
      <point x="235.44117647058823" y="438.79411764705884" type="curve" smooth="yes"/>
      <point x="268.29411764705884" y="438.79411764705884"/>
      <point x="298.88235294117646" y="428.94117647058823"/>
    </contour>
  </outline>
</glyph>
<glyph name="v" format="2">
  <advance width="418.1470588235294"/>
  <unicode hex="0076"/>
  <note>
v
</note>
  <outline>
    <contour>
      <point x="127.61764705882354" y="491.02941176470586" type="curve"/>
      <point x="38.029411764705884" y="491.02941176470586" type="line"/>
      <point x="139.76470588235293" y="-4.852941176470588" type="line"/>
      <point x="217.61764705882354" y="-4.852941176470588" type="line"/>
      <point x="452.1764705882353" y="491.02941176470586" type="line"/>
      <point x="371.0" y="491.02941176470586" type="line"/>
      <point x="304.55882352941177" y="348.79411764705884"/>
      <point x="247.47058823529412" y="234.91176470588235"/>
      <point x="200.0" y="110.91176470588235" type="curve"/>
      <point x="182.2058823529412" y="230.7941176470588"/>
      <point x="157.14705882352942" y="346.44117647058823"/>
    </contour>
  </outline>
</glyph>
<glyph name="w" format="2">
  <advance width="614.1176470588235"/>
  <unicode hex="0077"/>
  <note>
w
</note>
  <anchor x="346.3235294117647" y="491.02941176470586" name="top"/>
  <outline>
    <contour>
      <point x="125.91176470588235" y="491.02941176470586" type="curve"/>
      <point x="38.029411764705884" y="491.02941176470586" type="line"/>
      <point x="111.17647058823529" y="-4.852941176470588" type="line"/>
      <point x="175.2058823529412" y="-4.852941176470588" type="line"/>
      <point x="228.61764705882354" y="117.1470588235294"/>
      <point x="276.97058823529414" y="224.64705882352942"/>
      <point x="321.70588235294116" y="340.97058823529414" type="curve"/>
      <point x="335.5" y="219.85294117647058"/>
      <point x="349.9117647058824" y="118.76470588235294"/>
      <point x="368.52941176470586" y="-4.852941176470588" type="curve"/>
      <point x="432.55882352941177" y="-4.852941176470588" type="line"/>
      <point x="648.1470588235294" y="491.02941176470586" type="line"/>
      <point x="570.6764705882352" y="491.02941176470586" type="line"/>
      <point x="518.2647058823529" y="368.70588235294116"/>
      <point x="472.52941176470586" y="266.6764705882353"/>
      <point x="428.3529411764706" y="149.97058823529412" type="curve"/>
      <point x="415.5882352941176" y="264.5"/>
      <point x="399.5882352941176" y="371.94117647058823"/>
      <point x="381.55882352941177" y="491.02941176470586" type="curve"/>
      <point x="315.61764705882354" y="491.02941176470586" type="line"/>
      <point x="261.29411764705884" y="364.5882352941176"/>
      <point x="215.2941176470588" y="262.20588235294116"/>
      <point x="171.85294117647058" y="149.97058823529412" type="curve"/>
      <point x="159.7941176470588" y="263.8235294117647"/>
      <point x="144.6764705882353" y="366.6470588235294"/>
    </contour>
  </outline>
</glyph>
<glyph name="x" format="2">
  <advance width="399.1764705882353"/>
  <unicode hex="0078"/>
  <note>
x
</note>
  <outline>
    <contour>
      <point x="141.0" y="491.02941176470586" type="line"/>
      <point x="45.6764705882353" y="491.02941176470586" type="line"/>
      <point x="282.97058823529414" y="0.0" type="line"/>
      <point x="380.1470588235294" y="0.0" type="line"/>
    </contour>
    <contour>
      <point x="333.94117647058823" y="491.02941176470586" type="line"/>
      <point x="-33.64705882352941" y="0.0" type="line"/>
      <point x="62.82352941176471" y="0.0" type="line"/>
      <point x="430.2647058823529" y="491.02941176470586" type="line"/>
    </contour>
  </outline>
</glyph>
<glyph name="y" format="2">
  <advance width="410.47058823529414"/>
  <unicode hex="0079"/>
  <note>
y
</note>
  <anchor x="283.0" y="0.0" name="bottom"/>
  <anchor x="243.8235294117647" y="491.02941176470586" name="top"/>
  <outline>
    <contour>
      <point x="-33.5" y="-161.94117647058823" type="curve"/>
      <point x="-42.5" y="-230.0" type="line"/>
      <point x="80.23529411764706" y="-227.44117647058823"/>
      <point x="157.02941176470588" y="-150.64705882352942"/>
      <point x="206.38235294117646" y="-43.94117647058823" type="curve" smooth="yes"/>
      <point x="452.1764705882353" y="491.02941176470586" type="line"/>
      <point x="370.88235294117646" y="491.02941176470586" type="line"/>
      <point x="311.8235294117647" y="362.47058823529414"/>
      <point x="254.1764705882353" y="245.26470588235293"/>
      <point x="200.26470588235293" y="113.58823529411765" type="curve"/>
      <point x="180.61764705882354" y="243.47058823529412"/>
      <point x="156.05882352941177" y="363.3529411764706"/>
      <point x="131.02941176470588" y="491.02941176470586" type="curve"/>
      <point x="40.588235294117645" y="491.02941176470586" type="line"/>
      <point x="144.73529411764707" y="2.7058823529411766" type="line"/>
      <point x="100.23529411764706" y="-99.6470588235294"/>
      <point x="51.94117647058823" y="-158.52941176470588"/>
    </contour>
  </outline>
</glyph>
<glyph name="z" format="2">
  <advance width="430.79411764705884"/>
  <unicode hex="007A"/>
  <note>
z
</note>
  <anchor x="252.7941176470588" y="491.02941176470586" name="top"/>
  <outline>
    <contour>
      <point x="91.0" y="491.02941176470586" type="line"/>
      <point x="81.70588235294117" y="425.0882352941176" type="line"/>
      <point x="305.20588235294116" y="425.0882352941176" type="line"/>
      <point x="13.882352941176471" y="49.911764705882355" type="line"/>
      <point x="13.882352941176471" y="0.0" type="line"/>
      <point x="372.1470588235294" y="0.0" type="line"/>
      <point x="382.29411764705884" y="66.08823529411765" type="line"/>
      <point x="128.7941176470588" y="66.08823529411765" type="line"/>
      <point x="422.2647058823529" y="441.8235294117647" type="line"/>
      <point x="422.2647058823529" y="491.02941176470586" type="line"/>
    </contour>
  </outline>
</glyph>
<glyph name="braceleft" format="2">
  <advance width="350.0"/>
  <unicode hex="007B"/>
  <note>
braceleft
</note>
  <outline>
    <contour>
      <point x="215.02941176470588" y="-136.76470588235293" type="curve" smooth="yes"/>
      <point x="243.11764705882354" y="-136.76470588235293" type="line"/>
      <point x="249.55882352941177" y="-87.41176470588235" type="line"/>
      <point x="183.38235294117646" y="-87.41176470588235"/>
      <point x="163.11764705882354" y="-74.8529411764706"/>
      <point x="172.41176470588235" y="-6.823529411764706" type="curve" smooth="yes"/>
      <point x="197.26470588235293" y="169.41176470588235" type="line" smooth="yes"/>
      <point x="205.11764705882354" y="222.52941176470588"/>
      <point x="203.41176470588235" y="278.6764705882353"/>
      <point x="151.02941176470588" y="299.4117647058824" type="curve"/>
      <point x="209.7058823529412" y="320.1470588235294"/>
      <point x="225.55882352941177" y="377.29411764705884"/>
      <point x="233.41176470588235" y="430.4117647058824" type="curve" smooth="yes"/>
      <point x="257.4117647058824" y="599.8235294117648" type="line" smooth="yes"/>
      <point x="267.4117647058824" y="670.3823529411765"/>
      <point x="285.8529411764706" y="687.2352941176471"/>
      <point x="359.11764705882354" y="687.2352941176471" type="curve"/>
      <point x="365.4117647058824" y="736.4411764705883" type="line"/>
      <point x="337.97058823529414" y="736.4411764705883" type="line" smooth="yes"/>
      <point x="230.26470588235293" y="736.4411764705883"/>
      <point x="180.8235294117647" y="672.8235294117648"/>
      <point x="166.97058823529412" y="572.4117647058823" type="curve" smooth="yes"/>
      <point x="145.97058823529412" y="419.4117647058824" type="line" smooth="yes"/>
      <point x="139.97058823529412" y="375.8529411764706"/>
      <point x="124.23529411764706" y="323.5882352941176"/>
      <point x="68.11764705882354" y="323.5882352941176" type="curve"/>
      <point x="61.8235294117647" y="276.2352941176471" type="line"/>
      <point x="110.38235294117646" y="276.2352941176471"/>
      <point x="119.82352941176471" y="232.23529411764707"/>
      <point x="113.97058823529412" y="190.6764705882353" type="curve" smooth="yes"/>
      <point x="91.11764705882354" y="27.41176470588235" type="line" smooth="yes"/>
      <point x="76.97058823529412" y="-74.17647058823529"/>
      <point x="108.8529411764706" y="-136.76470588235293"/>
    </contour>
  </outline>
</glyph>
<glyph name="bar" format="2">
  <advance width="235.85294117647058"/>
  <unicode hex="007C"/>
  <note>
bar
</note>
  <outline>
    <contour>
      <point x="142.08823529411765" y="742.4411764705883" type="line"/>
      <point x="21.794117647058822" y="-110.02941176470588" type="line"/>
      <point x="94.20588235294117" y="-110.02941176470588" type="line"/>
      <point x="214.5" y="742.4411764705883" type="line"/>
    </contour>
  </outline>
</glyph>
<glyph name="braceright" format="2">
  <advance width="321.0"/>
  <unicode hex="007D"/>
  <note>
braceright
</note>
  <outline>
    <contour>
      <point x="145.2941176470588" y="736.4411764705883" type="curve" smooth="yes"/>
      <point x="117.20588235294117" y="736.4411764705883" type="line"/>
      <point x="110.76470588235294" y="687.0882352941177" type="line"/>
      <point x="176.94117647058823" y="687.0882352941177"/>
      <point x="197.2058823529412" y="674.5294117647059"/>
      <point x="187.91176470588235" y="606.5" type="curve" smooth="yes"/>
      <point x="163.05882352941177" y="430.2647058823529" type="line" smooth="yes"/>
      <point x="155.2058823529412" y="377.1470588235294"/>
      <point x="156.91176470588235" y="321.0"/>
      <point x="209.2941176470588" y="300.2647058823529" type="curve"/>
      <point x="150.61764705882354" y="279.52941176470586"/>
      <point x="134.76470588235293" y="222.38235294117646"/>
      <point x="126.91176470588235" y="169.26470588235293" type="curve" smooth="yes"/>
      <point x="102.91176470588235" y="-0.14705882352941177" type="line" smooth="yes"/>
      <point x="92.91176470588235" y="-70.70588235294117"/>
      <point x="74.47058823529412" y="-87.55882352941177"/>
      <point x="1.2058823529411762" y="-87.55882352941177" type="curve"/>
      <point x="-5.088235294117647" y="-136.76470588235293" type="line"/>
      <point x="22.352941176470587" y="-136.76470588235293" type="line" smooth="yes"/>
      <point x="130.05882352941177" y="-136.76470588235293"/>
      <point x="179.5" y="-73.1470588235294"/>
      <point x="193.35294117647058" y="27.264705882352942" type="curve" smooth="yes"/>
      <point x="214.35294117647058" y="180.26470588235293" type="line" smooth="yes"/>
      <point x="220.35294117647058" y="223.8235294117647"/>
      <point x="236.08823529411765" y="276.0882352941176"/>
      <point x="292.20588235294116" y="276.0882352941176" type="curve"/>
      <point x="298.5" y="323.44117647058823" type="line"/>
      <point x="249.94117647058823" y="323.44117647058823"/>
      <point x="240.5" y="367.44117647058823"/>
      <point x="246.35294117647058" y="409.0" type="curve" smooth="yes"/>
      <point x="269.20588235294116" y="572.2647058823529" type="line" smooth="yes"/>
      <point x="283.3529411764706" y="673.8529411764706"/>
      <point x="251.47058823529412" y="736.4411764705883"/>
    </contour>
  </outline>
</glyph>
<glyph name="asciitilde" format="2">
  <advance width="559.0"/>
  <unicode hex="007E"/>
  <note>
asciitilde
</note>
  <outline>
    <contour>
      <point x="519.4705882352941" y="297.29411764705884" type="curve"/>
      <point x="476.0" y="345.05882352941177" type="line"/>
      <point x="454.0" y="313.9117647058824"/>
      <point x="418.29411764705884" y="278.02941176470586"/>
      <point x="381.1470588235294" y="278.02941176470586" type="curve" smooth="yes"/>
      <point x="328.1470588235294" y="278.02941176470586"/>
      <point x="268.29411764705884" y="344.61764705882354"/>
      <point x="185.0" y="344.61764705882354" type="curve" smooth="yes"/>
      <point x="127.55882352941177" y="344.61764705882354"/>
      <point x="69.11764705882354" y="297.29411764705884"/>
      <point x="38.6764705882353" y="246.55882352941177" type="curve"/>
      <point x="86.0" y="200.94117647058823" type="line"/>
      <point x="104.8529411764706" y="231.94117647058823"/>
      <point x="138.7058823529412" y="269.97058823529414"/>
      <point x="174.7058823529412" y="269.97058823529414" type="curve" smooth="yes"/>
      <point x="247.41176470588235" y="269.97058823529414"/>
      <point x="293.55882352941177" y="202.52941176470588"/>
      <point x="369.8529411764706" y="202.52941176470588" type="curve" smooth="yes"/>
      <point x="423.29411764705884" y="202.52941176470588"/>
      <point x="486.02941176470586" y="253.7058823529412"/>
    </contour>
  </outline>
</glyph>
<glyph name="exclamdown" format="2">
  <advance width="245.0"/>
  <unicode hex="00A1"/>
  <note>
exclamdown
</note>
  <outline>
    <contour>
      <point x="112.6470588235294" y="-232.2941176470588" type="line"/>
      <point x="155.64705882352942" y="279.0" type="line"/>
      <point x="92.08823529411765" y="279.0" type="line"/>
      <point x="-8.911764705882353" y="-232.2941176470588" type="line"/>
    </contour>
    <contour>
      <point x="77.97058823529412" y="432.6764705882353" type="curve" smooth="yes"/>
      <point x="77.97058823529412" y="400.0882352941176"/>
      <point x="103.41176470588235" y="374.79411764705884"/>
      <point x="137.0" y="374.79411764705884" type="curve" smooth="yes"/>
      <point x="177.44117647058823" y="374.79411764705884"/>
      <point x="214.47058823529412" y="409.6764705882353"/>
      <point x="214.47058823529412" y="451.11764705882354" type="curve" smooth="yes"/>
      <point x="214.47058823529412" y="483.70588235294116"/>
      <point x="189.02941176470588" y="509.1470588235294"/>
      <point x="155.44117647058823" y="509.1470588235294" type="curve" smooth="yes"/>
      <point x="115.55882352941177" y="509.1470588235294"/>
      <point x="77.97058823529412" y="473.55882352941177"/>
    </contour>
  </outline>
</glyph>
<glyph name="cent" format="2">
  <advance width="492.70588235294116"/>
  <unicode hex="00A2"/>
  <note>
cent
</note>
  <outline>
    <contour>
      <point x="317.88235294117646" y="485.1470588235294" type="curve" smooth="yes"/>
      <point x="174.94117647058823" y="485.1470588235294"/>
      <point x="69.05882352941177" y="357.3235294117647"/>
      <point x="69.05882352941177" y="202.0" type="curve" smooth="yes"/>
      <point x="69.05882352941177" y="83.88235294117646"/>
      <point x="135.61764705882354" y="11.147058823529411"/>
      <point x="242.14705882352942" y="11.147058823529411" type="curve" smooth="yes"/>
      <point x="298.3235294117647" y="11.147058823529411"/>
      <point x="346.1470588235294" y="25.147058823529413"/>
      <point x="401.7352941176471" y="55.705882352941174" type="curve"/>
      <point x="378.29411764705884" y="110.94117647058823" type="line"/>
      <point x="337.1470588235294" y="90.5"/>
      <point x="298.44117647058823" y="80.3529411764706"/>
      <point x="266.7352941176471" y="80.3529411764706" type="curve" smooth="yes"/>
      <point x="200.91176470588235" y="80.3529411764706"/>
      <point x="160.94117647058823" y="123.76470588235294"/>
      <point x="160.94117647058823" y="207.14705882352942" type="curve" smooth="yes"/>
      <point x="160.94117647058823" y="311.6764705882353"/>
      <point x="213.1764705882353" y="418.5"/>
      <point x="306.97058823529414" y="418.5" type="curve" smooth="yes"/>
      <point x="338.1470588235294" y="418.5"/>
      <point x="368.8235294117647" y="405.3529411764706"/>
      <point x="398.2352941176471" y="379.2352941176471" type="curve"/>
      <point x="449.7352941176471" y="439.5882352941176" type="line"/>
      <point x="409.7647058823529" y="470.70588235294116"/>
      <point x="362.7352941176471" y="485.1470588235294"/>
    </contour>
    <contour>
      <point x="245.41176470588235" y="34.470588235294116" type="line"/>
      <point x="196.76470588235293" y="34.470588235294116" type="line"/>
      <point x="133.88235294117646" y="-119.47058823529412" type="line"/>
      <point x="208.8235294117647" y="-119.47058823529412" type="line"/>
    </contour>
    <contour>
      <point x="292.3235294117647" y="467.11764705882354" type="line"/>
      <point x="343.2647058823529" y="467.11764705882354" type="line"/>
      <point x="403.55882352941177" y="613.4705882352941" type="line"/>
      <point x="326.61764705882354" y="613.4705882352941" type="line"/>
    </contour>
  </outline>
</glyph>
<glyph name="sterling" format="2">
  <advance width="581.0"/>
  <unicode hex="00A3"/>
  <note>
sterling
</note>
  <outline>
    <contour>
      <point x="28.352941176470587" y="73.55882352941177" type="line"/>
      <point x="17.764705882352942" y="0.0" type="line"/>
      <point x="502.94117647058823" y="0.0" type="line"/>
      <point x="513.5294117647059" y="73.55882352941177" type="line"/>
      <point x="221.38235294117646" y="73.55882352941177" type="line"/>
      <point x="282.0882352941176" y="507.1764705882353" type="line" smooth="yes"/>
      <point x="290.79411764705884" y="571.4117647058823"/>
      <point x="331.61764705882354" y="625.3529411764706"/>
      <point x="400.55882352941177" y="625.3529411764706" type="curve" smooth="yes"/>
      <point x="446.55882352941177" y="625.3529411764706"/>
      <point x="477.11764705882354" y="592.9117647058823"/>
      <point x="491.2647058823529" y="554.0588235294117" type="curve"/>
      <point x="575.7941176470588" y="597.8235294117648" type="line"/>
      <point x="545.7647058823529" y="660.7352941176471"/>
      <point x="486.6470588235294" y="698.3235294117648"/>
      <point x="412.1470588235294" y="698.3235294117648" type="curve" smooth="yes"/>
      <point x="291.11764705882354" y="698.3235294117648"/>
      <point x="198.91176470588235" y="627.8823529411765"/>
      <point x="181.76470588235293" y="503.4117647058824" type="curve" smooth="yes"/>
      <point x="121.3529411764706" y="73.55882352941177" type="line"/>
    </contour>
    <contour>
      <point x="76.32352941176471" y="295.94117647058823" type="line"/>
      <point x="405.9117647058824" y="295.94117647058823" type="line"/>
      <point x="425.3529411764706" y="360.88235294117646" type="line"/>
      <point x="95.76470588235294" y="360.88235294117646" type="line"/>
    </contour>
  </outline>
</glyph>
<glyph name="currency" format="2">
  <advance width="536.1470588235294"/>
  <unicode hex="00A4"/>
  <note>
currency
</note>
  <outline>
    <contour>
      <point x="296.1470588235294" y="458.7352941176471" type="curve" smooth="yes"/>
      <point x="252.73529411764707" y="458.7352941176471"/>
      <point x="211.1764705882353" y="443.3235294117647"/>
      <point x="175.47058823529412" y="417.9117647058824" type="curve"/>
      <point x="129.61764705882354" y="472.61764705882354" type="line"/>
      <point x="70.23529411764706" y="420.6764705882353" type="line"/>
      <point x="119.08823529411765" y="363.6764705882353" type="line"/>
      <point x="90.52941176470588" y="325.2352941176471"/>
      <point x="70.41176470588235" y="273.11764705882354"/>
      <point x="70.41176470588235" y="221.7058823529412" type="curve" smooth="yes"/>
      <point x="70.41176470588235" y="191.44117647058823"/>
      <point x="76.11764705882354" y="164.02941176470588"/>
      <point x="86.67647058823529" y="140.3235294117647" type="curve"/>
      <point x="22.823529411764707" y="84.47058823529412" type="line"/>
      <point x="67.32352941176471" y="32.529411764705884" type="line"/>
      <point x="127.88235294117646" y="85.23529411764706" type="line"/>
      <point x="156.73529411764707" y="59.8235294117647"/>
      <point x="194.44117647058823" y="44.411764705882355"/>
      <point x="237.85294117647058" y="44.411764705882355" type="curve" smooth="yes"/>
      <point x="280.4117647058824" y="44.411764705882355"/>
      <point x="322.97058823529414" y="58.970588235294116"/>
      <point x="358.6764705882353" y="85.23529411764706" type="curve"/>
      <point x="404.52941176470586" y="32.529411764705884" type="line"/>
      <point x="463.9117647058824" y="83.61764705882354" type="line"/>
      <point x="413.9117647058824" y="139.61764705882354" type="line"/>
      <point x="443.3235294117647" y="179.1764705882353"/>
      <point x="463.7352941176471" y="226.02941176470588"/>
      <point x="463.7352941176471" y="280.1470588235294" type="curve" smooth="yes"/>
      <point x="463.7352941176471" y="309.55882352941177"/>
      <point x="457.02941176470586" y="338.11764705882354"/>
      <point x="445.47058823529414" y="363.6764705882353" type="curve"/>
      <point x="511.3235294117647" y="420.6764705882353" type="line"/>
      <point x="466.8235294117647" y="472.61764705882354" type="line"/>
      <point x="404.2647058823529" y="418.7647058823529" type="line"/>
      <point x="376.2647058823529" y="444.1764705882353"/>
      <point x="338.70588235294116" y="458.7352941176471"/>
    </contour>
    <contour>
      <point x="286.8529411764706" y="394.3529411764706" type="curve" smooth="yes"/>
      <point x="349.55882352941177" y="394.3529411764706"/>
      <point x="389.38235294117646" y="342.5"/>
      <point x="388.05882352941177" y="273.61764705882354" type="curve" smooth="yes"/>
      <point x="386.1470588235294" y="173.23529411764707"/>
      <point x="313.5" y="108.79411764705883"/>
      <point x="246.44117647058823" y="108.79411764705883" type="curve" smooth="yes"/>
      <point x="191.7941176470588" y="108.79411764705883"/>
      <point x="146.64705882352942" y="154.44117647058823"/>
      <point x="146.64705882352942" y="226.14705882352942" type="curve" smooth="yes"/>
      <point x="146.64705882352942" y="317.97058823529414"/>
      <point x="211.88235294117646" y="394.3529411764706"/>
    </contour>
  </outline>
</glyph>
<glyph name="yen" format="2">
  <advance width="604.0"/>
  <unicode hex="00A5"/>
  <note>
yen
</note>
  <outline>
    <contour>
      <point x="216.7941176470588" y="698.3235294117648" type="line"/>
      <point x="102.91176470588235" y="698.3235294117648" type="line"/>
      <point x="266.88235294117646" y="325.7647058823529" type="line"/>
      <point x="221.1764705882353" y="0.0" type="line"/>
      <point x="321.7647058823529" y="0.0" type="line"/>
      <point x="367.47058823529414" y="325.7647058823529" type="line"/>
      <point x="630.2352941176471" y="698.3235294117648" type="line"/>
      <point x="538.3823529411765" y="698.3235294117648" type="line"/>
      <point x="342.55882352941177" y="416.94117647058823" type="line"/>
    </contour>
    <contour>
      <point x="95.79411764705883" y="389.0" type="line"/>
      <point x="76.05882352941177" y="324.05882352941177" type="line"/>
      <point x="545.0588235294117" y="324.05882352941177" type="line"/>
      <point x="564.7941176470588" y="389.0" type="line"/>
    </contour>
    <contour>
      <point x="76.79411764705883" y="252.41176470588235" type="line"/>
      <point x="56.911764705882355" y="187.47058823529412" type="line"/>
      <point x="525.9117647058823" y="187.47058823529412" type="line"/>
      <point x="545.7941176470588" y="252.41176470588235" type="line"/>
    </contour>
  </outline>
</glyph>
<glyph name="brokenbar" format="2">
  <advance width="238.0"/>
  <unicode hex="00A6"/>
  <note>
brokenbar
</note>
  <outline>
    <contour>
      <point x="142.08823529411765" y="742.4411764705883" type="line"/>
      <point x="92.94117647058823" y="392.8529411764706" type="line"/>
      <point x="165.35294117647058" y="392.8529411764706" type="line"/>
      <point x="214.5" y="742.4411764705883" type="line"/>
    </contour>
    <contour>
      <point x="70.94117647058823" y="233.58823529411765" type="line"/>
      <point x="21.794117647058822" y="-115.1470588235294" type="line"/>
      <point x="94.20588235294117" y="-115.1470588235294" type="line"/>
      <point x="143.35294117647058" y="233.58823529411765" type="line"/>
    </contour>
  </outline>
</glyph>
<glyph name="section" format="2">
  <advance width="454.0"/>
  <unicode hex="00A7"/>
  <note>
section
</note>
  <outline>
    <contour>
      <point x="389.05882352941177" y="773.2941176470588" type="curve" smooth="yes"/>
      <point x="309.29411764705884" y="773.2941176470588"/>
      <point x="242.47058823529412" y="730.1764705882352"/>
      <point x="229.44117647058823" y="642.1764705882352" type="curve"/>
      <point x="142.73529411764707" y="632.0294117647059"/>
      <point x="100.6470588235294" y="567.5"/>
      <point x="100.6470588235294" y="456.6764705882353" type="curve" smooth="yes"/>
      <point x="100.6470588235294" y="359.1764705882353"/>
      <point x="137.94117647058823" y="34.94117647058823"/>
      <point x="137.94117647058823" y="-59.11764705882353" type="curve" smooth="yes"/>
      <point x="137.94117647058823" y="-134.38235294117646"/>
      <point x="105.76470588235294" y="-166.35294117647058"/>
      <point x="57.1764705882353" y="-166.35294117647058" type="curve" smooth="yes"/>
      <point x="45.0" y="-166.35294117647058"/>
      <point x="14.294117647058824" y="-155.5"/>
      <point x="7.382352941176471" y="-153.61764705882354" type="curve"/>
      <point x="-17.794117647058822" y="-216.6764705882353" type="line"/>
      <point x="-9.676470588235293" y="-220.73529411764707"/>
      <point x="19.029411764705884" y="-232.55882352941177"/>
      <point x="56.73529411764706" y="-232.55882352941177" type="curve" smooth="yes"/>
      <point x="126.08823529411765" y="-232.55882352941177"/>
      <point x="200.5" y="-197.6764705882353"/>
      <point x="216.35294117647058" y="-101.29411764705883" type="curve"/>
      <point x="317.5882352941176" y="-85.02941176470588"/>
      <point x="345.4117647058824" y="7.088235294117647"/>
      <point x="345.4117647058824" y="76.20588235294117" type="curve" smooth="yes"/>
      <point x="345.4117647058824" y="155.88235294117646"/>
      <point x="306.97058823529414" y="488.55882352941177"/>
      <point x="306.97058823529414" y="594.2058823529412" type="curve" smooth="yes"/>
      <point x="306.97058823529414" y="690.5294117647059"/>
      <point x="362.44117647058823" y="703.3823529411765"/>
      <point x="388.47058823529414" y="703.3823529411765" type="curve" smooth="yes"/>
      <point x="409.3529411764706" y="703.3823529411765"/>
      <point x="434.11764705882354" y="692.0882352941177"/>
      <point x="439.8529411764706" y="689.6470588235294" type="curve"/>
      <point x="465.44117647058823" y="757.4117647058823" type="line"/>
      <point x="461.02941176470586" y="759.0294117647059"/>
      <point x="417.0882352941176" y="773.2941176470588"/>
    </contour>
    <contour>
      <point x="226.7058823529412" y="567.5294117647059" type="curve"/>
      <point x="232.7058823529412" y="430.11764705882354"/>
      <point x="262.29411764705884" y="173.44117647058823"/>
      <point x="262.29411764705884" y="72.70588235294117" type="curve" smooth="yes"/>
      <point x="262.29411764705884" y="15.558823529411764"/>
      <point x="244.64705882352942" y="-14.5"/>
      <point x="219.2058823529412" y="-27.38235294117647" type="curve"/>
      <point x="214.2058823529412" y="114.29411764705883"/>
      <point x="181.76470588235293" y="397.70588235294116"/>
      <point x="181.76470588235293" y="463.2352941176471" type="curve" smooth="yes"/>
      <point x="181.76470588235293" y="512.5882352941177"/>
      <point x="194.14705882352942" y="552.3529411764706"/>
    </contour>
  </outline>
</glyph>
<glyph name="dieresis" format="2">
  <advance width="279.0882352941176"/>
  <unicode hex="00A8"/>
  <note>
dieresis
</note>
  <anchor x="175.47058823529412" y="491.02941176470586" name="_top"/>
  <outline>
    <contour>
      <point x="172.91176470588235" y="664.4117647058823" type="curve" smooth="yes"/>
      <point x="172.91176470588235" y="692.8529411764706"/>
      <point x="152.47058823529412" y="714.1470588235294"/>
      <point x="123.02941176470588" y="714.1470588235294" type="curve" smooth="yes"/>
      <point x="89.29411764705883" y="714.1470588235294"/>
      <point x="57.705882352941174" y="683.7058823529412"/>
      <point x="57.705882352941174" y="648.1176470588235" type="curve" smooth="yes"/>
      <point x="57.705882352941174" y="620.5294117647059"/>
      <point x="78.1470588235294" y="598.3823529411765"/>
      <point x="106.73529411764706" y="598.3823529411765" type="curve" smooth="yes"/>
      <point x="141.3235294117647" y="598.3823529411765"/>
      <point x="172.91176470588235" y="628.8235294117648"/>
    </contour>
    <contour>
      <point x="337.0882352941176" y="664.4117647058823" type="curve" smooth="yes"/>
      <point x="337.0882352941176" y="692.8529411764706"/>
      <point x="316.5" y="714.1470588235294"/>
      <point x="287.05882352941177" y="714.1470588235294" type="curve" smooth="yes"/>
      <point x="253.47058823529412" y="714.1470588235294"/>
      <point x="221.73529411764707" y="683.5588235294117"/>
      <point x="221.73529411764707" y="648.1176470588235" type="curve" smooth="yes"/>
      <point x="221.73529411764707" y="620.6764705882352"/>
      <point x="242.3235294117647" y="598.3823529411765"/>
      <point x="270.7647058823529" y="598.3823529411765" type="curve" smooth="yes"/>
      <point x="305.3529411764706" y="598.3823529411765"/>
      <point x="337.0882352941176" y="628.8235294117648"/>
    </contour>
  </outline>
</glyph>
<glyph name="copyright" format="2">
  <advance width="639.7352941176471"/>
  <unicode hex="00A9"/>
  <note>
copyright
</note>
  <outline>
    <contour>
      <point x="593.0294117647059" y="250.0" type="curve" smooth="yes"/>
      <point x="593.0294117647059" y="399.44117647058823"/>
      <point x="469.7352941176471" y="522.7352941176471"/>
      <point x="320.29411764705884" y="522.7352941176471" type="curve" smooth="yes"/>
      <point x="169.85294117647058" y="522.7352941176471"/>
      <point x="47.55882352941177" y="400.44117647058823"/>
      <point x="47.55882352941177" y="250.0" type="curve" smooth="yes"/>
      <point x="47.55882352941177" y="99.55882352941177"/>
      <point x="169.85294117647058" y="-22.735294117647058"/>
      <point x="320.29411764705884" y="-22.735294117647058" type="curve" smooth="yes"/>
      <point x="469.7352941176471" y="-22.735294117647058"/>
      <point x="593.0294117647059" y="100.55882352941177"/>
    </contour>
    <contour>
      <point x="553.8823529411765" y="250.0" type="curve" smooth="yes"/>
      <point x="553.8823529411765" y="121.55882352941177"/>
      <point x="448.7352941176471" y="16.41176470588235"/>
      <point x="320.29411764705884" y="16.41176470588235" type="curve" smooth="yes"/>
      <point x="191.85294117647058" y="16.41176470588235"/>
      <point x="86.70588235294117" y="121.55882352941177"/>
      <point x="86.70588235294117" y="250.0" type="curve" smooth="yes"/>
      <point x="86.70588235294117" y="378.44117647058823"/>
      <point x="191.85294117647058" y="483.5882352941176"/>
      <point x="320.29411764705884" y="483.5882352941176" type="curve" smooth="yes"/>
      <point x="448.7352941176471" y="483.5882352941176"/>
      <point x="553.8823529411765" y="378.44117647058823"/>
    </contour>
    <contour>
      <point x="437.61764705882354" y="117.97058823529412" type="curve"/>
      <point x="409.8529411764706" y="164.05882352941177" type="line"/>
      <point x="384.1764705882353" y="145.91176470588235"/>
      <point x="364.88235294117646" y="135.3235294117647"/>
      <point x="332.7647058823529" y="135.3235294117647" type="curve" smooth="yes"/>
      <point x="271.20588235294116" y="135.3235294117647"/>
      <point x="245.52941176470588" y="203.85294117647058"/>
      <point x="245.52941176470588" y="255.26470588235293" type="curve" smooth="yes"/>
      <point x="245.52941176470588" y="303.94117647058823"/>
      <point x="270.9117647058824" y="368.0882352941176"/>
      <point x="328.7352941176471" y="368.0882352941176" type="curve" smooth="yes"/>
      <point x="360.0" y="368.0882352941176"/>
      <point x="377.1470588235294" y="360.5"/>
      <point x="400.55882352941177" y="341.0882352941176" type="curve"/>
      <point x="432.61764705882354" y="381.7352941176471" type="line"/>
      <point x="404.7647058823529" y="400.02941176470586"/>
      <point x="369.5882352941176" y="415.02941176470586"/>
      <point x="336.5882352941176" y="415.02941176470586" type="curve" smooth="yes"/>
      <point x="239.85294117647058" y="415.02941176470586"/>
      <point x="179.8235294117647" y="345.88235294117646"/>
      <point x="179.8235294117647" y="250.85294117647058" type="curve" smooth="yes"/>
      <point x="179.8235294117647" y="160.38235294117646"/>
      <point x="233.11764705882354" y="86.82352941176471"/>
      <point x="328.44117647058823" y="86.82352941176471" type="curve" smooth="yes"/>
      <point x="374.7352941176471" y="86.82352941176471"/>
      <point x="398.3235294117647" y="96.11764705882354"/>
    </contour>
  </outline>
</glyph>
<glyph name="ordfeminine" format="2">
  <advance width="364.1764705882353"/>
  <unicode hex="00AA"/>
  <note>
ordfeminine
</note>
  <outline>
    <contour>
      <point x="240.7941176470588" y="720.1176470588235" type="curve" smooth="yes"/>
      <point x="132.47058823529412" y="720.1176470588235"/>
      <point x="68.61764705882354" y="604.7058823529412"/>
      <point x="68.61764705882354" y="508.70588235294116" type="curve" smooth="yes"/>
      <point x="68.61764705882354" y="440.6764705882353"/>
      <point x="101.3529411764706" y="382.5"/>
      <point x="172.38235294117646" y="382.5" type="curve" smooth="yes"/>
      <point x="207.7941176470588" y="382.5"/>
      <point x="242.38235294117646" y="397.20588235294116"/>
      <point x="265.8235294117647" y="430.5" type="curve"/>
      <point x="269.8235294117647" y="430.5" type="line"/>
      <point x="273.97058823529414" y="400.94117647058823"/>
      <point x="294.2647058823529" y="383.6470588235294"/>
      <point x="323.8235294117647" y="383.6470588235294" type="curve" smooth="yes"/>
      <point x="340.8529411764706" y="383.6470588235294"/>
      <point x="360.3235294117647" y="391.79411764705884"/>
      <point x="375.20588235294116" y="399.52941176470586" type="curve"/>
      <point x="367.47058823529414" y="433.8529411764706" type="line"/>
      <point x="359.47058823529414" y="430.8529411764706"/>
      <point x="349.5882352941176" y="428.4117647058824"/>
      <point x="340.5882352941176" y="428.4117647058824" type="curve" smooth="yes"/>
      <point x="325.02941176470586" y="428.4117647058824"/>
      <point x="320.3235294117647" y="438.8529411764706"/>
      <point x="320.3235294117647" y="454.11764705882354" type="curve" smooth="yes"/>
      <point x="320.3235294117647" y="464.97058823529414"/>
      <point x="327.7352941176471" y="510.7647058823529"/>
      <point x="364.7352941176471" y="714.9705882352941" type="curve"/>
      <point x="330.2647058823529" y="714.9705882352941" type="line"/>
      <point x="313.11764705882354" y="689.6764705882352" type="line"/>
      <point x="295.0882352941176" y="711.9705882352941"/>
      <point x="264.5" y="720.1176470588235"/>
    </contour>
    <contour>
      <point x="240.91176470588235" y="673.6470588235294" type="curve" smooth="yes"/>
      <point x="260.9117647058824" y="673.6470588235294"/>
      <point x="279.7647058823529" y="665.6470588235294"/>
      <point x="294.5" y="648.5" type="curve"/>
      <point x="285.79411764705884" y="596.9705882352941" type="line" smooth="yes"/>
      <point x="271.79411764705884" y="512.1176470588235"/>
      <point x="243.52941176470588" y="428.2647058823529"/>
      <point x="183.11764705882354" y="428.2647058823529" type="curve" smooth="yes"/>
      <point x="147.55882352941177" y="428.2647058823529"/>
      <point x="131.7058823529412" y="465.70588235294116"/>
      <point x="131.7058823529412" y="511.70588235294116" type="curve" smooth="yes"/>
      <point x="131.7058823529412" y="583.9705882352941"/>
      <point x="171.38235294117646" y="673.6470588235294"/>
    </contour>
    <contour>
      <point x="81.61764705882354" y="273.3235294117647" type="line"/>
      <point x="313.4117647058824" y="273.3235294117647" type="line"/>
      <point x="321.4117647058824" y="327.9117647058824" type="line"/>
      <point x="90.47058823529412" y="327.9117647058824" type="line"/>
    </contour>
  </outline>
</glyph>
<glyph name="guillemetleft" format="2">
  <advance width="454.0"/>
  <unicode hex="00AB"/>
  <note>
guillemotleft
</note>
  <outline>
    <contour>
      <point x="231.14705882352942" y="179.8235294117647" type="line"/>
      <point x="134.7058823529412" y="331.1470588235294" type="line"/>
      <point x="272.29411764705884" y="483.1764705882353" type="line"/>
      <point x="210.08823529411765" y="494.61764705882354" type="line"/>
      <point x="41.76470588235294" y="332.0" type="line"/>
      <point x="169.5" y="170.52941176470588" type="line"/>
    </contour>
    <contour>
      <point x="383.2352941176471" y="179.8235294117647" type="line"/>
      <point x="285.6470588235294" y="331.1470588235294" type="line"/>
      <point x="425.2352941176471" y="483.1764705882353" type="line"/>
      <point x="361.02941176470586" y="494.61764705882354" type="line"/>
      <point x="192.7058823529412" y="332.0" type="line"/>
      <point x="320.44117647058823" y="170.52941176470588" type="line"/>
    </contour>
  </outline>
</glyph>
<glyph name="logicalnot" format="2">
  <advance width="638.0"/>
  <unicode hex="00AC"/>
  <note>
logicalnot
</note>
  <outline>
    <contour>
      <point x="509.47058823529414" y="277.2352941176471" type="line"/>
      <point x="482.61764705882354" y="87.52941176470588" type="line"/>
      <point x="547.2941176470588" y="87.52941176470588" type="line"/>
      <point x="583.5882352941177" y="340.61764705882354" type="line"/>
      <point x="89.8529411764706" y="340.61764705882354" type="line"/>
      <point x="80.41176470588235" y="277.2352941176471" type="line"/>
    </contour>
  </outline>
</glyph>
<glyph name="registered" format="2">
  <advance width="470.70588235294116"/>
  <unicode hex="00AE"/>
  <note>
registered
</note>
  <outline>
    <contour>
      <point x="486.61764705882354" y="604.0294117647059" type="curve" smooth="yes"/>
      <point x="486.61764705882354" y="714.9117647058823"/>
      <point x="395.88235294117646" y="803.9411764705883"/>
      <point x="285.8529411764706" y="803.9411764705883" type="curve" smooth="yes"/>
      <point x="174.97058823529412" y="803.9411764705883"/>
      <point x="86.08823529411765" y="714.9117647058823"/>
      <point x="86.08823529411765" y="604.0294117647059" type="curve" smooth="yes"/>
      <point x="86.08823529411765" y="493.1470588235294"/>
      <point x="174.97058823529412" y="404.11764705882354"/>
      <point x="285.8529411764706" y="404.11764705882354" type="curve" smooth="yes"/>
      <point x="395.88235294117646" y="404.11764705882354"/>
      <point x="486.61764705882354" y="493.1470588235294"/>
    </contour>
    <contour>
      <point x="453.3235294117647" y="604.0294117647059" type="curve" smooth="yes"/>
      <point x="453.3235294117647" y="512.1470588235294"/>
      <point x="377.7352941176471" y="437.55882352941177"/>
      <point x="285.8529411764706" y="437.55882352941177" type="curve" smooth="yes"/>
      <point x="194.11764705882354" y="437.55882352941177"/>
      <point x="119.38235294117646" y="512.1470588235294"/>
      <point x="119.38235294117646" y="604.0294117647059" type="curve" smooth="yes"/>
      <point x="119.38235294117646" y="695.9117647058823"/>
      <point x="194.11764705882354" y="770.5"/>
      <point x="285.8529411764706" y="770.5" type="curve" smooth="yes"/>
      <point x="377.7352941176471" y="770.5"/>
      <point x="453.3235294117647" y="695.7647058823529"/>
    </contour>
    <contour>
      <point x="204.26470588235293" y="719.2058823529412" type="line"/>
      <point x="204.26470588235293" y="492.7352941176471" type="line"/>
      <point x="255.73529411764707" y="492.7352941176471" type="line"/>
      <point x="255.73529411764707" y="588.7352941176471" type="line"/>
      <point x="272.55882352941177" y="588.7352941176471" type="line"/>
      <point x="337.70588235294116" y="492.7352941176471" type="line"/>
      <point x="399.3235294117647" y="492.7352941176471" type="line"/>
      <point x="326.1764705882353" y="597.1764705882352" type="line"/>
      <point x="350.88235294117646" y="606.3235294117648"/>
      <point x="371.7352941176471" y="626.4705882352941"/>
      <point x="371.7352941176471" y="654.4705882352941" type="curve" smooth="yes"/>
      <point x="371.7352941176471" y="706.0588235294117"/>
      <point x="335.1470588235294" y="719.2058823529412"/>
      <point x="293.0" y="719.2058823529412" type="curve" smooth="yes"/>
    </contour>
    <contour>
      <point x="255.73529411764707" y="680.7352941176471" type="line"/>
      <point x="286.0" y="680.7352941176471" type="line" smooth="yes"/>
      <point x="305.0" y="680.7352941176471"/>
      <point x="320.2647058823529" y="672.8823529411765"/>
      <point x="320.2647058823529" y="656.4705882352941" type="curve" smooth="yes"/>
      <point x="320.2647058823529" y="634.2058823529412"/>
      <point x="303.8529411764706" y="627.2058823529412"/>
      <point x="279.0" y="627.2058823529412" type="curve" smooth="yes"/>
      <point x="255.73529411764707" y="627.2058823529412" type="line"/>
    </contour>
  </outline>
</glyph>
<glyph name="macron" format="2">
  <advance width="303.52941176470586"/>
  <unicode hex="00AF"/>
  <note>
macron
</note>
  <anchor x="188.97058823529412" y="491.02941176470586" name="_top"/>
  <outline>
    <contour>
      <point x="62.85294117647059" y="689.0" type="line"/>
      <point x="54.55882352941177" y="623.5294117647059" type="line"/>
      <point x="357.2352941176471" y="623.5294117647059" type="line"/>
      <point x="365.52941176470586" y="689.0" type="line"/>
    </contour>
  </outline>
</glyph>
<glyph name="degree" format="2">
  <advance width="390.2647058823529"/>
  <unicode hex="00B0"/>
  <note>
degree
</note>
  <outline>
    <contour>
      <point x="396.52941176470586" y="613.8529411764706" type="curve" smooth="yes"/>
      <point x="396.52941176470586" y="686.5588235294117"/>
      <point x="340.8235294117647" y="742.2647058823529"/>
      <point x="264.4117647058824" y="742.2647058823529" type="curve" smooth="yes"/>
      <point x="174.85294117647058" y="742.2647058823529"/>
      <point x="92.44117647058823" y="663.7058823529412"/>
      <point x="92.44117647058823" y="572.1470588235294" type="curve" smooth="yes"/>
      <point x="92.44117647058823" y="498.5882352941176"/>
      <point x="148.0" y="443.7352941176471"/>
      <point x="223.55882352941177" y="443.7352941176471" type="curve" smooth="yes"/>
      <point x="314.11764705882354" y="443.7352941176471"/>
      <point x="396.52941176470586" y="520.4411764705883"/>
    </contour>
    <contour>
      <point x="332.0882352941176" y="605.7058823529412" type="curve" smooth="yes"/>
      <point x="332.0882352941176" y="549.8823529411765"/>
      <point x="282.4117647058824" y="504.3235294117647"/>
      <point x="230.85294117647058" y="504.3235294117647" type="curve" smooth="yes"/>
      <point x="187.2941176470588" y="504.3235294117647"/>
      <point x="156.88235294117646" y="536.1764705882352"/>
      <point x="156.88235294117646" y="580.1470588235294" type="curve" smooth="yes"/>
      <point x="156.88235294117646" y="635.1176470588235"/>
      <point x="205.7058823529412" y="681.6764705882352"/>
      <point x="257.11764705882354" y="681.6764705882352" type="curve" smooth="yes"/>
      <point x="300.52941176470586" y="681.6764705882352"/>
      <point x="332.0882352941176" y="648.9705882352941"/>
    </contour>
  </outline>
</glyph>
<glyph name="plusminus" format="2">
  <advance width="632.0"/>
  <unicode hex="00B1"/>
  <note>
plusminus
</note>
  <outline>
    <contour>
      <point x="330.9117647058824" y="85.88235294117646" type="line"/>
      <point x="354.47058823529414" y="253.35294117647058" type="line"/>
      <point x="568.0" y="253.35294117647058" type="line"/>
      <point x="578.1470588235294" y="324.70588235294116" type="line"/>
      <point x="364.61764705882354" y="324.70588235294116" type="line"/>
      <point x="387.3235294117647" y="491.02941176470586" type="line"/>
      <point x="314.6764705882353" y="491.02941176470586" type="line"/>
      <point x="291.97058823529414" y="324.55882352941177" type="line"/>
      <point x="79.29411764705883" y="324.55882352941177" type="line"/>
      <point x="69.0" y="253.2058823529412" type="line"/>
      <point x="281.6764705882353" y="253.2058823529412" type="line"/>
      <point x="258.2647058823529" y="85.88235294117646" type="line"/>
    </contour>
    <contour>
      <point x="43.14705882352941" y="70.6470588235294" type="line"/>
      <point x="33.705882352941174" y="0.14705882352941177" type="line"/>
      <point x="532.5588235294117" y="0.14705882352941177" type="line"/>
      <point x="542.0" y="70.6470588235294" type="line"/>
    </contour>
  </outline>
</glyph>
<glyph name="twosuperior" format="2">
  <advance width="455.0"/>
  <unicode hex="00B2"/>
  <note>
uni00B2
</note>
  <outline>
    <contour>
      <point x="95.08823529411765" y="477.05882352941177" type="curve"/>
      <point x="95.08823529411765" y="434.5882352941176" type="line"/>
      <point x="404.02941176470586" y="434.5882352941176" type="line"/>
      <point x="432.6470588235294" y="506.55882352941177" type="line"/>
      <point x="213.0" y="506.55882352941177" type="line"/>
      <point x="312.3235294117647" y="573.5294117647059"/>
      <point x="461.1764705882353" y="699.8529411764706"/>
      <point x="461.1764705882353" y="822.1470588235294" type="curve" smooth="yes"/>
      <point x="461.1764705882353" y="876.4705882352941"/>
      <point x="428.70588235294116" y="929.0294117647059"/>
      <point x="336.4117647058824" y="929.0294117647059" type="curve" smooth="yes"/>
      <point x="231.6764705882353" y="929.0294117647059"/>
      <point x="160.2058823529412" y="864.0"/>
      <point x="160.2058823529412" y="864.0" type="curve"/>
      <point x="186.38235294117646" y="814.2058823529412" type="line"/>
      <point x="186.38235294117646" y="814.2058823529412"/>
      <point x="249.41176470588235" y="867.9411764705883"/>
      <point x="312.38235294117646" y="867.9411764705883" type="curve" smooth="yes"/>
      <point x="353.61764705882354" y="867.9411764705883"/>
      <point x="377.1764705882353" y="842.8235294117648"/>
      <point x="377.1764705882353" y="806.7058823529412" type="curve" smooth="yes"/>
      <point x="377.1764705882353" y="689.2941176470588"/>
      <point x="124.94117647058823" y="499.2352941176471"/>
    </contour>
  </outline>
</glyph>
<glyph name="threesuperior" format="2">
  <advance width="455.0"/>
  <unicode hex="00B3"/>
  <note>
uni00B3
</note>
  <outline>
    <contour>
      <point x="103.94117647058823" y="476.94117647058823" type="curve"/>
      <point x="107.23529411764706" y="423.29411764705884" type="line"/>
      <point x="381.4117647058824" y="433.5882352941176"/>
      <point x="441.47058823529414" y="561.6764705882352"/>
      <point x="441.47058823529414" y="631.7647058823529" type="curve" smooth="yes"/>
      <point x="441.47058823529414" y="688.6176470588235"/>
      <point x="400.5" y="722.0294117647059"/>
      <point x="346.6470588235294" y="729.4705882352941" type="curve"/>
      <point x="393.97058823529414" y="747.6176470588235"/>
      <point x="450.3235294117647" y="786.6176470588235"/>
      <point x="450.3235294117647" y="852.2941176470588" type="curve" smooth="yes"/>
      <point x="450.3235294117647" y="911.0294117647059"/>
      <point x="392.29411764705884" y="929.0294117647059"/>
      <point x="338.2647058823529" y="929.0294117647059" type="curve" smooth="yes"/>
      <point x="281.52941176470586" y="929.0294117647059"/>
      <point x="207.94117647058823" y="902.4411764705883"/>
      <point x="159.64705882352942" y="866.1470588235294" type="curve"/>
      <point x="185.8235294117647" y="817.9411764705883" type="line"/>
      <point x="218.11764705882354" y="843.0882352941177"/>
      <point x="271.97058823529414" y="867.9411764705883"/>
      <point x="312.4117647058824" y="867.9411764705883" type="curve" smooth="yes"/>
      <point x="347.3529411764706" y="867.9411764705883"/>
      <point x="370.61764705882354" y="854.3823529411765"/>
      <point x="370.61764705882354" y="829.2647058823529" type="curve" smooth="yes"/>
      <point x="370.61764705882354" y="762.7058823529412"/>
      <point x="280.9117647058824" y="735.4411764705883"/>
      <point x="226.64705882352942" y="724.5882352941177" type="curve"/>
      <point x="227.08823529411765" y="675.9705882352941" type="line"/>
      <point x="227.94117647058823" y="675.9705882352941"/>
      <point x="243.64705882352942" y="677.9705882352941"/>
      <point x="261.79411764705884" y="677.9705882352941" type="curve" smooth="yes"/>
      <point x="305.47058823529414" y="677.9705882352941"/>
      <point x="359.61764705882354" y="671.4117647058823"/>
      <point x="359.61764705882354" y="618.4411764705883" type="curve" smooth="yes"/>
      <point x="359.61764705882354" y="541.7647058823529"/>
      <point x="266.05882352941177" y="484.94117647058823"/>
    </contour>
  </outline>
</glyph>
<glyph name="acute" format="2">
  <advance width="283.61764705882354"/>
  <unicode hex="00B4"/>
  <note>
acute
</note>
  <anchor x="111.17647058823529" y="491.02941176470586" name="_top"/>
  <outline>
    <contour>
      <point x="199.05882352941177" y="733.2941176470588" type="line"/>
      <point x="78.8529411764706" y="579.3823529411765" type="line"/>
      <point x="160.52941176470588" y="579.3823529411765" type="line"/>
      <point x="324.44117647058823" y="733.2941176470588" type="line"/>
    </contour>
  </outline>
</glyph>
<glyph name="micro" format="2">
  <advance width="584.0"/>
  <unicode hex="00B5"/>
  <note>
uni00B5
</note>
  <outline>
    <contour>
      <point x="227.08823529411765" y="491.02941176470586" type="curve"/>
      <point x="130.23529411764707" y="491.02941176470586" type="line"/>
      <point x="134.08823529411765" y="434.61764705882354" type="line"/>
      <point x="50.94117647058823" y="-186.14705882352942" type="line"/>
      <point x="138.08823529411765" y="-186.14705882352942" type="line"/>
      <point x="164.08823529411765" y="1.4411764705882353" type="line"/>
      <point x="182.94117647058823" y="-7.705882352941177"/>
      <point x="203.7941176470588" y="-12.705882352941176"/>
      <point x="224.94117647058823" y="-12.705882352941176" type="curve" smooth="yes"/>
      <point x="280.88235294117646" y="-12.705882352941176"/>
      <point x="345.2352941176471" y="30.676470588235293"/>
      <point x="374.8235294117647" y="57.85294117647059" type="curve"/>
      <point x="375.2647058823529" y="16.441176470588236"/>
      <point x="391.44117647058823" y="-11.558823529411764"/>
      <point x="427.02941176470586" y="-11.558823529411764" type="curve" smooth="yes"/>
      <point x="466.44117647058823" y="-11.558823529411764"/>
      <point x="523.7941176470588" y="18.235294117647058"/>
      <point x="529.0882352941177" y="19.705882352941178" type="curve"/>
      <point x="519.0882352941177" y="73.94117647058823" type="line"/>
      <point x="517.0294117647059" y="73.3529411764706"/>
      <point x="488.79411764705884" y="61.94117647058823"/>
      <point x="469.52941176470586" y="61.94117647058823" type="curve" smooth="yes"/>
      <point x="462.20588235294116" y="61.94117647058823"/>
      <point x="457.5" y="65.70588235294117"/>
      <point x="457.5" y="75.58823529411765" type="curve"/>
      <point x="457.5" y="88.0"/>
      <point x="489.20588235294116" y="317.20588235294116"/>
      <point x="512.6176470588235" y="491.02941176470586" type="curve"/>
      <point x="415.61764705882354" y="491.02941176470586" type="line"/>
      <point x="419.61764705882354" y="434.61764705882354" type="line"/>
      <point x="378.47058823529414" y="127.44117647058823" type="line"/>
      <point x="364.6764705882353" y="113.79411764705883"/>
      <point x="303.0882352941176" y="64.23529411764706"/>
      <point x="245.1764705882353" y="64.23529411764706" type="curve" smooth="yes"/>
      <point x="194.64705882352942" y="64.23529411764706"/>
      <point x="182.08823529411765" y="100.3529411764706"/>
      <point x="182.08823529411765" y="142.1764705882353" type="curve" smooth="yes"/>
      <point x="182.08823529411765" y="163.02941176470588"/>
      <point x="182.8235294117647" y="166.3235294117647"/>
    </contour>
  </outline>
</glyph>
<glyph name="paragraph" format="2">
  <advance width="503.0882352941176"/>
  <unicode hex="00B6"/>
  <note>
paragraph
</note>
  <outline>
    <contour>
      <point x="106.08823529411765" y="-109.70588235294117" type="curve"/>
      <point x="89.94117647058823" y="-154.0" type="line"/>
      <point x="102.94117647058823" y="-158.0"/>
      <point x="115.08823529411765" y="-160.0"/>
      <point x="128.23529411764707" y="-160.0" type="curve" smooth="yes"/>
      <point x="169.97058823529412" y="-160.0"/>
      <point x="208.2941176470588" y="-137.0"/>
      <point x="228.2941176470588" y="-99.0" type="curve"/>
      <point x="234.2941176470588" y="-100.0"/>
      <point x="240.2941176470588" y="-100.0"/>
      <point x="246.14705882352942" y="-100.0" type="curve" smooth="yes"/>
      <point x="305.8529411764706" y="-100.0"/>
      <point x="360.94117647058823" y="-51.0"/>
      <point x="368.94117647058823" y="10.0" type="curve" smooth="yes"/>
      <point x="460.6470588235294" y="661.7941176470588" type="line"/>
      <point x="516.6470588235294" y="661.7941176470588" type="line"/>
      <point x="524.9411764705883" y="718.0" type="line"/>
      <point x="330.0" y="718.0" type="line" smooth="yes"/>
      <point x="180.76470588235293" y="718.0"/>
      <point x="75.82352941176471" y="626.2941176470588"/>
      <point x="75.82352941176471" y="483.1764705882353" type="curve" smooth="yes"/>
      <point x="75.82352941176471" y="386.6470588235294"/>
      <point x="145.11764705882354" y="320.2352941176471"/>
      <point x="242.3235294117647" y="320.2352941176471" type="curve"/>
      <point x="191.23529411764707" y="-45.529411764705884" type="line" smooth="yes"/>
      <point x="186.23529411764707" y="-81.82352941176471"/>
      <point x="161.64705882352942" y="-111.55882352941177"/>
      <point x="124.20588235294117" y="-111.55882352941177" type="curve" smooth="yes"/>
      <point x="118.5" y="-111.55882352941177"/>
      <point x="112.79411764705883" y="-111.55882352941177"/>
    </contour>
    <contour>
      <point x="347.11764705882354" y="661.7941176470588" type="line"/>
      <point x="405.1764705882353" y="661.7941176470588" type="line"/>
      <point x="313.7647058823529" y="11.470588235294118" type="line" smooth="yes"/>
      <point x="309.61764705882354" y="-18.529411764705884"/>
      <point x="285.70588235294116" y="-45.529411764705884"/>
      <point x="247.7058823529412" y="-45.529411764705884" type="curve"/>
    </contour>
  </outline>
</glyph>
<glyph name="periodcentered" format="2">
  <advance width="286.1764705882353"/>
  <unicode hex="00B7"/>
  <note>
periodcentered
</note>
  <outline>
    <contour>
      <point x="216.1764705882353" y="265.5882352941176" type="curve" smooth="yes"/>
      <point x="216.1764705882353" y="299.02941176470586"/>
      <point x="190.73529411764707" y="323.61764705882354"/>
      <point x="156.14705882352942" y="323.61764705882354" type="curve" smooth="yes"/>
      <point x="116.41176470588235" y="323.61764705882354"/>
      <point x="79.38235294117646" y="287.88235294117646"/>
      <point x="79.38235294117646" y="246.85294117647058" type="curve" smooth="yes"/>
      <point x="79.38235294117646" y="213.41176470588235"/>
      <point x="103.97058823529412" y="187.97058823529412"/>
      <point x="138.55882352941177" y="187.97058823529412" type="curve" smooth="yes"/>
      <point x="178.2941176470588" y="187.97058823529412"/>
      <point x="216.1764705882353" y="223.7058823529412"/>
    </contour>
  </outline>
</glyph>
